<?xml version="1.0" encoding="utf-8" ?>
<svg xmlns="http://www.w3.org/2000/svg" xmlns:xlink="http://www.w3.org/1999/xlink" width="1024" height="1024">
	<path d="M599.818 361.396L600.38 361.235C604.357 360.055 608.073 358.181 611.97 356.766C626.113 351.631 639.091 350.18 652.784 357.562C663.478 363.212 672.605 371.424 679.349 381.463C683.49 386.763 686.344 392.224 685.562 399.202C685.415 400.516 685.228 401.814 684.814 403.072C684.139 404.89 683.503 406.732 682.746 408.516C680.972 412.797 679.121 417.715 676.349 421.45C672.962 427.906 669.882 434.292 667.368 441.152C666.383 444.458 665.302 447.734 664.126 450.976C667.321 457.725 673.897 464.554 679.067 469.954C683.554 470.161 689.552 469.929 692.752 473.651C693.939 475.033 693.999 476.552 694.192 478.282C732.019 496.564 747.695 516.868 761.329 556.014C763.428 562.04 765.134 568.348 767.876 574.114L768.167 574.735C768.226 574.859 768.287 574.981 768.348 575.105C769.488 560.95 773.576 543.069 784.854 533.346C791.738 527.411 800.983 525.842 809.808 526.594C820.806 527.532 830.582 532.847 837.634 541.299C855.679 562.925 854.238 597.715 851.687 624.145C850.535 636.506 848.507 648.77 845.62 660.845C839.24 687.985 822.426 739.508 800.707 757.258C784.524 770.485 745.417 772.455 724.49 774.067L724.506 796.367L788.878 795.241C789.271 789.23 789.731 784.996 793.497 780.034C796.298 777.161 799.227 775.594 802.943 774.261C812.365 771.25 842.443 773.436 853.398 774.175C856.979 774.943 860.241 775.816 863.089 778.289C868.168 782.698 868.842 789.206 869.189 795.489C877.613 795.397 917.395 793.638 922.108 797.062C922.959 797.68 923.479 799.065 923.749 800.053C925.487 806.418 924.062 825.146 924.013 832.643L923.882 898.235L924.081 933.386C924.137 939.579 924.587 946.079 924.116 952.245C923.865 955.531 922.921 957.697 921.348 960.518C937.995 961.117 954.715 959.737 971.327 960.454C974.853 960.606 978.873 960.897 981.326 963.765C982.678 965.344 983.815 968.071 983.419 970.177C982.782 973.575 979.205 975.595 976.453 977.113C886.922 976.113 797.274 976.849 707.733 976.967L325.474 977.015L141.185 977.019L90.1947 976.919C80.2427 976.965 70.1706 977.463 60.2311 977.042C57.1494 976.911 52.94 976.62 50.4986 974.558C49.0092 973.3 48.1448 971.326 48.0652 969.397C47.9519 967.149 48.8004 964.96 50.3985 963.375C52.415 961.374 55.4044 960.976 58.1104 960.693C71.3191 959.309 89.3012 960.427 103.003 960.612C126.726 960.955 150.452 961.076 174.178 960.975L207.403 758.704C212.264 728.658 217.715 698.707 222.015 668.572C213.669 667.953 205.197 668.122 196.836 668.419C197.124 662.254 197.372 656.088 197.58 649.921L235.09 649.872C232.549 639.174 229.697 628.322 228.205 617.411C227.627 613.177 229.8 610.593 228.16 606.46C228.76 606.282 229.151 606.338 229.766 606.385C231.484 607.525 232.464 609.361 233.588 611.05C243.746 612.194 255.336 612.279 265.546 611.526C265.97 609.739 266.288 607.623 267.084 605.972C267.646 604.807 267.998 604.783 269.138 604.335C268.955 605.153 268.709 606.026 268.632 606.86C268.475 608.551 268.818 608.982 269.802 610.271C270.208 610.803 270.607 611.204 270.887 611.824C272.985 616.475 266.345 643.371 264.789 649.543C282.692 649.862 300.616 649.46 318.525 649.708C320.08 641.975 322.664 634.355 324.844 626.769C328.311 614.727 331.678 602.656 334.942 590.558C327.314 590.195 298.276 592.121 293.557 589.166C291.405 587.818 289.724 581.592 289.009 579.14C287.07 572.487 285.761 565.569 284.244 558.803L276.382 523.393C273.157 508.815 268.93 494.217 266.261 479.554L268.666 479.177C265.451 464.082 261.634 449.137 258.382 434.054C257.472 434.56 257.407 434.849 256.348 434.619C256.032 433.739 255.975 433.246 256.125 432.297C256.719 428.551 259.745 425.957 262.747 424.101C265.636 423.77 268.114 423.129 270.605 424.842C283.158 425.485 296.11 424.412 308.69 424.114C329.866 423.611 351.01 423.433 372.174 422.426C374.529 420.971 406.791 420.927 413.8 419.455C414.923 418.1 416.139 416.674 417.495 415.554C418.687 414.57 419.74 414.097 421.302 414.192C419.775 415.761 418.152 417.298 416.788 419.011C429.167 418.594 441.548 418.271 453.932 418.041C461.718 417.858 469.667 417.326 477.437 417.839C481.347 434.776 486.051 451.461 490.443 468.272L506.528 530.692C511.027 547.785 516.444 564.97 519.742 582.323C513.816 586.162 506.396 589.385 499.397 590.544C490.263 592.056 480.471 590.718 471.254 590.615L427.561 590.53C417.698 590.532 407.646 590.19 397.814 591.014C395.889 600.762 393.468 610.416 391.28 620.108C389.932 626.08 388.884 632.135 387.426 638.077C398.042 638.336 408.663 638.363 419.28 638.157C428.95 638.037 438.928 637.436 448.489 639.113L449.002 638.73C453.622 635.212 456.912 630.355 460.489 625.843C470.234 613.551 481.227 607.212 497.333 609.303C507.931 610.678 518.731 614.724 528.885 617.975C541.752 613.42 554.374 608.299 567.16 603.543C575.419 600.47 584.057 597.751 591.896 593.717C609.04 584.894 618.455 567.663 626.458 550.915C631.766 539.808 635.133 527.764 640.488 516.673C643.948 509.505 648.739 502.982 653.224 496.424C646.255 489.049 638.934 482.058 631.574 475.077C626.373 480.47 617.088 489.831 609.07 490.157C606.56 490.259 604.825 489.263 603.085 487.541C601.436 485.908 591.843 474.363 591.052 472.993C590.237 471.582 589.839 469.81 589.427 468.243C586.422 467.328 578.651 466.652 577.071 464.017C576.072 462.352 576.429 460.388 577.021 458.656C578.921 453.098 584.906 447.819 585.22 442.061L584.916 441.763C579.505 434.082 578.614 432.988 578.789 423.513C578.826 421.484 578.904 419.691 578.363 417.705C574.159 415.698 568.599 410.32 566.292 406.315C565.754 405.469 565.209 404.607 564.792 403.694C561.477 396.449 564.212 387.384 567.047 380.435C570.338 373.735 573.634 367.873 579.949 363.589C586.301 361.291 593.148 361.62 599.818 361.396ZM799.307 791.092C799.048 792.215 798.856 793.34 798.661 794.475L799.092 795.064C805.627 795.592 812.403 795.173 818.97 795.135C832.238 794.986 845.509 795.019 858.777 795.235C858.214 791.93 857.791 788.607 855.494 785.992C852.349 782.411 847.295 782.212 842.89 781.777C834.359 782.817 824.752 781.956 816.117 781.913C813.376 781.763 810.643 782.038 807.91 782.233C803.756 784.506 801.488 786.885 799.307 791.092ZM312.427 961.015L373.785 961.001C384.948 961.006 396.696 961.751 407.789 960.563C410.613 951.849 414.171 944.993 422.795 940.649C435.9 934.046 451.02 933.507 463.7 925.471C461.088 924.34 458.427 923.335 455.813 922.214C459.029 921.792 462.959 922.038 465.956 920.964L466.015 920.271C463.355 917.728 457.007 916.589 455.792 913.122L456.027 912.005C457.185 911.476 457.816 911.537 459.019 912.023C461.909 913.189 464.949 915.118 467.244 917.192C467.742 912.872 467.74 906.304 471.55 903.357C473.097 902.16 474.703 902.064 476.588 902.058C477.075 902.108 478.045 902.285 478.562 902.185C479.997 901.904 480.417 900.494 481.105 899.353C478.637 898.18 470.062 894.838 469.2 892.095C466.827 884.549 517.636 734.211 525.598 713.618C527.421 708.902 529.488 704.37 531.955 699.955C539.314 686.784 549.443 680.86 563.583 676.858C572.079 672.899 575.983 670.162 585.642 668.21C560.853 669.052 536.038 668.242 511.25 668.091C461.269 667.879 411.287 667.977 361.307 668.385C355.246 697.805 350.883 727.711 345.997 757.351L325.326 882.888C321.176 908.901 317.711 935.208 312.427 961.015ZM225.886 745.006C218.642 795.942 209.66 846.751 201.49 897.554C198.662 915.139 195.436 932.764 193.085 950.413L261.25 950.51C273.608 950.583 285.966 950.575 298.324 950.486C302.476 931.221 304.685 911.322 307.902 891.861C315.649 842.762 323.78 793.724 332.295 744.752C309.524 744.018 286.602 744.366 263.824 744.761L225.886 745.006ZM644.561 778.551C647.446 789.969 660.833 885.949 659.074 891.618C656.731 894.784 650.586 893.342 649.296 895.864C650.718 900.365 651.075 905.384 651.698 910.058C660.013 917.028 661.86 928.972 662.909 939.12C677.549 937.004 692.091 935.008 706.594 932.039C705.908 911.264 706.63 890.241 706.497 869.434C706.294 837.857 705.516 806.119 706.757 774.558C685.204 773.602 664.044 771.888 642.664 768.975C643.531 772.153 644.075 775.296 644.561 778.551ZM721.685 774.08L709.068 774.55L708.947 931.499C712.351 931.756 715.64 931.609 719.043 931.402C718.294 928.616 718.533 925.487 718.339 922.603C718 917.563 717.431 912.443 717.444 907.392C717.467 899.163 718.298 890.878 718.412 882.617C718.703 861.611 718.861 840.473 718.223 819.474C717.936 823.16 717.97 826.895 717.904 830.592C717.391 823.379 716.627 815.68 717.552 808.492L717.804 812.663C718.517 807.533 718.558 802.53 718.694 797.368C720.001 796.854 720.744 796.846 721.293 795.449C723.266 790.435 721.883 779.636 721.685 774.08ZM717.998 958.099C719.6 953.366 718.896 946.861 718.421 941.969L717.825 934.869C707.827 933.434 697.807 936.581 687.992 938.428C679.931 939.945 671.677 941.392 663.488 941.961C663.28 948.116 662.985 954.372 661.843 960.435C668.557 960.449 715.542 961.271 718.034 960.224C717.998 959.984 717.957 959.744 717.926 959.503C717.803 958.546 717.78 958.927 717.998 958.099ZM598.397 921.592C599.214 922.146 600.08 922.816 601.045 923.068C601.959 923.306 602.092 923.349 602.916 922.855C602.126 921.594 600.631 921.327 599.297 920.862C597.902 918.977 597.145 917.139 596.849 914.795C596.553 912.446 597.009 910.363 598.501 908.49C601.356 904.907 605.438 904.274 609.673 903.674C611.947 903.37 614.224 903.087 616.502 902.826C616.622 902.614 616.55 902.341 616.551 902.098C612.781 901.22 603.932 902.562 599.514 902.484C595.818 893.682 593.673 883.696 591.356 874.457L580.657 830.548C579.191 824.537 577.746 814.237 574.648 809.241L573.583 809.557C570.55 819.49 566.351 828.973 562.36 838.547L545.329 879.344C541.2 889.354 536.011 905.517 531.129 914.216C529.293 913.931 527.384 913.737 525.576 913.32C523.769 912.871 521.533 912.025 519.677 912.304C515.723 918.521 521.607 936.171 522.103 943.661C522.486 949.422 521.951 955.228 521.214 960.938C529.945 960.963 538.72 961.172 547.445 960.897C547.459 955.137 547.521 950.328 551.961 946.059C560.65 937.704 579.185 931.748 590.793 928.131C591.151 926.028 591.367 923.279 593.196 921.876C594.758 920.678 596.669 921.154 598.397 921.592ZM240.182 668.511C237.015 688.834 233.627 709.09 231.103 729.51L309.625 729.492C315.046 729.509 326.367 730.543 330.986 728.572C332.983 723.455 333.528 717.115 334.489 711.677C337.025 697.32 339.054 682.882 341.58 668.527C315.609 668.004 289.631 667.915 263.657 668.26C255.855 668.685 247.995 668.515 240.182 668.511Z"/>
	<path fill="#FEFEFE" d="M258.382 434.054L414.828 431.984C423.092 431.964 431.356 431.762 439.612 431.379C446.529 431.108 453.97 430.356 460.821 431.48C464.222 438.85 465.747 447.083 467.708 454.932C471 468.041 474.183 481.176 477.256 494.338C484.866 525.573 493.519 556.611 500.919 587.886C466.899 588.948 432.687 588.063 398.646 588.003L404.788 560.572C384.691 559.622 364.389 560.194 344.26 559.997C341.473 569.184 338.797 578.424 335.753 587.529C321.924 587.947 307.74 589.02 293.961 587.498C289.175 574.891 287.607 561.164 284.662 548.048L268.666 479.177C265.451 464.082 261.634 449.137 258.382 434.054Z"/>
	<path d="M360.353 467.056C363.315 467.138 365.844 467.69 368.506 469.025C378.339 473.955 384.354 485.168 387.476 495.269C390.761 505.896 391.821 519.627 386.233 529.705C383.333 534.936 379.175 537.873 373.495 539.49C370.25 539.496 367.194 538.682 364.328 537.163C354.544 531.976 348.878 520.619 345.907 510.423C342.739 499.549 342.397 486.434 348.247 476.346C351.099 471.427 354.917 468.567 360.353 467.056Z"/>
	<path fill="#FEFEFE" d="M358.597 470.028C361.134 469.826 363.344 469.784 365.781 470.616C373.771 473.341 378.99 481.213 382.38 488.53C387.417 499.401 390.068 514.13 385.588 525.625C383.437 531.146 380.169 534.133 374.93 536.532C373.101 536.735 371.332 536.754 369.526 536.335C362.647 534.736 357.466 528.884 353.985 523.051C347.445 512.089 344.252 497.834 347.466 485.285C349.221 478.43 352.538 473.65 358.597 470.028Z"/>
	<path fill="#2B2D3E" d="M599.818 361.396L600.38 361.235C604.357 360.055 608.073 358.181 611.97 356.766C626.113 351.631 639.091 350.18 652.784 357.562C663.478 363.212 672.605 371.424 679.349 381.463C683.49 386.763 686.344 392.224 685.562 399.202C685.415 400.516 685.228 401.814 684.814 403.072C684.139 404.89 683.503 406.732 682.746 408.516C680.972 412.797 679.121 417.715 676.349 421.45C672.962 427.906 669.882 434.292 667.368 441.152C666.383 444.458 665.302 447.734 664.126 450.976C662.023 450.488 659.137 452.082 656.943 452.368C658.081 452.612 659.155 452.826 660.249 453.236C655.422 453.731 649.783 454.9 645.402 452.305C643.493 451.017 642.114 449.399 640.594 447.697C642.609 442.39 644.683 436.867 643.895 431.08C643.541 428.481 642.622 425.635 640.349 424.097C638.128 422.595 635.71 422.481 633.179 423.049C632.77 423.661 632.521 424.2 631.881 424.587L630.421 427.22L628.273 426.521C626.571 427.839 625.226 428.529 623.026 428.48L620.123 429.338L612.839 428.333L614.512 426.764C607.215 424.539 599.668 423.118 592.343 420.98C588.144 419.753 583.485 417.134 579.273 416.551L578.363 417.705C574.159 415.698 568.599 410.32 566.292 406.315C565.754 405.469 565.209 404.607 564.792 403.694C561.477 396.449 564.212 387.384 567.047 380.435C570.338 373.735 573.634 367.873 579.949 363.589C586.301 361.291 593.148 361.62 599.818 361.396Z"/>
	<path fill="#2B2D3E" d="M566.292 406.315C566.617 405.21 566.706 405.508 566.212 404.357C564.609 400.627 565.838 393.843 566.851 390.031C581.487 406.605 602.587 414.546 623.747 419.157C625.258 419.487 632.669 420.775 633.128 421.661C633.341 422.072 633.162 422.586 633.179 423.049C632.77 423.661 632.521 424.2 631.881 424.587L630.421 427.22L628.273 426.521C626.571 427.839 625.226 428.529 623.026 428.48L620.123 429.338L612.839 428.333L614.512 426.764C607.215 424.539 599.668 423.118 592.343 420.98C588.144 419.753 583.485 417.134 579.273 416.551L578.363 417.705C574.159 415.698 568.599 410.32 566.292 406.315Z"/>
	<path fill="#131419" d="M614.512 426.764L623.026 428.48L620.123 429.338L612.839 428.333L614.512 426.764Z"/>
	<path fill="#131419" d="M628.273 426.521C629.45 425.453 630.374 425.063 631.881 424.587L630.421 427.22L628.273 426.521Z"/>
	<path d="M567.047 380.435C568.343 383.313 567.583 385.446 566.956 388.444C571.688 392.251 576.382 396.31 581.43 399.69C593.468 407.749 608.06 412.707 621.931 416.665C627.896 418.367 634.782 418.895 640.27 421.835C643.526 423.58 645.412 426.175 645.806 429.869C646.224 433.779 645.206 437.75 645.682 441.632L646.45 442.037C651.161 438.928 657.837 419.143 659.798 412.822C661.256 408.123 662.163 403.059 664.152 398.557C664.625 397.487 665.163 396.056 666.422 396.045C666.916 397.806 666.632 399.423 666.226 401.181C664.825 407.242 654.341 437.455 651.65 441.843C649.922 444.662 646.092 446.958 645.089 450.019C645.442 451.016 645.785 451.282 645.402 452.305C643.493 451.017 642.114 449.399 640.594 447.697C642.609 442.39 644.683 436.867 643.895 431.08C643.541 428.481 642.622 425.635 640.349 424.097C638.128 422.595 635.71 422.481 633.179 423.049C633.162 422.586 633.341 422.072 633.128 421.661C632.669 420.775 625.258 419.487 623.747 419.157C602.587 414.546 581.487 406.605 566.851 390.031C565.838 393.843 564.609 400.627 566.212 404.357C566.706 405.508 566.617 405.21 566.292 406.315C565.754 405.469 565.209 404.607 564.792 403.694C561.477 396.449 564.212 387.384 567.047 380.435Z"/>
	<path d="M579.949 363.589C586.301 361.291 593.148 361.62 599.818 361.396C595.764 364.613 589.386 363.827 584.419 364.776C593.666 387.532 620.864 397.023 636.905 413.651C622.488 408.085 600.458 390.498 590.699 378.564C587.575 374.744 583.797 365.87 579.949 363.589Z"/>
	<path d="M679.349 381.463C683.49 386.763 686.344 392.224 685.562 399.202C685.415 400.516 685.228 401.814 684.814 403.072L683.301 401.365C683.506 399.487 683.759 397.414 683.356 395.55C682.452 391.365 677.903 385.359 679.349 381.463Z"/>
	<path d="M667.368 441.152C667.189 440.877 666.833 440.375 666.722 440.038C665.571 436.533 669.665 428.609 671.4 425.521C672.435 423.677 673.591 421.175 675.704 420.579L676.349 421.45C672.962 427.906 669.882 434.292 667.368 441.152Z"/>
	<path fill="#131419" d="M683.301 401.365L684.814 403.072C684.139 404.89 683.503 406.732 682.746 408.516L681.937 407.243C681.879 405.191 682.674 403.294 683.301 401.365Z"/>
	<path d="M620.343 377.114C628.576 379.404 647.203 395.477 651.769 402.998C651.2 402.806 651.115 402.798 650.5 402.472C646.11 400.146 626.104 383.879 622.283 380.034C621.341 379.085 620.798 378.366 620.343 377.114Z"/>
	<path fill="#FEFEFE" d="M578.363 417.705L579.273 416.551C583.485 417.134 588.144 419.753 592.343 420.98C599.668 423.118 607.215 424.539 614.512 426.764L612.839 428.333L620.123 429.338L623.026 428.48C625.226 428.529 626.571 427.839 628.273 426.521L630.421 427.22L631.881 424.587C632.521 424.2 632.77 423.661 633.179 423.049C635.71 422.481 638.128 422.595 640.349 424.097C642.622 425.635 643.541 428.481 643.895 431.08C644.683 436.867 642.609 442.39 640.594 447.697C642.114 449.399 643.493 451.017 645.402 452.305C649.783 454.9 655.422 453.731 660.249 453.236L661.187 453.199C666.703 458.407 671.222 465.695 676.137 471.6C669.193 479.087 661.976 486.264 654.731 493.457C646.861 487.485 640.106 479.849 633.345 472.688C634.906 470.322 636.529 467.898 637.79 465.356C638.786 463.348 640.643 459.329 639.947 457.238C637.66 459.407 636.27 462.783 634.65 465.49C630.418 472.562 624.811 478.974 618.028 483.71C615.139 485.728 611.197 488.091 607.526 487.255C603.2 486.269 599.859 478.318 597.48 474.766C600.595 472.247 604.541 471.014 607.577 468.392C609.206 466.985 610.2 465.407 610.346 463.234L609.809 462.737C606.861 463.916 604.007 467.886 601.395 469.877C599.624 471.227 597.482 472.24 595.515 473.277C593.747 470.804 592.414 468.101 591.019 465.408C587.868 464.922 582.741 464.722 580.938 461.626C578.914 458.151 584.182 452.122 585.594 449.017C586.374 447.303 586.765 445.575 587.106 443.736L587.228 443.041L585.22 442.061L584.916 441.763C579.505 434.082 578.614 432.988 578.789 423.513C578.826 421.484 578.904 419.691 578.363 417.705Z"/>
	<path d="M578.363 417.705L579.273 416.551C583.485 417.134 588.144 419.753 592.343 420.98C599.668 423.118 607.215 424.539 614.512 426.764L612.839 428.333L608.736 429.275C608.477 428.26 608.214 427.21 607.388 426.487C604.708 424.142 598.984 424.983 595.765 425.574C594.699 425.77 594.039 425.828 592.957 425.538C590.345 426.068 588.272 426.602 586.355 428.532C587.089 430.591 585.503 439.298 584.916 441.763C579.505 434.082 578.614 432.988 578.789 423.513C578.826 421.484 578.904 419.691 578.363 417.705Z"/>
	<path fill="#FEFEFE" d="M581.279 420.006C584.201 420.946 591.921 422.521 593.874 424.717L592.957 425.538C590.345 426.068 588.272 426.602 586.355 428.532C585.284 429.549 584.305 430.754 583.308 431.85L582.532 431.317C581.023 427.805 581.055 423.761 581.279 420.006Z"/>
	<defs>
		<linearGradient id="gradient_0" gradientUnits="userSpaceOnUse" x1="598.82391" y1="439.85715" x2="592.5379" y2="425.7063">
			<stop offset="0" stop-color="#070807"/>
			<stop offset="1" stop-color="#202337"/>
		</linearGradient>
	</defs>
	<path fill="url(#gradient_0)" d="M592.957 425.538C594.039 425.828 594.699 425.77 595.765 425.574C598.984 424.983 604.708 424.142 607.388 426.487C608.214 427.21 608.477 428.26 608.736 429.275C605.373 430.729 602.334 431.346 598.716 431.853L598.885 432.613L597.955 433.757C597.095 433.521 596.04 433.146 595.163 433.013C593.67 432.787 591.361 433.61 590.085 434.394L589.629 435.299L590.351 436.625C591.494 436.494 591.576 436.398 592.497 435.823C593.492 435.2 593.992 434.969 595.203 435.086C596.25 436.036 596.606 436.807 596.617 438.246C596.627 439.728 596.233 440.841 595.674 442.193C594.618 443.07 594.118 443.412 592.7 443.3C591.296 443.19 588.365 442.199 587.228 443.041L585.22 442.061L584.916 441.763C585.503 439.298 587.089 430.591 586.355 428.532C588.272 426.602 590.345 426.068 592.957 425.538Z"/>
	<path d="M598.885 432.613C601.625 436.121 603.07 439.598 602.453 444.139C602.225 445.818 601.496 447.638 599.964 448.527C598.504 449.374 596.03 449.376 594.513 448.682C592.973 447.979 592.035 446.441 591.223 445.037L591.23 444.211C592.328 444.392 591.869 444.147 592.58 444.841C593.729 445.96 594.573 446.875 596.111 447.382C597.349 447.289 597.956 447.312 598.855 446.303C600.552 444.398 600.794 440.728 600.292 438.353C599.926 436.621 599.199 435.025 597.955 433.757L598.885 432.613Z"/>
	<path d="M628.273 426.521L630.421 427.22C629.448 429.153 628.512 431.117 627.417 432.985C625.052 430.767 623.244 430.052 620.123 429.338L623.026 428.48C625.226 428.529 626.571 427.839 628.273 426.521Z"/>
	<path d="M633.656 427.257C634.244 427.271 634.928 427.253 635.512 427.373C637.119 427.703 638.664 428.716 639.414 430.219C640.256 431.91 639.862 433.648 639.406 435.37C638.173 435.479 636.538 431.052 634.825 430.21C633.529 430.894 633.393 431.619 632.73 432.899C633.036 434.603 633.429 436.373 633.561 438.097C633.654 439.328 633.611 440.475 632.78 441.455L631.966 440.927C631.515 439.907 631.134 438.986 630.946 437.879C630.21 433.554 631.123 430.717 633.656 427.257Z"/>
	<path fill="#7CD5CE" d="M372.174 422.426C404.988 423.164 437.886 421.005 470.712 420.909C466.943 423.444 463.211 426.077 459.353 428.473L300.793 430.568C286.554 430.744 272.333 431.57 258.089 431.484C259.828 429.43 261.5 427.465 263.574 425.728L270.605 424.842C283.158 425.485 296.11 424.412 308.69 424.114C329.866 423.611 351.01 423.433 372.174 422.426Z"/>
	<path fill="#2B2D3E" d="M802.943 774.261C812.365 771.25 842.443 773.436 853.398 774.175L854.2 776.07C853.578 776.727 853.449 776.7 852.564 776.705C848.48 776.73 842.219 773.78 838.859 777.572C837.959 778.588 837.389 780.213 836.865 781.447C838.789 781.431 841.082 781.127 842.89 781.777C834.359 782.817 824.752 781.956 816.117 781.913C813.376 781.763 810.643 782.038 807.91 782.233C803.756 784.506 801.488 786.885 799.307 791.092C797.199 791.974 796.26 794.403 794.391 795.775C792.98 795.921 792.877 796.046 791.716 795.269C791.414 794.578 791.193 793.943 791.158 793.18C790.975 789.245 792.4 784.094 795.105 781.254L793.497 780.034C796.298 777.161 799.227 775.594 802.943 774.261Z"/>
	<path d="M807.91 782.233C807.73 780.887 807.956 779.736 808.227 778.419C809.323 777.524 809.497 777.407 810.995 777.579C812.984 777.808 815.155 779.764 816.715 780.94C816.445 781.772 816.683 781.474 816.117 781.913C813.376 781.763 810.643 782.038 807.91 782.233Z"/>
	<path fill="#131419" d="M802.943 774.261C802.848 775.421 802.752 775.712 801.817 776.563C799.912 778.299 797.244 779.788 795.105 781.254L793.497 780.034C796.298 777.161 799.227 775.594 802.943 774.261Z"/>
	<path fill="#FEFEFE" d="M224.69 668.472C228.912 668.321 233.166 668.478 237.391 668.53C234.017 689.534 230.082 710.911 228.345 732.107C240.248 733.189 252.583 732.382 264.545 732.358C287.633 732.378 310.721 732.25 333.808 731.972C336.825 710.789 340.738 689.636 344.217 668.519L357.612 668.525C357.45 677.719 355.22 686.923 353.704 695.968L346.577 739.08L320.347 897.953C316.838 918.99 313.919 940.327 309.199 961.125C291.787 961.832 274.281 961.366 256.857 961.339L177.231 961.385C178.819 948.869 181.395 936.314 183.456 923.856L194.62 855.116L224.69 668.472ZM225.886 745.006C218.642 795.942 209.66 846.751 201.49 897.554C198.662 915.139 195.436 932.764 193.085 950.413L261.25 950.51C273.608 950.583 285.966 950.575 298.324 950.486C302.476 931.221 304.685 911.322 307.902 891.861C315.649 842.762 323.78 793.724 332.295 744.752C309.524 744.018 286.602 744.366 263.824 744.761L225.886 745.006Z"/>
	<path d="M263.824 744.761C286.602 744.366 309.524 744.018 332.295 744.752C323.78 793.724 315.649 842.762 307.902 891.861C304.685 911.322 302.476 931.221 298.324 950.486C285.966 950.575 273.608 950.583 261.25 950.51L193.085 950.413C195.436 932.764 198.662 915.139 201.49 897.554C209.66 846.751 218.642 795.942 225.886 745.006L263.824 744.761ZM196.45 947.198C229.178 947.67 261.899 947.252 294.625 947.522L295.905 947.209C298.143 941.955 298.277 933.899 299.167 928.178L303.839 899.859C311.471 855.468 318.73 811.013 325.615 766.5C326.574 760.211 327.865 753.967 328.776 747.677C296.209 747.483 263.443 746.94 230.889 747.726C229.62 748.153 229.171 748.108 228.535 749.364C225.964 754.447 221.668 787.881 220.44 795.872L204.346 897.35L199.182 930.043C198.305 935.734 197.755 941.595 196.45 947.198Z"/>
	<path fill="#2B2D3E" d="M679.59 656.264C701.076 660.385 718.05 670.911 733.251 686.522C740.086 693.542 745.965 700.102 754.797 704.68C757.817 706.245 761.217 708.269 764.506 709.162C768.927 710.362 780.58 709.721 783.115 713.635C783.268 713.872 783.408 714.116 783.555 714.357C780.113 717.845 776.699 721.399 772.964 724.578C770.461 726.708 767.272 728.557 765.068 730.947C764.157 730.087 763.638 729.287 762.261 729.361C758.219 729.579 753.951 732.808 749.689 733.386C748.633 734.298 748.65 734.36 748.377 735.737C728.424 739.076 704.618 740.643 684.354 741.593C677.155 741.931 669.629 742.694 662.447 742.413C662.822 742.221 663.141 741.921 663.471 741.659C663.157 741.296 663.132 741.214 662.642 740.952C661.242 740.202 658.377 740.258 656.9 740.699C655.795 741.03 655.656 741.16 655.116 742.106C656.223 742.388 657.583 742.387 658.125 743.538C658.778 744.925 659.014 747.097 659.355 748.613C661.4 757.688 662.488 762.746 669.244 769.653C661.963 769.133 647.959 768.919 641.874 765.364C640.591 767.598 641.157 770.629 641.781 773.054C642.32 775.146 642.913 777.071 644.561 778.551C647.446 789.969 660.833 885.949 659.074 891.618C656.731 894.784 650.586 893.342 649.296 895.864C649.041 895.137 648.529 894.687 647.825 894.329C646.53 893.672 644.449 893.798 643.102 894.292C642.079 894.667 641.946 894.632 641.473 895.654L642.336 896.174C635.064 898.162 626.45 899.603 618.918 900.426C618.855 900.352 618.807 900.263 618.729 900.204C616.751 898.703 605.632 901.454 602.088 901.216C601.553 899.989 601.082 898.752 600.645 897.488C597.459 888.275 595.312 878.621 592.725 869.226C584.003 837.547 576.834 805.369 568.974 773.46L559.676 735.823C557.717 728.046 554.871 719.748 554.251 711.764C553.692 704.563 555.72 696.937 558.898 690.516C568.306 671.508 581.516 672.767 599.215 666.729C598.735 666.73 598.254 666.718 597.774 666.728C595.026 666.783 592.632 666.156 589.974 665.517L645.053 664.989C655.29 664.911 665.806 664.439 676.012 665.295C673.807 665.495 671.043 665.449 669.058 666.452C672.544 666.724 676.026 667.037 679.504 667.389L679.59 656.264Z"/>
	<path fill="#FEFEFE" d="M655.116 742.106C656.223 742.388 657.583 742.387 658.125 743.538C658.778 744.925 659.014 747.097 659.355 748.613C661.4 757.688 662.488 762.746 669.244 769.653C661.963 769.133 647.959 768.919 641.874 765.364C642.828 759.101 639.411 749.794 637.475 743.833L638.344 743.175C643.82 742.474 649.763 743.416 655.116 742.106Z"/>
	<path d="M637.475 743.833C633.019 742.755 616.598 733.949 613.323 730.814C613.582 730.774 613.839 730.703 614.101 730.694C617.854 730.567 635.422 740.526 638.344 743.175L637.475 743.833Z"/>
	<path fill="#7CD5CE" d="M700.467 492.57C703.801 492.434 706.987 492.321 710.273 493.068C724.755 496.357 735.992 510.412 743.356 522.417C751.585 535.832 757.469 550.655 762.2 565.623C765.672 576.772 768.675 588.06 771.204 599.459C774.511 614.169 791.199 697.417 787.638 707.139C787.181 708.386 786.602 708.908 785.351 709.29C781.882 710.35 776.951 709.219 773.471 708.496C748.49 703.311 737.545 685.155 718.722 670.632C712.179 665.583 704.908 662.163 697.537 658.549C693.076 656.362 683.64 655.77 680.523 652.586L680.559 651.75C683.338 649.339 697.672 649.04 702.08 648.141C706.049 647.332 709.687 646.084 713.388 644.456C725.091 618.888 727.771 588.657 730.426 560.99C730.587 546.263 732.231 528.141 725.368 514.738C724.461 512.965 722.98 510.457 720.998 509.786C720.23 513.243 723.886 518.484 724.928 521.85C726.375 526.525 727.074 531.614 727.512 536.474C730.633 571.12 722.495 609.82 711.481 642.522C688.78 650.505 664.637 648.758 640.988 648.704L590.15 648.655L593.074 634.865C620.818 627.692 647.993 619.006 675.374 610.628C675.763 601.327 677.362 591.817 678.22 582.502C680.342 559.466 681.553 527.155 689.496 505.782C691.769 499.666 694.292 495.366 700.467 492.57Z"/>
	<path fill="#7CD5CE" d="M919.688 853.447L920.784 853.647C922.086 858.092 922.293 948.736 920.92 954.682C920.244 957.613 918.092 958.927 915.706 960.482C862.846 961.1 809.902 960.52 757.032 960.547L756.97 919.75L756.938 857.748C770.369 861.338 783.722 865.215 796.987 869.374C807.128 872.512 817.177 875.916 827.518 878.344C827.209 883.931 826.096 891.123 827.763 896.492C828.251 898.067 828.77 898.874 830.319 899.523C836.463 902.095 853.533 900.772 859.971 898.512C861.626 891.498 860.844 883.842 860.505 876.712C869.378 873.835 877.884 870.141 886.526 866.651L919.688 853.447Z"/>
	<path fill="#2B2D3E" d="M481.105 899.353C478.637 898.18 470.062 894.838 469.2 892.095C466.827 884.549 517.636 734.211 525.598 713.618C527.421 708.902 529.488 704.37 531.955 699.955C539.314 686.784 549.443 680.86 563.583 676.858C563.588 677.001 563.596 677.144 563.598 677.287C563.675 682.82 553.458 692.616 552.467 703.258C550.953 719.504 557.528 736.866 561.446 752.471C565.437 768.367 569.515 784.325 573.027 800.334C573.311 801.629 573.72 803.205 573.71 804.524C573.698 806.299 572.289 807.174 572.816 808.964L573.583 809.557C570.55 819.49 566.351 828.973 562.36 838.547L545.329 879.344C541.2 889.354 536.011 905.517 531.129 914.216C529.293 913.931 527.384 913.737 525.576 913.32L525.779 912.444C524.266 910.973 522.032 910.197 520.069 909.478C516.536 908.185 493.529 901.538 491.271 902.138C490.789 902.266 490.368 902.562 489.917 902.774C486.911 901.785 484.021 900.578 481.105 899.353Z"/>
	<path fill="#7CD5CE" d="M779.372 797.745C806.926 797.219 834.513 797.808 862.068 797.964C878.046 798.054 894.074 797.244 910.034 798.149C912.616 798.296 917.739 798.304 919.725 799.99C923.119 807.892 921.431 839.439 921.302 849.754C908.567 855.199 895.5 859.938 882.619 865.043C875.49 868 868.161 870.463 860.876 873.007C860.783 871.694 860.808 869.986 860.296 868.767C859.87 867.754 858.816 867.021 857.841 866.596C853.774 864.825 833.105 865.386 828.775 867.211C826.788 869.45 827.411 873.059 827.443 875.904C804.256 868.65 780.642 860.316 756.958 854.895L757.076 798.145L779.372 797.745Z"/>
	<path fill="#7CD5CE" d="M554.308 963.211C576.074 962.255 598.166 962.914 619.963 963.091L725.5 963.732C788.351 963.365 851.203 963.334 914.055 963.64C931.744 963.716 949.486 963.247 967.165 963.598C970.454 963.664 975.245 963.483 978.148 965.139C979.199 965.738 980.025 966.861 980.157 968.072C980.328 969.637 979.605 971.17 978.54 972.28C976.947 973.941 974.777 974.013 972.62 974.095C967.455 974.289 962.217 973.99 957.042 974.005L920.557 974.114L809.769 974L476.625 974.302L209.965 974.316L134.951 974.333C110.64 974.448 86.2405 974.831 61.9394 974.083C59.5598 974.01 55.6928 974.069 53.6487 972.807C51.8825 971.716 51.3323 970.371 50.724 968.496C50.8851 967.591 50.8315 967.16 51.4371 966.429C53.2483 964.244 56.5434 963.792 59.1905 963.611C62.8734 963.358 66.6746 963.798 70.3693 963.875C77.2469 964.018 84.1501 963.9 91.0298 963.888L171.965 963.868L413.408 963.769C449.839 964.057 486.271 963.994 522.701 963.579C533.294 963.411 543.69 963.805 554.308 963.211Z"/>
	<path fill="#FEFEFE" d="M811.025 529.021C823.396 532.118 832.844 537.189 839.628 548.353C856.785 576.586 850.739 629.668 842.905 660.742C835.901 688.525 819.392 743.795 793.682 759.217C788.78 762.158 782.855 763.824 777.31 765.033C758.864 769.056 696.123 775.279 678.092 770.553C672.946 769.205 669.079 766.804 666.415 762.137C663.969 757.855 659.599 748.307 661.233 743.415C661.449 742.771 661.893 742.718 662.447 742.413C669.629 742.694 677.155 741.931 684.354 741.593C704.618 740.643 728.424 739.076 748.377 735.737C763.709 734.176 781.11 735.374 791.759 722.317C811.089 698.617 823.568 646.064 826.808 615.927C828.405 601.073 828.699 585.784 827.121 570.916C825.407 554.767 820.883 541.945 811.025 529.021Z"/>
	<path fill="#FEFEFE" d="M790.087 709.392C792.783 692.031 781.765 635.371 777.433 615.739C774.874 604.14 770.923 592.328 770.54 580.402C770.063 565.548 776.021 542.669 788.827 533.645C792.991 530.711 799 528.573 804.129 529.569C808.858 530.488 812.146 534.023 814.608 537.935C832.58 566.491 825.441 619.273 818.044 650.822C813.29 671.101 800.277 715.937 782.429 727.195C778.177 729.877 770.646 732.273 765.515 731.083C765.363 731.048 765.217 730.992 765.068 730.947C767.272 728.557 770.461 726.708 772.964 724.578C776.699 721.399 780.113 717.845 783.555 714.357C785.779 712.787 788.138 711.299 790.087 709.392Z"/>
	<path d="M332.501 673.289C332.733 673.393 333.593 674.296 333.792 674.487L333.66 675.129L332.318 674.94L331.484 675.725L330.751 675.547L330.814 674.605L332.501 673.289Z"/>
	<path fill="#FEFEFE" d="M497.362 637.564C502.756 637.645 508.691 637.255 514.011 637.933C514.476 638.863 514.259 638.893 515.354 639.26C523.731 642.074 542.106 636.834 546.972 646.635C547.64 647.981 547.804 649.522 547.975 650.993C551.555 651.988 555.864 651.22 559.598 651.566C598.723 651.596 637.879 651.076 676.998 651.456C677.304 655.86 678.169 661.235 676.012 665.295C665.806 664.439 655.29 664.911 645.053 664.989L589.974 665.517L316.181 665.448L319.516 652.498L443.307 652.104C443.653 651.128 443.655 650.521 443.554 649.495C443.465 646.806 443.683 644.035 443.774 641.342C447.653 642.097 454.548 639.191 459.004 639.045C466.219 638.81 493.595 641.051 498.322 638.356L497.362 637.564Z"/>
	<path fill="#2B2D3E" d="M497.362 637.564C502.756 637.645 508.691 637.255 514.011 637.933C514.476 638.863 514.259 638.893 515.354 639.26C523.731 642.074 542.106 636.834 546.972 646.635C547.64 647.981 547.804 649.522 547.975 650.993C551.555 651.988 555.864 651.22 559.598 651.566C547.594 653.032 530.96 651.967 518.551 651.963L443.307 652.104C443.653 651.128 443.655 650.521 443.554 649.495C443.465 646.806 443.683 644.035 443.774 641.342C447.653 642.097 454.548 639.191 459.004 639.045C466.219 638.81 493.595 641.051 498.322 638.356L497.362 637.564Z"/>
	<path fill="#7CD5CE" d="M643.12 518.882L644.77 519.478C644.037 548.319 642.363 588.277 648.042 616.077C639.135 618.98 630.331 621.824 621.268 624.235C611.505 626.832 601.405 628.96 591.923 632.432C582.691 628.576 569.816 621.852 560.126 620.595C548.185 619.046 548.967 627.656 532.991 619.903C551.078 612.404 569.838 606.276 587.811 598.531C594.858 595.494 601.653 591.736 607.244 586.413C623.21 571.212 634.944 539.478 643.12 518.882Z"/>
	<path fill="#FEFEFE" d="M345.966 562.878L390.899 562.904C386.353 583.197 380.797 603.149 375.551 623.259C373.516 631.062 372.268 640.481 369.027 647.776C368.46 649.054 368.379 649.12 367.125 649.566L321.093 649.518C323.528 640.043 326.568 630.638 329.242 621.219C334.7 601.739 340.275 582.292 345.966 562.878Z"/>
	<path fill="#2B2D3E" d="M718.694 797.368L718.824 798.276C718.98 799.445 718.971 798.974 718.893 799.956L719.492 800.414C720.792 798.959 721.384 798.936 723.294 798.852C727.208 798.679 731.781 798.816 735.516 800.038C736.379 799.309 736.215 799.24 737.44 799.17C738.613 800.353 738.831 801.339 738.924 803.003C739.273 809.238 738.982 815.645 738.976 821.894L738.939 858.609L739.144 953.684C739.135 955.672 739.381 958.938 737.91 960.42L736.925 960.199C735.903 958.302 735.861 955.518 735.752 953.373C734.233 950.364 736.315 946.473 734.596 943.349C734.137 949.421 733.993 955.439 733.953 961.525C729.478 961.523 725.036 961.507 720.569 961.193C720.524 952.518 721.472 943.026 720.394 934.457C720.225 933.115 720.125 932.28 719.043 931.402C718.294 928.616 718.533 925.487 718.339 922.603C718 917.563 717.431 912.443 717.444 907.392C717.467 899.163 718.298 890.878 718.412 882.617C718.703 861.611 718.861 840.473 718.223 819.474C717.936 823.16 717.97 826.895 717.904 830.592C717.391 823.379 716.627 815.68 717.552 808.492L717.804 812.663C718.517 807.533 718.558 802.53 718.694 797.368Z"/>
	<path fill="#7CD5CE" d="M735.516 800.038C736.379 799.309 736.215 799.24 737.44 799.17C738.613 800.353 738.831 801.339 738.924 803.003C739.273 809.238 738.982 815.645 738.976 821.894L738.939 858.609L739.144 953.684C739.135 955.672 739.381 958.938 737.91 960.42L736.925 960.199C735.903 958.302 735.861 955.518 735.752 953.373C734.233 950.364 736.315 946.473 734.596 943.349C734.421 941.233 734.861 940.182 736.003 938.46C736.688 932.687 736.141 926.436 736.076 920.61C735.998 911.128 735.968 901.645 735.986 892.163L735.995 830.445C736.018 822.209 737.075 807.752 735.516 800.038Z"/>
	<path fill="#131419" d="M736.003 938.46C735.89 943.43 735.806 948.401 735.752 953.373C734.233 950.364 736.315 946.473 734.596 943.349C734.421 941.233 734.861 940.182 736.003 938.46Z"/>
	<path fill="#7CD5CE" d="M475.005 421.099C477.771 424.817 488.404 471.774 490.671 480.576L516.801 580.919C512.881 582.407 509.009 584.057 505.122 585.634L504.286 585.822C500.594 580.199 492.214 543.086 489.827 533.577C481.279 498.838 472.546 464.144 463.628 429.498C467.276 426.465 470.927 423.537 475.005 421.099Z"/>
	<path fill="#2B2D3E" d="M748.251 798.715L754.473 798.502L754.469 961.512L746.875 961.488L741.548 961.467C741.401 907.369 739.608 853.143 740.986 799.053C743.408 799.001 745.832 798.838 748.251 798.715Z"/>
	<path fill="#7CD5CE" d="M688.978 474.848L689.486 474.996C690.534 476.418 690.541 478.671 690.803 480.409C695.951 483.18 704.293 484.057 708.231 488.4C708.08 489.041 708.28 488.851 707.604 488.939C703.025 489.533 699 489.631 695.218 492.603C690.253 496.504 687.374 503.311 685.534 509.209C681.539 522.019 680.388 535.735 678.922 549.017C676.747 568.728 675.192 588.509 672.957 608.206L664.317 610.991L663.318 611.189L662.644 610.513C661.734 606.268 661.198 591.279 661.54 586.703C661.662 585.073 661.54 583.679 662.799 582.579C664.005 582.542 665.191 582.657 666.23 581.959C666.338 581.578 666.492 581.132 666.462 580.731C666.211 577.313 663.51 578.604 661.633 576.98C660.795 568.763 660.826 560.333 660.532 552.074C659.995 536.987 659.182 521.815 661.05 506.786C663.732 509.687 667.071 514.124 670.714 515.805C671.988 516.392 672.542 516.243 673.787 515.73C676.153 512.339 675.432 499.745 675.898 495.014C676.816 485.684 682.024 480.485 688.978 474.848Z"/>
	<path fill="#7CD5CE" d="M643.238 914.185C644.478 914.102 645.72 914.042 646.962 914.005C649.366 913.946 651.982 914.341 653.723 916.17C659.396 922.13 660.275 939.67 660.388 947.518C649.448 948.034 638.512 947.829 627.564 947.996L555.375 949.089C554.708 949.055 555.108 949.128 554.228 948.669C554.281 948.541 554.318 948.405 554.387 948.286C557.327 943.168 584.925 933.551 591.411 931.247C592.032 931.49 592.647 931.754 593.269 931.992C594.95 932.635 596.002 933.092 597.308 934.389C598.927 935.996 600.252 937.385 602.575 937.762C603.873 937.364 603.928 937.386 604.687 936.271C604.444 934.467 604.088 932.821 605.006 931.167C607.327 926.984 609.717 922.927 612.283 918.889C617.187 922.12 622.352 925.497 628.159 926.81C631.43 927.549 635.097 927.588 637.946 925.577C641.808 922.852 642.428 918.495 643.238 914.185Z"/>
	<path fill="#7CD5CE" d="M484.38 917.289C492.885 918.033 497.828 928.069 506.871 928.427C511.016 928.591 513.909 926.355 516.776 923.653C518.514 932.217 519.275 941.248 519.517 949.974L452.112 950.484L415.217 950.538C422.779 942.536 432.229 939.867 442.672 937.423L446.082 940.713C450.35 940.194 463.629 938.334 466.304 934.948C466.723 934.418 467.102 933.743 467.516 933.183C468.704 933.407 470.333 933.836 471.518 933.553C476.414 932.387 481.678 921.348 484.38 917.289Z"/>
	<path fill="#FEFEFE" d="M200.667 652.747C239.225 651.898 277.895 652.377 316.461 652.622C315.634 656.686 314.64 660.688 313.6 664.703C309.527 666.722 212.54 665.492 199.445 665.364C199.954 661.169 200.362 656.962 200.667 652.747Z"/>
	<path fill="#7CD5CE" d="M659.88 491.897L660.215 492.236C661.587 497.455 658.009 507.645 657.408 513.375C656.918 518.054 657.031 522.827 656.703 527.531C655.625 526.835 654.566 525.996 653.256 525.864C652.507 525.789 651.988 526.147 651.452 526.645C650.431 527.595 649.923 529.08 649.799 530.415C650.323 531.478 650.58 531.717 651.688 532.205C653.534 533.017 655.377 532.225 657.188 531.677C658.198 541.807 657.7 552.54 657.98 562.77C658.43 579.21 659.386 595.668 659.639 612.103C658.237 612.736 656.777 613.26 655.343 613.815L650.721 615.216C645.875 591.211 646.975 562.783 647.153 538.231C647.191 532.859 646.443 525.91 647.691 520.784C648.093 519.135 649.768 518.457 651.071 517.545C649.473 515.705 647.719 513.989 646.019 512.243C649.95 505.16 654.422 497.898 659.88 491.897Z"/>
	<path fill="#7CD5CE" d="M230.325 614.023C243.316 613.966 256.306 614.086 269.294 614.384L263.118 644.804L262.292 649.494L237.755 649.554C235.134 637.74 233.073 625.814 230.325 614.023Z"/>
	<path fill="#FEFEFE" d="M493.427 611.305C509.822 613.123 524.054 620.835 539.785 624.812L541.873 625.128L542.062 625.587C541.32 625.957 540.582 626.366 539.813 626.676C539.628 626.765 539.442 626.852 539.257 626.944C536.734 628.193 535.008 629.593 533.24 631.78C532.224 633.037 531.293 634.824 530.024 635.811C526.611 638.469 518.315 637.802 514.011 637.933C508.691 637.255 502.756 637.645 497.362 637.564C496.274 637.557 495.187 637.62 494.15 637.24C493.417 636.972 493.661 636.988 493.256 636.105C496.276 629.272 506.254 632.206 510.952 627.926C511.556 627.375 511.404 627.146 511.453 626.407C508.913 622.592 501.587 621.148 497.696 618.608C497.545 618.509 497.397 618.406 497.248 618.305C487.629 624.883 478.301 635.091 466.648 637.634C472.958 627.38 483.239 617.561 493.427 611.305Z"/>
	<path fill="#F0F0F4" d="M539.785 624.812L541.873 625.128L542.062 625.587C541.32 625.957 540.582 626.366 539.813 626.676L539.785 624.812Z"/>
	<path fill="#FEFEFE" d="M556.54 623.551C565.952 622.514 581.16 630.925 589.668 634.833C589.456 638.235 588.868 641.515 588.251 644.863C582.25 643.119 576.304 641.247 570.743 638.346C565.57 635.647 560.78 632.162 555.299 630.097C554.098 630.483 552.774 630.843 551.639 631.391C550.492 631.943 550.07 632.556 549.681 633.712L550.557 634.533C552.564 635.102 554.412 634.594 556.419 634.234L565.279 639.152C572.839 643.223 580.638 645.176 588.425 648.491C576.317 649.104 563.854 649.558 551.765 648.516C551.422 647.28 551.118 645.879 550.502 644.749C548.135 640.407 541.343 640.41 537.246 638.849C535.698 638.259 535.17 637.591 534.518 636.111C534.614 634.236 535.869 632.681 536.853 631.14C543.296 628.435 549.804 625.426 556.54 623.551Z"/>
	<path fill="#FEFEFE" d="M605.618 951.765C623.841 951.387 642.137 951.051 660.358 951.608L659.335 959.494L605.75 959.537L550.904 959.579L550.784 952.139C569.047 951.573 587.346 952.071 605.618 951.765Z"/>
	<path fill="#2B2D3E" d="M852.117 868.288L858.468 868.02C858.491 874.956 859.691 891.196 857.147 897.347C852.751 900.242 842.31 897.694 837.222 897.039L829.554 896.947C829.367 887.467 829.89 878.015 829.507 868.528C837.044 868.616 844.583 868.536 852.117 868.288Z"/>
	<path fill="#FEFEFE" d="M393.844 562.873C395.267 562.882 396.842 562.792 398.248 562.997C399.519 563.182 400.115 563.435 400.901 564.43C400.651 572.198 384.172 644.928 381.665 649.275L380.125 649.501L371.291 649.455C373.644 641.686 375.405 633.717 377.475 625.866L393.844 562.873Z"/>
	<path fill="#FEFEFE" d="M413.767 953.498C448.912 953.292 484.057 953.281 519.202 953.466C519.015 956 518.878 958.361 517.38 960.49C481.989 960.734 446.596 960.721 411.205 960.451C411.985 958.108 412.892 955.807 413.767 953.498Z"/>
	<path fill="#FEFEFE" d="M386.778 641.011L424.534 640.962C430.726 640.957 437.694 640.314 443.774 641.342C443.683 644.035 443.465 646.806 443.554 649.495C424.14 649.127 404.651 649.424 385.231 649.387C385.514 646.572 386.208 643.781 386.778 641.011Z"/>
	<path fill="#FEFEFE" d="M481.105 899.353C484.021 900.578 486.911 901.785 489.917 902.774C498.429 906.813 507.859 908.727 516.958 910.99C516.243 913.732 515.514 916.991 514.127 919.473C512.895 921.679 511.051 923.615 508.52 924.202C501.693 925.785 490.968 916.135 485.209 912.622C485.012 910.918 484.725 909.223 483.878 907.705C482.296 904.867 479.722 902.941 476.588 902.058C477.075 902.108 478.045 902.285 478.562 902.185C479.997 901.904 480.417 900.494 481.105 899.353Z"/>
	<path fill="#FEFEFE" d="M642.336 896.174C644.137 896.028 645.187 895.679 646.811 896.525C648.698 900.355 647.966 905.946 648.6 910.282C645.478 910.744 642.646 911.583 639.656 912.573C638.845 917.242 637.302 920.946 635.023 925.082C634.82 920.796 634.549 916.501 634.503 912.21C629.546 907.396 623.913 904.122 617.705 901.155C618.182 900.4 617.828 900.712 618.918 900.426C626.45 899.603 635.064 898.162 642.336 896.174Z"/>
	<path fill="#7CD5CE" d="M681.154 472.916C681.84 472.987 682.425 473.209 683.078 473.422C685.073 477.258 676.453 483.561 674.89 487.262C671.712 494.787 672.629 506.127 672.39 514.191L668.431 509.852C666.5 507.709 664.376 505.688 662.357 503.624C663.217 498.936 663.457 494.227 663.57 489.471C668.846 483.434 674.505 477.457 681.154 472.916Z"/>
	<path fill="#FEFEFE" d="M609.673 903.674C611.947 903.37 614.224 903.087 616.502 902.826C618.662 905.747 627.867 909.857 631.504 912.787L631.792 913.015L631.416 923.786C625.808 922.405 621.421 920.805 616.584 917.631C616.378 913.815 616.655 908.098 613.443 905.372C612.453 904.532 610.935 903.935 609.673 903.674Z"/>
	<path fill="#FEFEFE" d="M485.475 612.664L485.647 612.809L485.551 613.53C482.748 615.794 479.945 618.111 477.398 620.663C471.387 626.687 465.422 635.144 457.218 638.064L456.822 637.562C456.432 635.643 458.063 633.463 459.068 631.925C462.681 626.402 469.296 617.739 475.566 615.143C478.649 613.867 482.219 613.352 485.475 612.664Z"/>
	<path fill="#FEFEFE" d="M495.762 622.386C500.062 622.998 504.092 625.04 508.035 626.777C499.549 628.675 494.083 630.635 487.569 636.65C485.67 638.397 479.323 637.532 476.671 637.464C483.21 632.671 489.122 627.084 495.762 622.386Z"/>
	<path fill="#7CD5CE" d="M474.035 905.336C476.372 905.875 478.47 906.243 480.137 908.087C481.817 909.944 482.978 912.537 482.655 915.069C482.427 916.861 481.359 919.558 479.905 920.656C477.91 919.894 475.761 919.189 473.883 918.174C472.343 917.342 470.913 915.948 470.594 914.158C470.054 911.127 472.533 907.796 474.035 905.336Z"/>
	<path fill="#7CD5CE" d="M606.241 907.421C607.312 907.387 608.43 907.363 609.498 907.489C610.487 907.605 611.458 908.063 612.035 908.889C613.418 910.872 612.655 913.703 612.355 915.945C610.272 915.368 607.398 914.688 606.161 912.738C605.047 910.983 605.674 909.214 606.241 907.421Z"/>
	<path fill="#FEFEFE" d="M602.257 908.294L602.701 908.697C603.362 910.218 602.812 911.433 602.706 912.994C602.452 916.741 605.63 916.481 607.611 918.698L606.946 919.713C605.699 919.677 604.072 919.756 602.93 919.199C601.336 918.421 600.183 917.267 599.738 915.508C599.073 912.879 600.789 910.281 602.257 908.294Z"/>
	<path fill="#7CD5CE" d="M461.566 931.628C462.242 932.075 461.951 931.75 462.251 932.743C462.139 932.89 462.044 933.05 461.916 933.182C459.072 936.107 451.406 936.552 447.583 936.974L447.058 936.834L447.08 936.394C451.183 933.872 456.909 932.843 461.566 931.628Z"/>
	<path d="M718.421 941.969C718.896 946.861 719.6 953.366 717.998 958.099L717.016 958.266C715.613 954.201 717.926 946.429 718.421 941.969Z"/>
	<path fill="#7CD5CE" d="M466.429 925.314C468.058 925.39 470.363 925.679 471.541 926.946C472.455 927.931 472.309 928.582 472.24 929.806C470.614 929.985 469.648 930.094 468.113 929.344C466.905 928.08 466.75 926.959 466.429 925.314Z"/>
	<path fill="#7CD5CE" d="M471.556 921.718C472.948 921.486 474.223 921.133 475.595 921.622C476.172 923.08 475.631 923.884 475.199 925.361C474.322 925.297 473.45 925.052 472.736 924.492C471.669 923.654 471.665 922.936 471.556 921.718Z"/>
	<path fill="#FEFEFE" d="M595.172 924.322C596.356 924.505 597.403 924.716 598.44 925.353C600.004 926.312 600.398 927.851 600.809 929.501C600.031 929.237 599.253 928.916 598.51 928.567C596.493 927.618 595.904 926.345 595.172 924.322Z"/>
	<path fill="#FEFEFE" fill-opacity="0.043137256" d="M599.297 920.862C600.631 921.327 602.126 921.594 602.916 922.855C602.092 923.349 601.959 923.306 601.045 923.068C600.08 922.816 599.214 922.146 598.397 921.592L599.297 920.862Z"/>
	<path fill="#7CD5CE" d="M643.12 518.882L643.738 516.917L644.268 516.965C644.458 517.805 644.645 518.625 644.77 519.478L643.12 518.882Z"/>
	<path fill="#2B2D3E" d="M266.261 479.554C259.426 478.768 252.376 479.318 245.495 478.917C232.303 478.148 218.723 475.332 206.131 471.363C150.622 453.793 104.324 414.968 77.3498 363.371C51.1372 312.186 46.2484 252.707 63.7513 197.929C80.724 143.541 118.765 98.2124 169.383 72.0604C218.511 46.8679 275.612 42.1372 328.216 58.9013C380.93 75.8163 426.824 115.846 452.11 164.953C455.398 171.162 458.842 177.465 461.24 184.082C466.654 194.993 469.671 207.414 472.042 219.298C480.225 260.322 478.212 301.612 464.866 341.333C457.405 363.538 438.673 398.973 421.302 414.192C419.74 414.097 418.687 414.57 417.495 415.554C416.139 416.674 414.923 418.1 413.8 419.455C406.791 420.927 374.529 420.971 372.174 422.426C351.01 423.433 329.866 423.611 308.69 424.114C296.11 424.412 283.158 425.485 270.605 424.842C268.114 423.129 265.636 423.77 262.747 424.101C259.745 425.957 256.719 428.551 256.125 432.297C255.975 433.246 256.032 433.739 256.348 434.619C257.407 434.849 257.472 434.56 258.382 434.054C261.634 449.137 265.451 464.082 268.666 479.177L266.261 479.554Z"/>
	<path d="M461.24 184.082C457.113 180.492 453.419 173.627 451.77 168.414C451.288 166.889 451.381 166.339 452.11 164.953C455.398 171.162 458.842 177.465 461.24 184.082Z"/>
	<path fill="#7CD5CE" d="M274.506 132.985L275.084 132.205L275.075 131.942C287.828 130.651 300.755 130.981 313.557 130.99L366.327 131.019C375.498 131.016 389.136 129.333 397.602 131.128C398.319 153.426 397.429 175.953 397.44 198.281L397.458 323.847C397.45 331.516 398.484 374.02 396.646 378.976L396.218 378.883L395.937 376.479L395.477 378.513C395.241 378.686 395.043 378.93 394.769 379.033C392.75 379.792 350.197 378.583 344.651 378.592C298.194 379.021 251.736 379.144 205.278 378.961C182.35 378.945 159.341 380.121 136.453 378.469C136.121 360.33 136.439 342.207 136.452 324.068L136.315 220.935L135.974 167.249C135.877 156.185 134.95 144.989 136.593 134.007C143.291 133.922 150.054 134.159 156.73 133.58C151.731 133.048 141.568 134.738 137.481 132.653C139.803 131.899 142.317 131.718 144.747 131.62C155.071 131.202 249.452 130.897 252.54 132.018L252.907 132.946C260.098 133.182 267.311 133.035 274.506 132.985Z"/>
	<path d="M274.506 132.985L275.084 132.205L275.075 131.942C287.828 130.651 300.755 130.981 313.557 130.99L366.327 131.019C375.498 131.016 389.136 129.333 397.602 131.128C398.319 153.426 397.429 175.953 397.44 198.281L397.458 323.847C397.45 331.516 398.484 374.02 396.646 378.976L396.218 378.883L395.937 376.479C396.389 355.891 395.598 335.111 395.586 314.497L395.9 204.697C395.941 180.656 395.64 156.639 396.016 132.597C380.787 132.208 365.503 132.541 350.269 132.626L274.506 132.985Z"/>
	<path d="M156.73 133.58C151.731 133.048 141.568 134.738 137.481 132.653C139.803 131.899 142.317 131.718 144.747 131.62C155.071 131.202 249.452 130.897 252.54 132.018L252.907 132.946L191.148 133.365C179.783 133.482 168.069 134.149 156.73 133.58Z"/>
	<path fill="#2B2D3E" d="M139.661 163.041C139.725 161.397 139.534 160.145 140.384 158.716C145.261 157.535 153.381 158.349 158.558 158.311L201.946 158.055C241.191 157.948 280.437 158.094 319.681 158.496C343.305 158.529 367.18 157.639 390.767 158.551C391.896 190.42 390.998 222.626 391.002 254.531C391.007 289.155 391.839 323.965 390.956 358.562C391.053 361.948 392.249 372.4 390.263 374.573L388.502 374.895C383.101 373.862 376.728 374.931 371.201 374.898C356.053 374.67 340.903 374.57 325.752 374.599L140.023 374.482L139.965 231.336C139.934 210.997 139.169 190.561 139.576 170.239C139.479 167.853 139.617 165.43 139.661 163.041Z"/>
	<defs>
		<linearGradient id="gradient_1" gradientUnits="userSpaceOnUse" x1="272.57993" y1="150.61847" x2="258.75449" y2="341.00558">
			<stop offset="0" stop-color="black"/>
			<stop offset="1" stop-color="#1F2234"/>
		</linearGradient>
	</defs>
	<path fill="url(#gradient_1)" d="M139.661 163.041C139.725 161.397 139.534 160.145 140.384 158.716C145.261 157.535 153.381 158.349 158.558 158.311L201.946 158.055C241.191 157.948 280.437 158.094 319.681 158.496C343.305 158.529 367.18 157.639 390.767 158.551C391.896 190.42 390.998 222.626 391.002 254.531C391.007 289.155 391.839 323.965 390.956 358.562C390.156 356.328 389.993 353.699 389.642 351.349C389.509 349.514 389.339 347.682 389.133 345.853C389.492 334.71 388.504 323.493 388.634 312.341L389.006 160.6C361.493 160.162 334.011 160.505 306.5 160.412C251.544 159.979 196.586 159.846 141.628 160.014C141.567 165.126 141.812 170.462 141.044 175.52C140.668 172.047 141.573 165.889 139.661 163.041Z"/>
	<path fill="#131419" d="M389.642 351.349C389.993 353.699 390.156 356.328 390.956 358.562C391.053 361.948 392.249 372.4 390.263 374.573L388.502 374.895C388.903 372.141 389.037 369.504 389.077 366.728C389.76 361.788 389.779 356.331 389.642 351.349Z"/>
	<path d="M139.661 163.041C141.573 165.889 140.668 172.047 141.044 175.52C141.088 177.098 140.895 178.374 140.536 179.909C139.554 177.312 139.853 173.106 139.576 170.239C139.479 167.853 139.617 165.43 139.661 163.041Z"/>
	<path d="M371.38 240.379C372.598 241.617 372.552 243.506 372.645 245.16C373.295 256.652 372.632 268.572 372.645 280.108C372.677 307.106 372.514 334.168 373.186 361.157C352.279 359.989 330.889 361.008 309.923 361.011L209.216 360.97C191.195 361.105 173.172 361.038 155.152 360.768L155.583 332.375C155.678 331.328 155.986 330.518 156.37 329.544C161.973 323.965 189.139 316.804 197.958 314.599C198.339 310.265 198.445 305.938 198.555 301.591C207.787 296.197 215.819 288.609 225.797 284.626C234.03 285.746 241.851 290.205 249.4 293.513C256.3 296.525 263.281 299.351 270.333 301.988C275.71 299.609 280.75 296.661 286.238 294.468C286.338 289.501 286.465 284.533 286.618 279.567C291.646 271.696 299.852 263.181 307.295 257.543C318.13 261.075 328.609 266.2 338.502 271.801C342.792 267.245 347.627 263.219 352.209 258.961C358.721 252.908 365.019 246.592 371.38 240.379Z"/>
	<path fill="#7CD5CE" d="M306.89 259.885C315.031 262.982 323.074 266.329 331.009 269.922C329.897 299.542 330.837 329.46 331 359.105L314.133 358.978L288.513 358.983L288.592 280.491C293.818 272.869 300.312 266.323 306.89 259.885Z"/>
	<path fill="#7CD5CE" d="M369.471 244.957C370.182 245.734 370.25 247.262 370.322 248.298C371.19 260.958 370.649 274.037 370.677 286.745L370.743 359.427L333.598 359.096C333.311 329.802 333.348 300.507 333.708 271.214L339.276 274.433C349.29 264.559 359.069 254.428 369.471 244.957Z"/>
	<path fill="#7CD5CE" d="M226.602 286.088C231.795 287.905 236.979 290.702 241.994 293.012L242.097 358.979L216.74 359.065L200.449 359.086C200.217 340.444 200.476 321.767 200.496 303.122C208.945 297.034 217.754 291.567 226.602 286.088Z"/>
	<path fill="#7CD5CE" d="M244.622 294.161C253.216 297.769 261.771 301.456 270.728 304.079C275.893 301.967 280.877 299.117 285.989 296.825L285.958 351.049L285.972 358.868L244.709 358.871L244.622 294.161Z"/>
	<path fill="#7CD5CE" d="M194.711 317.577C195.5 317.455 196.242 317.446 197.038 317.433C198.719 319.363 197.701 353.917 197.671 358.984L161.375 359.08C160.421 359.083 159.877 359.051 159.022 358.613C156.426 353.427 158.178 336.469 158.412 329.85C170.258 325.183 182.331 320.611 194.711 317.577Z"/>
	<path fill="#FEFEFE" d="M371.977 203.922C373.102 205.122 372.613 208.762 372.581 210.353C362.172 226.438 350.945 242.044 339.987 257.76C329.06 251.853 318.586 244.332 308.125 237.597C294.228 254.051 282.002 272.046 268.718 289.033C251.613 280.272 234.991 270.63 218.288 261.135C206.584 270.969 194.503 280.409 182.64 290.055C174.054 297.037 165.747 304.403 156.745 310.854C155.809 309.647 155.665 309.594 155.658 308.086C159.848 301.443 207.961 265.283 217.974 257.062C235.181 265.409 251.557 275.661 268.294 284.915C272.634 277.164 278.36 270.4 283.743 263.372C291.396 253.411 298.925 243.356 306.329 233.21C317.685 239.209 328.477 245.751 338.896 253.267C343.137 248.06 346.655 242.03 350.343 236.415C357.411 225.49 364.623 214.658 371.977 203.922Z"/>
	<path fill="#FEFEFE" d="M177.763 226.228C201.974 225.451 226.313 226.307 250.539 226.372C258.288 226.393 276.806 224.901 283.47 226.708C284.528 226.995 284.601 227.197 285.091 228.095L284.707 229.255C281.689 231.653 272.924 230.588 268.911 230.59C250.773 231.215 232.514 230.701 214.364 230.592C198.161 230.494 181.953 230.825 165.754 230.663C163.835 230.644 162.063 230.667 160.646 229.222C160.536 227.943 160.303 227.909 161.078 226.797C166.375 225.851 172.346 226.354 177.763 226.228Z"/>
	<path fill="#FEFEFE" d="M168.303 176.707C175.443 176.373 182.61 176.757 189.756 176.821L223.51 176.804C233.467 176.822 243.423 176.765 253.379 176.634C261.409 176.483 269.571 176.04 277.592 176.342C280.026 176.434 282.935 176.448 285.043 177.755C285.174 178.9 285.133 178.957 284.556 179.961C282.765 180.874 280.229 180.72 278.236 180.837C254.208 181.616 230.142 181.062 206.109 180.989C194.169 180.953 181.976 181.97 170.082 181.306C167.05 181.137 163.607 180.899 160.838 179.593L160.604 178.779C160.725 178.627 160.831 178.461 160.967 178.322C162.526 176.722 166.184 176.875 168.303 176.707Z"/>
	<path fill="#FEFEFE" d="M262.869 209.23C268.284 209.011 281.18 207.665 285.431 210.846L285.478 211.697C283.729 213.441 281.427 213.685 279.001 213.887C271.589 214.505 259.409 213.609 251.297 213.601L184.75 213.597C179.561 213.525 165.324 215.278 161.332 212.897L161.143 211.735L161.993 210.6C163.373 209.92 164.633 209.614 166.176 209.531C174.21 209.098 182.512 209.633 190.574 209.628C214.62 209.611 238.848 210.071 262.869 209.23Z"/>
	<path fill="#FEFEFE" d="M240.964 192.238C254.263 192.179 267.815 191.657 281.082 192.547C282.758 192.659 283.622 192.653 284.769 193.953L284.676 195.313C283.428 196.305 282.337 196.391 280.755 196.499C271.361 197.136 261.749 196.544 252.329 196.485L205.25 196.494C198.637 196.474 165.606 197.711 161.925 196.093C161.563 195.934 161.339 195.56 161.045 195.294L161.341 194.303C162.302 193.581 163.049 193.148 164.266 193.007C173.384 191.949 183.06 192.654 192.249 192.642C208.488 192.598 224.726 192.463 240.964 192.238Z"/>
	<path d="M374.342 137.722C378.906 137.466 388.969 136.432 392.497 139.325L392.349 140.096C388.176 141.891 305.953 140.945 293.625 141.275C288.919 141.285 277.049 142.096 273.462 139.666C274.517 138.685 275.62 138.477 277.035 138.369C285.475 137.723 294.237 138.209 302.723 138.196C326.503 138.16 350.614 138.967 374.342 137.722Z"/>
	<path d="M286.848 146.235C308.552 145.622 330.391 146.23 352.111 146.355C363.544 146.421 379.198 145.681 390.011 146.807C391.271 146.938 391.787 147.068 392.616 148.024C390.335 149.968 381.73 149.059 378.63 149.033C353.763 149.31 328.894 149.323 304.027 149.071C294.595 148.974 283.542 149.837 274.334 148.493C273.267 148.337 273.158 148.402 272.552 147.535C275.61 145.542 283.135 146.28 286.848 146.235Z"/>
	<path fill="#131419" d="M174.271 140.757C176.032 140.624 177.726 141.458 178.696 142.934C179.666 144.41 179.759 146.296 178.939 147.86C178.119 149.424 176.515 150.42 174.749 150.462C172.115 150.524 169.91 148.475 169.78 145.843C169.65 143.21 171.642 140.954 174.271 140.757Z"/>
	<path fill="#131419" d="M160.378 141.224C161.995 140.713 163.761 141.114 164.999 142.273C166.237 143.432 166.754 145.169 166.351 146.816C165.948 148.463 164.688 149.765 163.054 150.221C160.587 150.91 158.022 149.494 157.292 147.039C156.561 144.583 157.935 141.995 160.378 141.224Z"/>
	<path fill="#131419" d="M147.246 141.267C149.635 140.314 152.344 141.472 153.306 143.857C154.267 146.241 153.119 148.955 150.738 149.925C148.345 150.901 145.614 149.745 144.648 147.348C143.681 144.951 144.846 142.225 147.246 141.267Z"/>
	<path fill="#2B2D3E" d="M784.107 154.402C850.216 150.833 906.715 201.505 910.335 267.612C913.955 333.718 863.327 390.256 797.223 393.927C731.047 397.603 674.434 346.907 670.81 280.728C667.186 214.549 717.925 157.975 784.107 154.402Z"/>
	<path fill="#FEFEFE" d="M801.069 198.191C801.669 195.603 802.344 189.995 804.699 188.521C806.994 187.084 810.827 188.729 813.22 189.384C813.416 193.064 813.699 196.368 814.741 199.911C818.186 202.343 822.012 204.408 825.637 206.574C828.93 204.734 831.696 202.436 834.535 199.977L838.205 203.581C839.833 203.713 840.453 204.049 841.762 204.928C842.482 206.495 842.585 207.307 841.941 208.94C840.86 211.684 838.66 214.175 836.892 216.508C838.666 220.259 840.342 223.897 842.698 227.334C845.476 227.733 848.899 227.828 851.341 229.219C851.522 229.611 851.775 229.998 851.798 230.432C851.531 233.119 852.045 239.437 850.088 241.165L851.013 241.836C848.562 245.93 837.972 242.586 841.384 254.641C841.916 256.522 842.917 258.128 844.666 259.091C846.077 259.867 848.253 259.856 849.699 259.183C853.454 257.436 853.866 249.753 859.017 246.505C860.212 247.969 861.36 249.399 862.402 250.98C863.562 252.739 864.994 254.155 867.139 254.565C869.909 255.094 872.421 253.913 874.754 252.594C875.436 252.209 875.785 252.12 876.561 252.156L877.492 252.127C878.876 251.456 879.065 251.545 880.603 251.785C881.987 252.694 882.619 253.605 882.925 255.213C883.312 257.239 883.067 259.687 881.869 261.43C881.561 261.879 881.235 262.153 880.85 262.513C882.046 264.577 883.768 265.965 885.524 267.533C887.676 267.09 889.892 266.732 891.978 266.038C893.345 266.534 893.576 266.635 894.492 267.751C894.794 269.22 894.725 269.991 894.401 271.412C891.756 272.248 889.079 273.276 887.724 275.92C887.011 277.312 886.876 278.861 887.42 280.332C887.608 280.841 887.822 281.351 888.162 281.775C890.867 282.402 893.421 283.508 895.993 284.535C896.294 285.538 896.308 285.007 895.783 286.073C895.441 286.769 895.197 287.384 895.037 288.149L894.635 287.549C893.971 289.155 893.833 289.896 892.433 290.973C890.598 291.102 888.145 290.736 886.48 291.436L887.166 292.174C887.111 292.311 887.053 292.447 887.002 292.585C885.297 297.197 886.564 302.727 884.033 307.036C882.837 307.476 882.26 307.511 881.068 306.958C879.02 306.01 877.289 304.353 875.676 302.815C873.113 303.637 870.656 304.326 867.999 304.801C867.555 306.966 867.31 309.559 866.075 311.417L864.976 311.748L864.386 311.393L861.873 310.966C860.463 310.806 859.842 310.737 858.692 309.816C857.505 307.873 857.551 305.636 857.359 303.419C855.219 304.139 852.607 301.99 850.152 302.212C848.42 303.735 847.036 305.338 844.578 305.343C843.403 305.346 842.274 304.924 841.562 303.952C839.574 301.236 841.387 296.238 841.503 293.193C841.673 288.766 834.316 287.83 832.195 284.674C831.354 283.422 831.52 283.132 831.833 281.755C833.72 279.415 836.836 278.282 839.502 276.995L839.398 276.632C836.683 274.12 831.723 269.663 827.858 269.774C824.322 269.876 820.73 273.367 817.945 275.364C818.586 278.142 819.859 281.661 817.995 284.22C816.044 286.899 811.007 287.244 807.973 287.671C806.146 284.556 803.864 281.267 804.089 277.503L803.452 276.344C800.253 277.212 795.453 276.195 792.077 276.041C788.764 279.663 785.443 283.496 780.227 284.08C778.522 284.271 776.6 284.12 775.354 282.788C774.071 281.418 773.57 278.915 773.703 277.1C773.901 274.39 775.217 272.057 777.187 270.268L777.814 270.838L778.276 269.532C776.309 265.394 772.674 261.746 769.694 258.317C767.636 259.101 765.566 259.76 763.391 260.127C761.229 260.492 758.945 260.454 757.189 258.928C755.232 257.227 754.352 253.559 754.115 251.049C753.838 248.113 757.103 249.112 758.944 248.142C761.334 246.881 762.678 242.454 764.45 240.356C764.502 238.216 764.765 235.82 764.517 233.699C764.305 231.892 763.69 231.507 762.395 230.42C762.232 230.504 762.08 230.615 761.905 230.673C759.375 231.512 753.707 227.489 751.388 226.171C752.752 223.093 753.572 219.924 756.919 218.594L757.664 217.701C760.657 217.23 765.388 218.942 768.606 219.307C771.626 216.047 774.206 212.457 776.661 208.764L773.401 197.815C775.399 196.142 777.341 194.396 779.303 192.68C782.6 195.754 785.877 198.82 789.366 201.678C793.363 200.723 797.189 199.544 801.069 198.191Z"/>
	<path fill="#FEFEFE" d="M854.447 257.53C854.6 254.592 854.648 252.711 856.583 250.417C857.353 250.083 857.72 249.745 858.586 249.921C860.965 250.402 862.258 252.707 863.58 254.542C866.893 255.201 870.245 255.724 873.574 256.305C874.663 254.995 875.597 253.559 876.561 252.156L877.492 252.127C878.876 251.456 879.065 251.545 880.603 251.785C881.987 252.694 882.619 253.605 882.925 255.213C883.312 257.239 883.067 259.687 881.869 261.43C881.561 261.879 881.235 262.153 880.85 262.513C882.046 264.577 883.768 265.965 885.524 267.533C887.676 267.09 889.892 266.732 891.978 266.038C893.345 266.534 893.576 266.635 894.492 267.751C894.794 269.22 894.725 269.991 894.401 271.412C891.756 272.248 889.079 273.276 887.724 275.92C887.011 277.312 886.876 278.861 887.42 280.332C887.608 280.841 887.822 281.351 888.162 281.775C890.867 282.402 893.421 283.508 895.993 284.535C896.294 285.538 896.308 285.007 895.783 286.073C895.441 286.769 895.197 287.384 895.037 288.149L894.635 287.549C893.971 289.155 893.833 289.896 892.433 290.973C890.598 291.102 888.145 290.736 886.48 291.436L887.166 292.174C887.111 292.311 887.053 292.447 887.002 292.585C885.297 297.197 886.564 302.727 884.033 307.036C882.837 307.476 882.26 307.511 881.068 306.958C879.02 306.01 877.289 304.353 875.676 302.815C873.113 303.637 870.656 304.326 867.999 304.801C867.555 306.966 867.31 309.559 866.075 311.417L864.976 311.748L864.386 311.393L861.873 310.966C860.463 310.806 859.842 310.737 858.692 309.816C857.505 307.873 857.551 305.636 857.359 303.419C855.219 304.139 852.607 301.99 850.152 302.212C848.42 303.735 847.036 305.338 844.578 305.343C843.403 305.346 842.274 304.924 841.562 303.952C839.574 301.236 841.387 296.238 841.503 293.193C841.673 288.766 834.316 287.83 832.195 284.674C831.354 283.422 831.52 283.132 831.833 281.755C833.72 279.415 836.836 278.282 839.502 276.995L839.398 276.632C839.445 273.239 840.914 270.037 842.099 266.912C841.078 265.174 839.274 262.743 839.59 260.676C839.7 259.949 840.109 259.854 840.646 259.437C843.767 259.009 846.985 260.573 849.889 261.604L854.447 257.53Z"/>
	<path d="M857.359 303.419C855.219 304.139 852.607 301.99 850.152 302.212C848.42 303.735 847.036 305.338 844.578 305.343C843.403 305.346 842.274 304.924 841.562 303.952C839.574 301.236 841.387 296.238 841.503 293.193C841.673 288.766 834.316 287.83 832.195 284.674C831.354 283.422 831.52 283.132 831.833 281.755C833.72 279.415 836.836 278.282 839.502 276.995C838.734 280.266 833.056 282.7 834.567 285.623C836.743 287.096 839.297 287.477 841.819 288.061C842.61 290.303 843.357 292.556 844.357 294.715C843.039 296.427 841.695 297.938 841.91 300.248C842.002 301.231 842.35 301.751 842.909 302.515C844.164 303.214 844.692 303.303 846.118 303.134C847.594 302.293 848.614 301.184 849.78 299.962C851.842 300.555 855.866 301.252 857.16 303.042C857.243 303.157 857.293 303.293 857.359 303.419Z"/>
	<path d="M881.291 305.369C887.792 300.981 882.035 298.774 883.966 293.99C884.519 292.62 885.198 292.065 886.48 291.436L887.166 292.174C887.111 292.311 887.053 292.447 887.002 292.585C885.297 297.197 886.564 302.727 884.033 307.036C882.837 307.476 882.26 307.511 881.068 306.958C879.02 306.01 877.289 304.353 875.676 302.815C873.113 303.637 870.656 304.326 867.999 304.801C867.555 306.966 867.31 309.559 866.075 311.417L864.976 311.748L864.386 311.393C865.942 309.065 866.338 306.818 866.711 304.098C869.812 303.126 872.687 302.046 875.616 300.638L881.291 305.369Z"/>
	<path fill="#131419" d="M877.492 252.127C878.876 251.456 879.065 251.545 880.603 251.785C881.987 252.694 882.619 253.605 882.925 255.213C883.312 257.239 883.067 259.687 881.869 261.43C881.561 261.879 881.235 262.153 880.85 262.513C880.757 259.976 881.284 257.695 881.824 255.24C880.444 254.12 878.954 253.137 877.492 252.127Z"/>
	<path fill="#131419" d="M888.162 281.775C890.867 282.402 893.421 283.508 895.993 284.535C896.294 285.538 896.308 285.007 895.783 286.073C895.441 286.769 895.197 287.384 895.037 288.149L894.635 287.549C894.343 284.815 889.852 284.172 888.162 281.775Z"/>
	<path d="M857.359 303.419C858.756 306.008 860.16 308.565 861.873 310.966C860.463 310.806 859.842 310.737 858.692 309.816C857.505 307.873 857.551 305.636 857.359 303.419Z"/>
	<path fill="#131419" d="M891.978 266.038C893.345 266.534 893.576 266.635 894.492 267.751C894.794 269.22 894.725 269.991 894.401 271.412C893.382 269.643 892.619 267.977 891.978 266.038Z"/>
	<path d="M861.159 263.18C869.924 261.253 878.597 266.78 880.551 275.54C882.505 284.299 877.004 292.989 868.25 294.97C859.459 296.96 850.723 291.429 848.76 282.632C846.798 273.834 852.355 265.115 861.159 263.18Z"/>
	<path fill="#FEFEFE" d="M862.3 265.219C867.358 264.361 872.483 266.318 875.682 270.329C878.881 274.341 879.649 279.773 877.686 284.514C875.724 289.254 871.341 292.555 866.243 293.131C858.656 293.989 851.765 288.653 850.697 281.093C849.629 273.533 854.772 266.497 862.3 265.219Z"/>
	<path d="M862.475 271.745C865.229 271.007 868.166 271.815 870.155 273.857C872.144 275.899 872.874 278.857 872.064 281.59C871.253 284.323 869.029 286.405 866.248 287.032C862.065 287.977 857.896 285.401 856.868 281.238C855.841 277.075 858.333 272.855 862.475 271.745Z"/>
	<path fill="#FEFEFE" d="M863.047 273.744C866.068 272.906 869.205 274.641 870.099 277.646C870.993 280.651 869.316 283.819 866.328 284.768C864.345 285.398 862.177 284.908 860.658 283.488C859.139 282.067 858.505 279.937 859 277.916C859.496 275.896 861.043 274.301 863.047 273.744Z"/>
	<path d="M840.79 244.145C843.782 242.47 846.758 241.767 850.088 241.165L851.013 241.836C848.562 245.93 837.972 242.586 841.384 254.641C841.916 256.522 842.917 258.128 844.666 259.091C846.077 259.867 848.253 259.856 849.699 259.183C853.454 257.436 853.866 249.753 859.017 246.505C860.212 247.969 861.36 249.399 862.402 250.98C863.562 252.739 864.994 254.155 867.139 254.565C869.909 255.094 872.421 253.913 874.754 252.594C875.436 252.209 875.785 252.12 876.561 252.156C875.597 253.559 874.663 254.995 873.574 256.305C870.245 255.724 866.893 255.201 863.58 254.542C862.258 252.707 860.965 250.402 858.586 249.921C857.72 249.745 857.353 250.083 856.583 250.417C854.648 252.711 854.6 254.592 854.447 257.53L849.889 261.604C846.985 260.573 843.767 259.009 840.646 259.437C840.109 259.854 839.7 259.949 839.59 260.676C839.274 262.743 841.078 265.174 842.099 266.912C840.914 270.037 839.445 273.239 839.398 276.632C836.683 274.12 831.723 269.663 827.858 269.774C824.322 269.876 820.73 273.367 817.945 275.364C818.586 278.142 819.859 281.661 817.995 284.22C816.044 286.899 811.007 287.244 807.973 287.671C806.146 284.556 803.864 281.267 804.089 277.503C805.717 280.06 807.187 282.748 808.711 285.37L817.686 283.318L816.259 274.701C819.37 271.855 822.817 269.495 826.369 267.242L837.015 271.695L839.206 266.386C837.771 263.76 836.374 261.114 835.013 258.449L838.648 254.659L840.79 244.145Z"/>
	<path d="M838.205 203.581C839.833 203.713 840.453 204.049 841.762 204.928C842.482 206.495 842.585 207.307 841.941 208.94C840.86 211.684 838.66 214.175 836.892 216.508C838.666 220.259 840.342 223.897 842.698 227.334C845.476 227.733 848.899 227.828 851.341 229.219C851.522 229.611 851.775 229.998 851.798 230.432L840.229 229.404L835.307 215.745C836.828 213.435 839.794 209.882 840.045 207.164C840.2 205.491 839.183 204.77 838.205 203.581Z"/>
	<path d="M792.077 276.041C788.764 279.663 785.443 283.496 780.227 284.08C778.522 284.271 776.6 284.12 775.354 282.788C774.071 281.418 773.57 278.915 773.703 277.1C773.901 274.39 775.217 272.057 777.187 270.268L777.814 270.838L774.948 279.015C777.04 280.885 779.419 282.267 781.919 283.522C784.792 280.623 787.61 277.604 790.809 275.062C794.869 275.296 799.571 275.128 803.452 276.344C800.253 277.212 795.453 276.195 792.077 276.041Z"/>
	<path d="M769.694 258.317C767.636 259.101 765.566 259.76 763.391 260.127C761.229 260.492 758.945 260.454 757.189 258.928C755.232 257.227 754.352 253.559 754.115 251.049C753.838 248.113 757.103 249.112 758.944 248.142C761.334 246.881 762.678 242.454 764.45 240.356C764.734 241.853 765.439 243.963 764.515 245.317C762.894 247.69 758.834 248.936 756.273 250.161L758.205 258.551C761.495 258.347 766.583 257.401 769.694 258.317Z"/>
	<path d="M751.388 226.171C752.752 223.093 753.572 219.924 756.919 218.594L754.011 224.93C756.792 226.705 759.797 228.396 762.395 230.42C762.232 230.504 762.08 230.615 761.905 230.673C759.375 231.512 753.707 227.489 751.388 226.171Z"/>
	<path d="M800.535 214.704C813.203 213.545 824.414 222.872 825.579 235.541C826.744 248.209 817.422 259.424 804.754 260.595C792.078 261.767 780.854 252.437 779.688 239.76C778.523 227.084 787.858 215.864 800.535 214.704Z"/>
	<path fill="#FEFEFE" d="M799.045 217.228C810.3 215.227 821.044 222.734 823.035 233.99C825.026 245.246 817.509 255.983 806.25 257.964C795.007 259.941 784.288 252.436 782.299 241.195C780.311 229.954 787.806 219.227 799.045 217.228Z"/>
	<path d="M800.129 226.719C804.062 225.745 808.214 226.962 811 229.903C813.786 232.845 814.774 237.058 813.588 240.931C812.402 244.805 809.224 247.742 805.269 248.619C799.256 249.953 793.288 246.204 791.881 240.207C790.474 234.211 794.151 228.199 800.129 226.719Z"/>
	<path fill="#FEFEFE" d="M802.028 228.758C805.189 228.423 808.283 229.824 810.115 232.421C811.948 235.017 812.232 238.402 810.858 241.267C809.484 244.133 806.667 246.03 803.495 246.227C798.736 246.522 794.614 242.96 794.216 238.21C793.817 233.459 797.287 229.26 802.028 228.758Z"/>
	<path fill="#FEFEFE" d="M715.319 262.785L714.609 264.611C713.968 264.045 714.084 264.346 714.051 263.375C714.015 262.288 714.201 261.931 714.737 261.034C716.953 259.642 719.146 258.926 721.785 259.463C723.097 259.73 723.812 260.27 724.61 261.336C725.03 262.831 725.11 264.396 724.355 265.81C724.283 265.945 724.185 266.064 724.099 266.191C724.46 267.671 724.389 268.151 725.74 269.003C727.857 270.337 732.123 270.43 734.614 270.763C736.099 268.92 737.703 267.125 738.816 265.027C740.914 264.585 743.89 265.98 745.688 267.204C746.615 267.835 747.441 268.676 747.704 269.797C747.855 270.439 747.541 270.962 747.055 271.4C746.755 271.671 746.029 272.044 745.659 272.246L744.992 271.575L742.286 276.307C744.037 278.799 745.872 281.269 747.522 283.829L755.199 282.897L755.989 282.309C757.382 283.237 757.948 284.453 758.244 286.128C758.574 287.988 757.918 290.543 756.731 291.993C755.816 293.112 753.912 293.79 752.46 293.75C751.722 293.729 751.624 293.644 751.028 293.41L751.048 301.911C753.183 303.378 756.418 305.082 757.499 307.493L757.342 309.543C757.936 310.759 757.998 311.303 757.814 312.641C757.014 313.779 756.862 314.087 755.409 314.387C753.271 314.828 748.366 314.117 746.465 313.011C745.077 314.452 742.933 316.681 743.034 318.842C743.043 319.026 743.115 319.202 743.155 319.382C744.677 320.325 745.579 320.929 745.997 322.811C746.332 324.326 746.178 326.029 745.246 327.316C744.272 328.66 742.836 329.366 741.223 329.527L740.131 329.044C740.271 328.864 740.375 328.62 740.586 328.534C737.745 327.662 736.687 322.942 731.367 322.099C730.059 321.892 728.844 322.166 727.835 323.045C725.427 325.141 725.148 329.095 724.898 332.044L717.115 331.676C717.044 330.113 716.902 328.594 716.7 327.043C716.152 327.169 716.521 327.116 715.584 327.005C714.96 325.413 714.422 324.438 713.228 323.204C711.695 322.858 710.187 322.394 708.676 321.961C706.773 323.554 704.709 324.862 702.635 326.215C700.665 324.921 699.006 323.961 698.112 321.694C698.104 321.409 698.091 321.125 698.086 320.84C698.015 316.724 700.302 314.582 702.941 311.791C701.458 308.84 699.612 306.08 697.852 303.289C695.61 303.053 693.567 303.082 691.323 303.284C690.503 302.839 690.236 302.49 689.658 301.78C689.848 299.364 689.843 296.911 689.914 294.487L697.582 294.525C698.395 292.084 699.162 289.628 699.881 287.158C699.624 286.508 699.353 285.862 699.099 285.211C697.706 281.64 695.559 280.419 692.403 278.527C695.016 274.671 698.044 271.208 701.283 267.872C702.996 270.126 704.657 272.631 707.707 272.921C708.77 273.023 709.875 273.052 710.943 273.126C712.582 272.154 714.152 270.836 715.707 269.719L715.319 262.785Z"/>
	<path d="M692.403 278.527C695.016 274.671 698.044 271.208 701.283 267.872C702.996 270.126 704.657 272.631 707.707 272.921C708.77 273.023 709.875 273.052 710.943 273.126C709.743 274.076 708.81 275.277 707.147 275.072C704.895 274.795 702.477 272.198 700.623 270.96C698.839 273.171 696.984 275.35 695.339 277.667C696.846 278.994 701.096 281.777 701.074 283.842C701.061 285.034 700.396 286.112 699.881 287.158C699.624 286.508 699.353 285.862 699.099 285.211C697.706 281.64 695.559 280.419 692.403 278.527Z"/>
	<path d="M708.793 319.991L715.047 322.747L713.228 323.204C711.695 322.858 710.187 322.394 708.676 321.961C706.773 323.554 704.709 324.862 702.635 326.215C700.665 324.921 699.006 323.961 698.112 321.694C702.655 322.851 704.715 322.008 708.793 319.991Z"/>
	<path d="M715.319 262.785L714.609 264.611C713.968 264.045 714.084 264.346 714.051 263.375C714.015 262.288 714.201 261.931 714.737 261.034C716.953 259.642 719.146 258.926 721.785 259.463C723.097 259.73 723.812 260.27 724.61 261.336C725.03 262.831 725.11 264.396 724.355 265.81C724.283 265.945 724.185 266.064 724.099 266.191L722.328 260.79C720.005 261.502 717.669 262.167 715.319 262.785Z"/>
	<path d="M755.199 282.897L755.989 282.309C757.382 283.237 757.948 284.453 758.244 286.128C758.574 287.988 757.918 290.543 756.731 291.993C755.816 293.112 753.912 293.79 752.46 293.75C751.722 293.729 751.624 293.644 751.028 293.41C752.736 291.498 754.79 290.573 757.029 289.42L755.199 282.897Z"/>
	<path d="M738.816 265.027C740.914 264.585 743.89 265.98 745.688 267.204C746.615 267.835 747.441 268.676 747.704 269.797C747.855 270.439 747.541 270.962 747.055 271.4C746.755 271.671 746.029 272.044 745.659 272.246L744.992 271.575L745.269 270.443C743.95 268.332 740.838 266.564 738.816 265.027Z"/>
	<path fill="#131419" d="M757.342 309.543C757.936 310.759 757.998 311.303 757.814 312.641C757.014 313.779 756.862 314.087 755.409 314.387C753.271 314.828 748.366 314.117 746.465 313.011C748.106 310.701 752.198 313.347 754.716 312.465C756.3 311.91 756.581 310.891 757.342 309.543Z"/>
	<path fill="#131419" d="M743.155 319.382C744.677 320.325 745.579 320.929 745.997 322.811C746.332 324.326 746.178 326.029 745.246 327.316C744.272 328.66 742.836 329.366 741.223 329.527L740.131 329.044C740.271 328.864 740.375 328.62 740.586 328.534C741.695 327.972 743.132 327.396 743.822 326.304C745.067 324.334 743.751 321.405 743.155 319.382Z"/>
	<path fill="#131419" d="M715.047 322.747C715.748 323.113 716.204 323.1 716.441 323.909C716.745 324.951 716.704 325.97 716.7 327.043C716.152 327.169 716.521 327.116 715.584 327.005C714.96 325.413 714.422 324.438 713.228 323.204L715.047 322.747Z"/>
	<path d="M720.882 280.7C726.39 279.434 732.152 281.245 735.946 285.435C739.739 289.624 740.972 295.536 739.169 300.892C737.366 306.249 732.808 310.212 727.254 311.254C718.901 312.82 710.831 307.418 709.096 299.099C707.361 290.78 712.6 282.602 720.882 280.7Z"/>
	<path fill="#FEFEFE" d="M721.287 282.787C726.032 281.644 731.024 283.144 734.353 286.713C737.681 290.283 738.83 295.367 737.36 300.021C735.89 304.675 732.028 308.176 727.253 309.185C720.013 310.714 712.887 306.145 711.256 298.927C709.624 291.709 714.093 284.52 721.287 282.787Z"/>
	<path d="M722.152 288.748C726.137 287.496 730.389 289.672 731.704 293.636C733.019 297.601 730.911 301.887 726.968 303.265C724.361 304.176 721.465 303.611 719.392 301.786C717.319 299.962 716.39 297.162 716.962 294.46C717.534 291.759 719.518 289.575 722.152 288.748Z"/>
	<path fill="#FEFEFE" d="M722.597 290.757C724.502 290.172 726.575 290.656 728.024 292.024C729.473 293.392 730.075 295.433 729.602 297.368C729.128 299.304 727.651 300.836 725.733 301.379C722.813 302.208 719.77 300.531 718.911 297.62C718.051 294.708 719.695 291.648 722.597 290.757Z"/>
	<path fill="#131419" d="M691.323 303.284C691.269 303.327 691.223 303.384 691.16 303.414C689.976 303.981 689.716 304.148 688.516 303.763C688.443 303.599 688.351 303.441 688.299 303.269C687.794 301.598 688.427 299.635 689.096 298.095C689.422 299.283 689.502 300.558 689.658 301.78C690.236 302.49 690.503 302.839 691.323 303.284Z"/>
	<path fill="#2B2D3E" d="M578.78 88.1845C619.922 85.1182 655.783 115.932 658.944 157.067C662.105 198.202 631.374 234.134 590.247 237.39C548.985 240.657 512.91 209.803 509.738 168.534C506.566 127.264 537.503 91.2608 578.78 88.1845Z"/>
	<path fill="#7CD5CE" d="M550.033 120.149C554.836 116.913 559.547 113.864 565 111.806C580.033 106.131 594.714 107.735 609.165 114.156C610.888 113.647 612.273 114.208 613.883 115.018C616.878 116.525 620.336 119.256 622.69 121.628C634.112 132.383 641.262 144.913 641.804 160.863C642.209 172.766 637.728 187.987 629.438 196.779C628.88 197.371 628.315 197.75 627.588 198.103L626.522 197.837C619.987 205.03 613.303 209.958 604.407 213.811L604.526 214.529C600.897 216.642 597.094 217.94 592.963 218.628C577.824 221.151 563.164 217.191 550.833 208.264C539.028 199.718 530.663 186.381 528.915 171.744C528.718 170.099 528.761 169.563 529.834 168.313C530.192 165.219 529.84 161.833 530.068 158.671C530.959 146.282 535.185 137.285 542.607 127.401L542.783 126.009C544.889 123.436 546.562 120.509 550.033 120.149Z"/>
	<path d="M622.69 121.628C634.112 132.383 641.262 144.913 641.804 160.863C642.209 172.766 637.728 187.987 629.438 196.779C628.88 197.371 628.315 197.75 627.588 198.103L626.522 197.837C634.565 187.103 639.223 175.438 639.008 161.886C638.758 146.169 632.022 132.95 620.879 122.146L622.69 121.628Z"/>
	<path d="M604.407 213.811L604.526 214.529C600.897 216.642 597.094 217.94 592.963 218.628C577.824 221.151 563.164 217.191 550.833 208.264C539.028 199.718 530.663 186.381 528.915 171.744C528.718 170.099 528.761 169.563 529.834 168.313C532.381 184.3 539.068 197.569 552.383 207.259C564.229 215.792 578.996 219.233 593.394 216.815C597.176 216.192 600.807 215.105 604.407 213.811Z"/>
	<path fill="#131419" d="M609.165 114.156C610.888 113.647 612.273 114.208 613.883 115.018C616.878 116.525 620.336 119.256 622.69 121.628L620.879 122.146C617.251 118.972 613.358 116.511 609.165 114.156Z"/>
	<path fill="#131419" d="M542.607 127.401L542.783 126.009C544.889 123.436 546.562 120.509 550.033 120.149C547.414 122.467 544.973 124.825 542.607 127.401Z"/>
	<path fill="#2B2D3E" d="M534.044 166.005C532.627 143.897 545.806 123.454 566.526 115.618C587.247 107.781 610.655 114.386 624.223 131.898C637.477 149.004 638.338 172.659 626.363 190.684C614.388 208.708 592.247 217.082 571.342 211.493C550.436 205.905 535.428 187.6 534.044 166.005Z"/>
	<path d="M534.044 166.005C532.627 143.897 545.806 123.454 566.526 115.618C587.247 107.781 610.655 114.386 624.223 131.898C624.17 131.954 624.132 132.032 624.063 132.067C623.064 132.586 622.49 132.695 621.525 132.017C619.767 130.783 618.148 128.724 616.498 127.281C610.665 122.178 603.323 118.116 595.718 116.39C593.104 115.797 589.269 115.121 586.889 116.629C586.32 115.756 585.386 115.189 584.349 115.088C583.312 114.987 582.285 115.362 581.558 116.108C578.493 114.529 574.256 115.643 571.099 116.676C557.52 121.122 545.466 131.935 539.182 144.699C537.226 148.672 534.656 154.652 536.329 159.051C536.658 159.916 537.272 160.478 537.922 161.097C537.761 161.73 537.785 162.395 537.989 163.015L536.326 162.811C535.327 163.62 535.338 164.276 534.689 165.268C534.511 165.541 534.259 165.759 534.044 166.005Z"/>
	<path fill="#7CD5CE" d="M581.558 116.108C582.285 115.362 583.312 114.987 584.349 115.088C585.386 115.189 586.32 115.756 586.889 116.629C587.871 118.135 587.524 120.142 586.095 121.232C584.666 122.321 582.638 122.123 581.447 120.777C580.255 119.432 580.304 117.395 581.558 116.108Z"/>
	<path fill="#7CD5CE" d="M537.922 161.097C538.341 159.44 539.915 158.344 541.614 158.526C543.313 158.707 544.621 160.111 544.681 161.818C544.741 163.526 543.536 165.018 541.854 165.319C540.172 165.62 538.525 164.638 537.989 163.015C537.785 162.395 537.761 161.73 537.922 161.097Z"/>
	<path d="M594.002 134.315C594.471 134.368 594.941 134.407 595.405 134.493C596.989 134.786 597.951 135.34 598.895 136.622C599.345 142.362 588.696 158.891 585.68 164.931C589.986 171.011 595.22 179.332 596.286 186.833C596.636 189.293 596.072 190.696 594.573 192.634C593.885 192.417 593.211 192.158 592.555 191.858C586.919 189.254 580.605 170.536 578.294 164.417C581.317 154.794 587.568 142.025 594.002 134.315Z"/>
	<path fill="#7CD5CE" d="M594.341 136.163C595.165 136.37 595.667 136.603 596.405 136.998C598.104 141.121 586.194 159.072 584.179 164.246C584.104 164.438 584.035 164.632 583.963 164.826C586.185 169.553 588.921 174.067 591.267 178.741C593.205 182.603 595.406 186.563 593.964 190.92C588.454 188.042 582.459 170.497 579.974 164.505C584.021 154.699 588.824 145.223 594.341 136.163Z"/>
	<path fill="#7CD5CE" d="M630.821 161.009C631.697 161.898 631.66 162.255 631.91 163.5C631.564 164.48 631.335 164.984 630.544 165.702C629.366 166.773 627.376 167.258 625.835 166.93C624.492 166.645 623.604 165.845 622.937 164.681C622.12 163.255 621.925 161.126 622.669 159.659C623.406 158.205 625.234 157.054 626.862 156.861C628.448 156.674 629.148 157.096 630.371 157.95C631.014 159.204 631.03 159.114 630.598 160.452C630.688 160.631 630.763 160.817 630.821 161.009Z"/>
	<path d="M630.821 161.009C631.697 161.898 631.66 162.255 631.91 163.5C631.564 164.48 631.335 164.984 630.544 165.702C629.366 166.773 627.376 167.258 625.835 166.93C624.492 166.645 623.604 165.845 622.937 164.681C622.12 163.255 621.925 161.126 622.669 159.659C623.406 158.205 625.234 157.054 626.862 156.861C628.448 156.674 629.148 157.096 630.371 157.95C631.014 159.204 631.03 159.114 630.598 160.452C629.754 158.77 627.734 158.053 626.018 158.825C624.302 159.597 623.499 161.584 624.197 163.331C624.895 165.079 626.846 165.966 628.621 165.343C630.397 164.721 631.367 162.81 630.821 161.009Z"/>
	<path fill="#7CD5CE" d="M581.927 203.988C582.502 202.555 582.625 202.462 583.91 201.592C585.473 201.533 585.772 201.654 587.174 202.37C587.774 203.185 587.948 203.656 588.085 204.658C587.84 205.449 587.56 206.19 587.476 207.017C587.846 208.19 588.215 208.98 587.899 210.212C586.924 210.865 586.42 211.182 585.165 210.773C583.971 210.383 583.62 209.925 583.24 208.857C582.151 207.278 582.072 205.854 581.927 203.988Z"/>
	<path fill="#131419" d="M587.476 207.017C587.846 208.19 588.215 208.98 587.899 210.212C586.924 210.865 586.42 211.182 585.165 210.773C583.971 210.383 583.62 209.925 583.24 208.857C585.076 208.534 586.009 208.181 587.476 207.017Z"/>
	<path fill="#131419" d="M581.927 203.988C582.502 202.555 582.625 202.462 583.91 201.592C585.473 201.533 585.772 201.654 587.174 202.37C587.774 203.185 587.948 203.656 588.085 204.658C587.538 204.294 586.952 203.869 586.35 203.588C584.867 202.894 583.398 203.548 581.927 203.988Z"/>
	<path d="M909.732 411.543C914.152 411.428 918.484 411.961 922.795 412.937C938.7 416.481 952.506 426.284 961.095 440.132C969.398 453.64 971.913 469.921 968.073 485.305C967.85 486.181 967.427 487.626 966.545 488.039C964.345 489.068 960.49 487.584 958.232 487.001C957.228 488.896 956.373 490.865 955.384 492.769C948 506.982 935.22 514.542 920.442 519.294C919.944 519.397 919.446 519.505 918.943 519.586C905.163 521.788 891.733 518.611 880.528 510.225C869.922 502.226 862.867 490.394 860.871 477.26C859.005 464.505 862.364 451.537 870.188 441.292C879.758 428.683 893.75 422.834 909.058 420.735C908.958 417.554 908.948 414.652 909.732 411.543Z"/>
	<path fill="#7CD5CE" d="M911.716 414.483C914.758 414.484 917.865 414.807 920.858 415.347C935.482 417.983 949.079 427.143 957.536 439.282C967.288 453.278 968.443 468.491 965.587 484.893L964.764 485.511C958.819 485.365 919.48 469.929 911.618 466.537C911.564 449.186 911.596 431.834 911.716 414.483Z"/>
	<path fill="#7CD5CE" d="M905.391 424.136C906.518 424.085 907.243 423.96 908.221 424.586C910.43 430.241 908.722 458.84 908.576 466.44C898.429 479.195 886.751 490.589 876.612 503.383L872.32 498.358C868.237 492.655 865.408 486.152 864.019 479.276C861.62 467.302 864.156 454.866 871.053 444.788C879.166 432.953 891.539 426.683 905.391 424.136Z"/>
	<path fill="#7CD5CE" d="M909.671 468.855C923.983 476.306 940.436 480.728 955.675 485.923C954.991 487.55 954.301 489.182 953.496 490.753C946.839 503.753 936.245 511.234 922.634 515.739C919.633 516.449 916.518 517.005 913.442 517.245C899.741 518.314 888.265 513.244 878.029 504.458C887.133 492.358 899.429 480.296 909.671 468.855Z"/>
	<path fill="#2B2D3E" d="M237.308 565.629C238.247 562.296 239.299 555.994 242.475 554.041C243.228 553.578 243.614 553.787 244.443 553.87C248.527 556.636 250.372 564.041 251.646 568.607C252.811 572.292 253.701 576.059 254.637 579.807C255.027 581.898 255.121 585.115 256.703 586.515C257.875 586.261 258.561 585.516 259.421 584.741C262.232 582.154 264.994 578.988 268.834 578.093C269.6 578.267 269.989 578.151 270.452 578.865C273.254 583.191 270.767 599.217 269.26 604.085C269.233 604.173 269.179 604.251 269.138 604.335C267.998 604.783 267.646 604.807 267.084 605.972C266.288 607.623 265.97 609.739 265.546 611.526C255.336 612.279 243.746 612.194 233.588 611.05C232.464 609.361 231.484 607.525 229.766 606.385C229.151 606.338 228.76 606.282 228.16 606.46C225.459 602.941 223.772 596.984 222.023 592.877C221.542 591.465 221.269 590.4 221.193 588.913C221.816 587.666 221.776 587.741 223.099 587.286C227.19 587.942 230.534 590.696 233.843 593.02C233.984 589.32 234.266 585.715 234.759 582.045C234.307 577.005 236.305 570.608 237.308 565.629Z"/>
	<path d="M234.759 582.045C235.978 580.748 235.992 577.275 236.234 575.499L237.09 575.535C235.932 582.861 236.391 589.723 236.554 597.081C236.329 597.011 236.103 596.944 235.879 596.871C232.069 595.634 227.658 591.513 223.826 591.746L222.023 592.877C221.542 591.465 221.269 590.4 221.193 588.913C221.816 587.666 221.776 587.741 223.099 587.286C227.19 587.942 230.534 590.696 233.843 593.02C233.984 589.32 234.266 585.715 234.759 582.045Z"/>
	<path d="M237.308 565.629C238.247 562.296 239.299 555.994 242.475 554.041C243.228 553.578 243.614 553.787 244.443 553.87C248.527 556.636 250.372 564.041 251.646 568.607L250.03 568.671C248.951 565.594 247.529 559.78 244.855 557.759C244.136 557.215 243.979 557.416 243.142 557.5C240.399 560.094 239.757 564.445 238.759 567.956L237.308 565.629Z"/>
	<path d="M254.637 579.807C255.027 581.898 255.121 585.115 256.703 586.515C257.875 586.261 258.561 585.516 259.421 584.741C259.424 584.957 259.446 585.173 259.43 585.388C259.282 587.48 258.799 589.211 257.228 590.621C256.429 590.538 256.125 590.65 255.487 590.083C253.697 588.494 254.026 585.609 253.951 583.397L254.637 579.807Z"/>
	<path fill="#131419" d="M237.308 565.629L238.759 567.956C238.443 570.147 238.116 573.537 237.09 575.535L236.234 575.499C235.992 577.275 235.978 580.748 234.759 582.045C234.307 577.005 236.305 570.608 237.308 565.629Z"/>
	<path fill="#131419" d="M250.03 568.671L251.646 568.607C252.811 572.292 253.701 576.059 254.637 579.807L253.951 583.397C252.972 578.392 251.588 573.522 250.03 568.671Z"/>
	<path d="M209.188 510.745L210.299 511.626C211.688 514.78 211.14 519.44 211.12 522.874C214.073 522.727 218.837 522.13 221.194 524.064C218.961 526.109 214.138 525.477 211.287 525.454L210.962 537.331L209.811 536.898C207.705 534.72 208.718 528.357 208.588 525.285C205.732 525.185 201.884 525.427 199.403 523.897C201.504 522.16 206.253 522.78 208.857 522.825C208.834 518.69 208.489 514.856 209.188 510.745Z"/>
	<path d="M458.925 90.3971C461.725 91.5276 463.68 93.9282 465.751 96.0447C466.683 94.8248 467.913 93.164 469.252 92.4008C470.191 91.8651 470.336 91.8104 471.399 92.0915L471.519 93.2511C470.709 95.3692 468.951 96.8009 467.374 98.3726C469.433 100.602 471.635 102.584 473.605 104.918C473.176 105.027 472.947 105.107 472.472 105.109C469.428 105.123 467.372 102.258 465.505 100.221C464.609 101.231 463.707 102.338 462.709 103.246C461.882 104 461.278 104.118 460.207 104.063L460.032 103.115C460.827 101.164 462.157 100.032 463.655 98.6126C461.046 95.8288 459.336 94.3506 458.925 90.3971Z"/>
	<path d="M553.505 290.651C556.905 291.351 559.262 294.743 561.479 297.197C562.389 296.26 563.299 295.316 564.254 294.423C565.303 293.442 566.36 292.685 567.856 292.74L567.978 293.656C566.956 295.958 565.278 297.483 563.538 299.248L569.198 305.12L568.706 306.008C568.552 306.018 568.396 306.05 568.242 306.036C565.963 305.83 562.967 302.209 561.362 300.638C560.002 302.192 558.604 303.84 556.528 304.343L556.09 303.75C556.608 301.773 558.147 300.413 559.483 298.93C556.562 296.375 554.53 294.535 553.505 290.651Z"/>
	<path d="M780.562 447.68C781.081 447.918 781.323 447.947 781.679 448.375C783.208 450.209 782.633 454.398 782.573 456.671C785.273 456.781 788.413 456.609 790.74 458.141L790.386 458.761C787.788 459.725 785.254 459.62 782.525 459.639C782.771 462.456 782.652 465.037 781.957 467.78L781.368 467.85L780.447 467.025C779.685 464.639 779.901 462.093 779.919 459.612C777.509 459.637 774.361 460.075 772.419 458.47L772.971 457.757C775.3 456.848 777.664 457.007 780.126 456.992C780.165 453.871 780.319 450.791 780.562 447.68Z"/>
	<path d="M98.5574 124.789L100.112 125.521L100.292 126.23L98.6887 127.36C97.8122 127.222 98.106 127.417 97.6865 127.024C97.5232 125.754 97.838 125.779 98.5574 124.789Z"/>
	<path d="M637.313 486.212L638.323 486.199L638.977 487.265C638.767 487.437 638.443 487.364 638.173 487.392L637.313 486.212Z"/>
</svg>
