<?xml version="1.0" encoding="utf-8" ?>
<svg xmlns="http://www.w3.org/2000/svg" xmlns:xlink="http://www.w3.org/1999/xlink" width="1024" height="1024">
	<path d="M223.792 219.563C210.498 206.653 199.711 191.753 199.544 172.38C199.462 162.87 202.062 153.534 207.612 145.764C209.24 143.485 211.529 141.282 212.561 138.66C213.758 135.619 214.271 132.262 215.011 129.091C216.63 121.927 220.208 115.354 225.345 110.105C237.231 98.1017 255.434 94.6176 271.747 94.6663C291.284 94.7245 336.877 98.9945 350.969 112.947C354.027 115.975 356.1 119.838 355.934 124.235C355.733 129.601 352.521 134.176 348.575 137.576C345.288 140.407 341.425 142.549 337.669 144.69C345.277 168.374 351.332 189.696 345.201 214.775C343.886 220.158 342.255 225.727 339.734 230.683C337.203 235.656 333.785 239.347 328.38 241.13C321.716 243.328 313.582 242.171 306.872 240.682C307.551 248.493 308.056 256.451 310.354 263.993C320.903 267.154 331.152 270.748 340.885 275.968C356.526 284.355 402.385 318.118 413.704 331.163C410.325 333.639 406.484 336.075 403.578 339.104C411.329 347.755 418.268 356.494 425.25 365.767C434.048 377.455 444.928 389.565 444.274 405.201C444.059 410.343 442.19 414.733 438.357 418.211C426.307 429.146 404.86 427.346 389.771 426.465C397.266 446.383 404.453 466.416 411.33 486.555C417.991 507.07 424.541 527.62 430.98 548.205C438.571 571.886 446.943 595.57 453.378 619.582C480.788 619.28 508.279 618.856 535.681 619.537C540.735 604.767 545.234 589.823 550.087 574.988L565.126 530.289C568.833 519.043 571.269 506.806 576.075 496.009C580.425 495.961 586.181 495.27 590.365 496.268C595.026 496.595 599.705 496.55 604.359 496.134L603.963 496.936C602.512 497.569 601.189 497.961 600.102 499.146C601.771 499.312 603.444 499.442 605.12 499.537L605.502 499.579L605.465 498.993C615.464 499.497 702.375 499.535 703.976 498.98C704.115 498.932 705.086 498.082 705.108 498.061C705.208 497.965 705.794 497.265 705.873 497.174C706.856 496.055 707.426 495.734 708.956 495.652C717.218 495.208 754.081 495.326 759.776 497.088C760.877 499.012 759.723 502.564 759.131 504.667C755.343 518.134 750.573 531.586 746.033 544.821L725.269 607.625C721.739 618.001 718.463 628.552 714.295 638.689C728.32 638.427 742.386 638.698 756.42 638.594C758.565 629.834 762.785 612.066 759.277 603.671C757.829 600.205 754.768 596.224 754.512 592.475C755.37 591.555 755.715 591.534 756.977 591.316C762.053 590.44 767.732 590.917 772.879 590.959C784.026 591.049 795.176 591.407 806.321 591.448L854.703 591.441C862.377 591.44 870.751 590.787 878.363 591.696C881.567 592.079 884.276 593.259 886.889 595.141C892.536 599.208 896.122 605.565 897.239 612.376C898.71 621.346 895.999 628.494 890.87 635.64L888.137 638.882L928.104 638.841C935.674 638.771 943.577 638.121 951.109 638.725C952.835 638.863 955.709 639.018 956.945 640.28C960.686 644.098 959.833 662.722 959.291 668.327C958.998 671.36 958.497 673.933 956.521 676.315C954.47 677.212 952.331 677.431 950.117 677.569C938.326 678.305 926.547 677.633 914.752 677.569L851.403 677.483C858.544 703.884 864.543 730.571 871.035 757.135C881.986 801.133 892.624 845.209 902.95 889.357L914.719 938.515C916.501 946.088 919.262 954.525 919.644 962.271C919.968 962.222 920.291 962.171 920.616 962.126C927.389 961.198 988.572 961.902 991.738 962.883C992.588 963.689 993.297 964.194 993.348 965.484C993.401 966.816 992.896 967.429 992.129 968.384C988.948 969.942 984.222 969.529 980.724 969.558L251.352 969.053L96.131 969.527L53.393 969.537C47.1745 969.543 40.8885 969.849 34.681 969.644C33.3503 969.6 31.6312 969.525 30.3946 968.974C29.3593 968.512 28.8297 967.977 28.072 967.171C27.6736 965.803 27.6814 965.767 28.2105 964.443C30.2799 962.653 32.3726 962.21 35.0577 961.91C45.9147 960.695 57.5271 961.979 68.4626 961.971L162.547 962.531C163.958 962.479 165.14 962.227 166.49 961.864C168.121 962.284 169.457 962.457 171.139 962.443C172.638 962.398 174.226 962.446 175.709 962.258C183 961.655 190.457 961.918 197.772 961.943C206.142 961.972 214.55 961.856 222.915 962.122C226.816 961.985 231.99 962.906 235.647 961.614L235.963 960.894C235.086 959.363 233.548 958.707 232.069 957.856C231.437 945.994 237.044 939.704 240.105 928.992C243.531 917.006 244.24 905.185 243.926 892.803C240.268 892.497 237.125 891.7 233.681 890.503C232.44 884.969 232.337 878.983 231.661 873.35C230.63 864.753 229.225 856.155 227.832 847.611C220.508 802.681 211.531 756.776 222.482 711.541C223.715 706.447 226.007 701.519 227.501 696.471C226.589 695.396 224.603 693.417 224.494 692.034C224.293 689.464 226.381 688.599 227.635 686.77C228.401 685.653 227.65 682.59 227.491 681.294C226.977 677.104 226.406 672.937 226.212 668.716C225.961 663.252 226.356 657.004 225.209 651.697C225.108 646.622 224.274 640.529 224.958 635.552C225.217 633.67 227.011 632.156 226.818 630.346C224.725 629.402 220.825 629.731 218.461 629.655L226.452 629.416C226.619 617.832 227.768 606.426 228.97 594.915C217.354 597.379 203.496 594.841 193.22 589.074C180.201 581.767 171.184 569.925 167.303 555.528C163.388 541.004 165.821 525.654 173.413 512.734C180.879 499.834 193.296 490.55 207.78 487.036C221.571 483.65 236.139 485.777 248.388 492.964L249.466 492.579C251.18 488.407 252.06 483.715 253.23 479.357C257.514 463.403 261.895 445.239 255.221 429.268C252.048 421.674 247.502 414.677 244.339 407.052C232.169 377.72 222.957 347.201 224.106 315.126C224.434 305.952 225.436 296.541 228.849 287.949C231.998 280.022 237.008 273.495 243.053 267.561C245.945 264.722 249.683 261.678 251.56 258.042C252.438 256.342 252.763 254.037 253.173 252.17C242.778 257.773 233.697 264.561 221.135 260.83C216.516 259.458 212.165 256.571 209.853 252.249C207.604 248.043 207.886 243.023 209.341 238.61C211.892 230.874 218.325 225.28 223.792 219.563ZM467.769 674.543C468.272 675.514 468.751 676.238 468.839 677.347C467.662 682.103 479.375 734.344 480.991 742.705C488.437 781.251 494.014 820.102 500.689 858.773C502.159 867.287 505.135 875.507 506.525 884.008C506.834 885.896 506.951 887.055 505.963 888.718L502.884 890.148C502.514 891.216 502.449 890.762 502.882 891.683C503.479 892.95 504.116 894.24 505.093 895.262C511.07 901.512 545.621 924.681 553.374 927.314C567.074 931.967 585.532 930.388 593.271 945.48C595.844 950.498 596.74 956.19 595.038 961.585C597.876 961.574 600.746 961.48 603.579 961.611C592.283 962.887 580.572 962.033 569.23 962.048C552.713 962.07 535.8 964.023 519.514 960.635C517.405 961.631 514.622 961.51 512.306 961.666C505.363 962.135 444.12 962.619 442.542 961.744C442.257 961.586 442.051 961.317 441.805 961.103C441.507 961.894 441.731 961.464 441.017 962.325C431.222 961.128 420.873 962.193 411.004 962.191C398.385 962.189 385.771 961.821 373.149 961.926C352.502 962.097 332.31 962.91 311.82 959.692L311.507 960.393C308.567 961.518 304.297 961.173 301.137 961.269C287.253 961.694 273.357 961.034 259.468 960.983C252.825 960.958 245.27 960.442 238.784 961.877C234.037 963.114 227.768 962.617 222.915 962.122C214.55 961.856 206.142 961.972 197.772 961.943C190.457 961.918 183 961.655 175.709 962.258C174.226 962.446 172.638 962.398 171.139 962.443C169.457 962.457 168.121 962.284 166.49 961.864C165.14 962.227 163.958 962.479 162.547 962.531L68.4626 961.971C57.5271 961.979 45.9147 960.695 35.0577 961.91C32.3726 962.21 30.2799 962.653 28.2105 964.443C27.6814 965.767 27.6736 965.803 28.072 967.171C28.8297 967.977 29.3593 968.512 30.3946 968.974C31.6312 969.525 33.3503 969.6 34.681 969.644C40.8885 969.849 47.1745 969.543 53.393 969.537L96.131 969.527L251.352 969.053L980.724 969.558C984.222 969.529 988.948 969.942 992.129 968.384C992.896 967.429 993.401 966.816 993.348 965.484C993.297 964.194 992.588 963.689 991.738 962.883C988.572 961.902 927.389 961.198 920.616 962.126C920.291 962.171 919.968 962.222 919.644 962.271C919.262 954.525 916.501 946.088 914.719 938.515L902.95 889.357C892.624 845.209 881.986 801.133 871.035 757.135C864.543 730.571 858.544 703.884 851.403 677.483L914.752 677.569C926.547 677.633 938.326 678.305 950.117 677.569C952.331 677.431 954.47 677.212 956.521 676.315C958.497 673.933 958.998 671.36 959.291 668.327C959.833 662.722 960.686 644.098 956.945 640.28C955.709 639.018 952.835 638.863 951.109 638.725C943.577 638.121 935.674 638.771 928.104 638.841L888.137 638.882L890.87 635.64C895.999 628.494 898.71 621.346 897.239 612.376C896.122 605.565 892.536 599.208 886.889 595.141C884.276 593.259 881.567 592.079 878.363 591.696C870.751 590.787 862.377 591.44 854.703 591.441L806.321 591.448C795.176 591.407 784.026 591.049 772.879 590.959C767.732 590.917 762.053 590.44 756.977 591.316C755.715 591.534 755.37 591.555 754.512 592.475C754.768 596.224 757.829 600.205 759.277 603.671C762.785 612.066 758.565 629.834 756.42 638.594C742.386 638.698 728.32 638.427 714.295 638.689L531.76 638.489L485.996 638.435C478.968 638.4 471.85 637.896 464.837 638.169C462.898 638.244 460.384 638.23 458.811 639.465C458.853 640.454 458.875 640.943 459.467 641.753C467.655 643.254 483.477 641.988 492.752 642.14C481.601 642.652 470.357 642.404 459.193 642.442C460.916 649.353 464.687 669.583 467.769 674.543ZM236.469 540.455C238.822 537.552 242.409 518.266 242.878 514.009C231.284 508.634 220.741 504.127 207.997 508.983C199.261 512.311 192.686 519.755 189.12 528.253C185.423 537.064 185.145 546.127 188.88 554.987C192.58 563.765 199.022 570.71 207.969 574.215C214.33 576.707 220.417 576.818 227.088 575.689C228.598 575.398 229.75 576.036 231.172 575.24C231.96 572.092 234.77 553.099 233.967 550.96C229.837 557.046 221.949 559.313 215.219 556.347C208.489 553.382 204.838 546.032 206.542 538.877C208.246 531.723 214.818 526.807 222.163 527.194C229.507 527.582 235.526 533.161 236.469 540.455ZM217.921 530.704C211.52 532.556 207.802 539.215 209.584 545.635C211.366 552.056 217.985 555.846 224.424 554.134C228.653 553.009 231.95 549.7 233.06 545.468C234.17 541.236 232.92 536.734 229.788 533.679C226.656 530.625 222.124 529.488 217.921 530.704ZM449.411 892.563C445.066 892.448 440.629 892.509 436.317 891.938C417.927 838.741 390.862 787.477 383.745 730.959C383.087 725.737 382.207 720.335 382.03 715.08C381.911 711.537 382.194 707.907 381.811 704.385C381.195 698.721 377.748 681.334 371.945 679.085C370.713 678.608 368.631 678.858 367.294 678.874C359.443 679.055 351.578 679.036 343.724 679.104C340.247 679.366 336.801 679.433 333.314 679.444C328.879 698.16 322.872 716.449 318.864 735.282C310.541 774.398 305.848 814.579 301.493 854.316C299.941 868.482 296.528 884.746 297.6 898.868C300.725 899.203 304.269 899.334 307.175 900.58C311.439 902.409 315.093 906.781 318.693 909.716C321.291 911.834 324.197 913.652 327.062 915.386C334.176 919.691 342.766 924.183 350.774 926.567C364.582 930.678 376.155 928.623 386.133 941.15C389.415 945.271 393.714 953.334 392.746 958.755C392.634 959.385 392.493 959.552 392.242 960.102C392.148 960.307 392.063 960.514 391.971 960.719C391.904 960.87 391.833 961.019 391.764 961.168C396.41 962.334 431.625 961.657 438.766 961.36L438.956 960.744C438.871 960.617 438.784 960.491 438.702 960.362C435.862 955.93 436.309 948.193 437.541 943.192C438.417 939.636 439.665 938.484 442.735 936.678C443.252 928.181 441.536 913.282 448.44 907.151C450.009 905.758 452.17 905.194 454.147 904.645C452.621 900.604 451.174 896.508 449.411 892.563ZM334.921 675.553C346.76 675.503 358.65 675.246 370.485 675.507C370.395 675.165 351.673 643.904 351.309 643.567L343.955 643.497C342.014 648.527 340.864 654.016 339.345 659.206C337.805 664.467 335.841 669.752 334.69 675.1L334.921 675.553ZM231.082 577.626C230.419 577.949 229.792 578.235 229.098 578.483C221.676 581.145 212.119 579.43 205.169 576.143C196.054 571.832 188.992 564.311 185.598 554.772C182.051 544.803 183.014 533.885 187.658 524.445C191.946 515.73 199.27 508.924 208.52 505.805C221.564 501.407 231.963 505.394 243.618 511.29C246.074 506.603 246.444 501.132 248.961 496.47C235.073 489.264 220.673 485.964 205.375 490.77C192.018 495.044 180.922 504.477 174.555 516.973C168.045 529.503 166.841 544.123 171.213 557.549C175.523 570.802 184.988 581.76 197.472 587.952C207.501 592.965 217.66 593.354 228.611 592.309C230.642 590.509 230.787 580.647 231.082 577.626Z"/>
	<path fill="#FEFEFE" d="M756.42 638.594C758.565 629.834 762.785 612.066 759.277 603.671C757.829 600.205 754.768 596.224 754.512 592.475C755.37 591.555 755.715 591.534 756.977 591.316C762.053 590.44 767.732 590.917 772.879 590.959C784.026 591.049 795.176 591.407 806.321 591.448L854.703 591.441C862.377 591.44 870.751 590.787 878.363 591.696C881.567 592.079 884.276 593.259 886.889 595.141C892.536 599.208 896.122 605.565 897.239 612.376C898.71 621.346 895.999 628.494 890.87 635.64L888.137 638.882L928.104 638.841C935.674 638.771 943.577 638.121 951.109 638.725C952.835 638.863 955.709 639.018 956.945 640.28C960.686 644.098 959.833 662.722 959.291 668.327C958.998 671.36 958.497 673.933 956.521 676.315C954.47 677.212 952.331 677.431 950.117 677.569C938.326 678.305 926.547 677.633 914.752 677.569L851.403 677.483C858.544 703.884 864.543 730.571 871.035 757.135C881.986 801.133 892.624 845.209 902.95 889.357L914.719 938.515C916.501 946.088 919.262 954.525 919.644 962.271C919.968 962.222 920.291 962.171 920.616 962.126C927.389 961.198 988.572 961.902 991.738 962.883C992.588 963.689 993.297 964.194 993.348 965.484C993.401 966.816 992.896 967.429 992.129 968.384C988.948 969.942 984.222 969.529 980.724 969.558L251.352 969.053L96.131 969.527L53.393 969.537C47.1745 969.543 40.8885 969.849 34.681 969.644C33.3503 969.6 31.6312 969.525 30.3946 968.974C29.3593 968.512 28.8297 967.977 28.072 967.171C27.6736 965.803 27.6814 965.767 28.2105 964.443C30.2799 962.653 32.3726 962.21 35.0577 961.91C45.9147 960.695 57.5271 961.979 68.4626 961.971L162.547 962.531C163.958 962.479 165.14 962.227 166.49 961.864C168.121 962.284 169.457 962.457 171.139 962.443C172.638 962.398 174.226 962.446 175.709 962.258C183 961.655 190.457 961.918 197.772 961.943C206.142 961.972 214.55 961.856 222.915 962.122C227.768 962.617 234.037 963.114 238.784 961.877C245.27 960.442 252.825 960.958 259.468 960.983C273.357 961.034 287.253 961.694 301.137 961.269C304.297 961.173 308.567 961.518 311.507 960.393L311.82 959.692C332.31 962.91 352.502 962.097 373.149 961.926C385.771 961.821 398.385 962.189 411.004 962.191C420.873 962.193 431.222 961.128 441.017 962.325C441.731 961.464 441.507 961.894 441.805 961.103C442.051 961.317 442.257 961.586 442.542 961.744C444.12 962.619 505.363 962.135 512.306 961.666C514.622 961.51 517.405 961.631 519.514 960.635C535.8 964.023 552.713 962.07 569.23 962.048C580.572 962.033 592.283 962.887 603.579 961.611L662.28 961.497C669.063 961.48 684.749 960.493 690.242 961.984C692.346 955.378 696.588 949.704 701.616 945.011C714.115 933.344 731.313 929.054 747.914 932.831C756.489 934.781 764.705 938.183 773.275 940.207C779.479 941.671 785.641 942.297 792 942.537C786.241 916.906 779.351 891.506 773.09 865.994C757.307 803.365 742.341 740.533 728.194 677.514L560.497 677.505C530.011 677.521 499.292 678.467 468.839 677.347C468.751 676.238 468.272 675.514 467.769 674.543C485.141 673.207 503.048 674.03 520.488 674.032L612.598 674.012C726.831 674.612 841.067 674.575 955.301 673.902C956.086 663.436 956.741 653.089 955.261 642.64C934.027 641.473 912.572 641.987 891.313 642.037L795.5 642.144L492.752 642.14C483.477 641.988 467.655 643.254 459.467 641.753C458.875 640.943 458.853 640.454 458.811 639.465C460.384 638.23 462.898 638.244 464.837 638.169C471.85 637.896 478.968 638.4 485.996 638.435L531.76 638.489L714.295 638.689C728.32 638.427 742.386 638.698 756.42 638.594ZM848.808 677.627C841.587 677.569 834.365 677.574 827.144 677.642C835.762 723.166 850.28 767.499 858.747 813.035C834.428 813.466 810.083 812.889 785.758 813.111C783.031 803.723 781.098 794.009 778.862 784.483L767.124 734.745L758.632 699.217C756.938 692.123 754.838 684.832 753.906 677.607C746.474 677.442 739.017 677.575 731.583 677.587C736.87 707.199 744.702 736.619 751.951 765.809L777.494 870.553C782.654 891.45 788.444 912.314 793.093 933.323C793.745 936.27 795.303 941.596 794.71 944.532C787.698 950.84 755.34 937.672 746.427 935.997C739.971 934.739 733.336 934.71 726.869 935.911C711.151 938.884 702.354 948.325 693.693 960.961C694.513 961.44 694.995 961.535 695.951 961.59C708 962.289 720.272 961.958 732.339 961.983L795.603 962.005C823.987 962.136 852.371 961.997 880.753 961.587C892.686 961.488 904.759 961.932 916.671 961.454C914.956 955.988 913.933 950.19 912.694 944.594C910.627 935.216 908.513 925.848 906.351 916.491L885.372 829.284L860.181 725.54C856.377 709.703 851.341 693.69 848.808 677.627ZM788.208 809.89L855.166 809.928C848.948 785.639 843.47 761.124 837.619 736.742C832.885 717.017 827.658 697.477 823.666 677.576L757.053 677.588C766.712 721.832 777.906 765.79 788.208 809.89Z"/>
	<path fill="#FEFEFE" d="M792.13 831.558C799.845 831.09 857.97 830.514 861.001 832.793C863.538 834.701 865.12 841.612 866.01 844.657C871.386 863.046 875.281 881.891 879.87 900.49C882.843 912.539 887.962 928.506 889.001 940.519C889.19 942.709 888.711 943.925 887.668 945.835C887.169 945.991 886.908 946.09 886.419 946.188C880.182 947.438 869.831 946.447 863.204 946.415C850.812 946.355 838.293 946.905 825.928 946.127C823.843 945.996 820.964 945.993 819.165 944.884C814.805 937.01 813.168 925.696 811.07 916.944L802.514 880.962C798.981 866.086 794.441 851.003 792.002 835.918C791.748 834.346 791.756 833.113 792.13 831.558ZM794.729 835.005L811.755 905.399C814.771 917.912 817.336 930.482 820.912 942.86C839.025 942.956 857.139 942.872 875.25 942.607L886.193 942.548C881.268 920.322 876.145 898.14 870.826 876.004C867.554 862.355 864.879 848.014 859.568 834.994C852.985 833.949 845.834 834.435 839.171 834.463C827.87 834.495 816.569 834.589 805.269 834.745C801.763 834.845 798.235 835.031 794.729 835.005Z"/>
	<path fill="#88D9CF" d="M311.82 959.692C332.31 962.91 352.502 962.097 373.149 961.926C385.771 961.821 398.385 962.189 411.004 962.191C420.873 962.193 431.222 961.128 441.017 962.325C441.731 961.464 441.507 961.894 441.805 961.103C442.051 961.317 442.257 961.586 442.542 961.744C444.12 962.619 505.363 962.135 512.306 961.666C514.622 961.51 517.405 961.631 519.514 960.635C535.8 964.023 552.713 962.07 569.23 962.048C580.572 962.033 592.283 962.887 603.579 961.611L662.28 961.497C669.063 961.48 684.749 960.493 690.242 961.984C691.821 962.117 692.381 961.729 693.693 960.961C694.513 961.44 694.995 961.535 695.951 961.59C708 962.289 720.272 961.958 732.339 961.983L795.603 962.005C823.987 962.136 852.371 961.997 880.753 961.587C892.686 961.488 904.759 961.932 916.671 961.454L919.644 962.271C919.968 962.222 920.291 962.171 920.616 962.126C927.389 961.198 988.572 961.902 991.738 962.883C992.588 963.689 993.297 964.194 993.348 965.484C993.401 966.816 992.896 967.429 992.129 968.384C988.948 969.942 984.222 969.529 980.724 969.558L251.352 969.053L96.131 969.527L53.393 969.537C47.1745 969.543 40.8885 969.849 34.681 969.644C33.3503 969.6 31.6312 969.525 30.3946 968.974C29.3593 968.512 28.8297 967.977 28.072 967.171C27.6736 965.803 27.6814 965.767 28.2105 964.443C30.2799 962.653 32.3726 962.21 35.0577 961.91C45.9147 960.695 57.5271 961.979 68.4626 961.971L162.547 962.531C163.958 962.479 165.14 962.227 166.49 961.864C168.121 962.284 169.457 962.457 171.139 962.443C172.638 962.398 174.226 962.446 175.709 962.258C183 961.655 190.457 961.918 197.772 961.943C206.142 961.972 214.55 961.856 222.915 962.122C227.768 962.617 234.037 963.114 238.784 961.877C245.27 960.442 252.825 960.958 259.468 960.983C273.357 961.034 287.253 961.694 301.137 961.269C304.297 961.173 308.567 961.518 311.507 960.393L311.82 959.692Z"/>
	<path d="M804.202 595.644C810.141 600.681 814.22 606.309 814.789 614.373C815.269 621.187 812.847 627.325 808.288 632.325C807.299 633.413 806.243 634.438 805.127 635.394C804.915 635.58 804.729 635.801 804.492 635.954C803.563 636.555 803.118 636.377 802.169 636.077C802.277 635.293 802.296 634.929 802.141 634.13C797.683 633.746 792.216 636.045 787.969 634.501L787.918 633.951C790.237 623.116 788.631 609.077 787.129 598.184L788.023 598.136C789.752 597.294 792.423 596.926 794.25 597.637C795.284 598.039 795.294 598.196 795.947 598.983L796.224 601.004L797.185 600.1C797.111 599.344 797.149 598.771 797.228 598.023C798.591 597.478 799.698 598.197 801.065 598.635C802.603 597.894 803.229 597.022 804.202 595.644Z"/>
	<path fill="#88D9CF" d="M797.185 600.1C797.111 599.344 797.149 598.771 797.228 598.023C798.591 597.478 799.698 598.197 801.065 598.635C806.072 602.307 809.853 606.464 810.965 612.825C811.886 618.032 810.627 623.388 807.484 627.64C806.003 629.647 802.557 633.209 799.941 633.476C799.779 633.493 799.616 633.466 799.453 633.461C798.655 632.462 798.881 631.451 798.987 630.216C799.865 620.047 799.726 610.072 797.185 600.1Z"/>
	<path fill="#88D9CF" d="M788.023 598.136C789.752 597.294 792.423 596.926 794.25 597.637C795.284 598.039 795.294 598.196 795.947 598.983L796.224 601.004C796.896 611.905 798.095 622.529 797.576 633.481L789.498 633.53C791.234 621.427 790.899 610.009 788.023 598.136Z"/>
	<path fill="#2D303F" d="M768.968 633.896L770.308 634.05L778.375 633.761L779.729 634.023C782.4 633.753 785.264 633.462 787.918 633.951L787.969 634.501C792.216 636.045 797.683 633.746 802.141 634.13C802.296 634.929 802.277 635.293 802.169 636.077C803.118 636.377 803.563 636.555 804.492 635.954C804.729 635.801 804.915 635.58 805.127 635.394C808.439 636.557 886.687 636.78 890.87 635.64L888.137 638.882C878.389 638.482 868.528 638.672 858.767 638.591C845.887 638.484 832.955 638.18 820.08 638.495C801.807 638.941 780.007 640.075 762.004 638.718C760.948 638.639 760.11 638.517 759.234 637.854C758.582 637.36 758.716 637.042 758.596 636.296C759.141 635.379 759.423 635.01 760.39 634.544C761.472 634.568 761.537 634.547 762.414 634.047L768.968 633.896Z"/>
	<path fill="#88D9CF" d="M777.294 597.3C778.467 596.791 778.599 596.959 779.852 597.309C781.997 597.374 785.27 597.065 787.129 598.184C788.631 609.077 790.237 623.116 787.918 633.951C785.264 633.462 782.4 633.753 779.729 634.023L778.375 633.761C779.728 621.432 778.741 609.549 777.294 597.3Z"/>
	<path d="M777.294 597.3C778.467 596.791 778.599 596.959 779.852 597.309L778.751 598.209C780.806 609.99 781.474 622.147 779.729 634.023L778.375 633.761C779.728 621.432 778.741 609.549 777.294 597.3Z"/>
	<path fill="#88D9CF" d="M770.343 598.316C772.49 597.617 775.022 597.833 777.294 597.3C778.741 609.549 779.728 621.432 778.375 633.761L770.308 634.05L768.968 633.896C770.68 622.211 770.148 610.231 769.185 598.516L770.343 598.316Z"/>
	<path d="M769.185 598.516L770.343 598.316C771.671 610.543 771.546 621.836 770.308 634.05L768.968 633.896C770.68 622.211 770.148 610.231 769.185 598.516Z"/>
	<path fill="#03011B" d="M761.502 598.833C759.875 598.217 758.173 597.665 757.351 595.993C756.972 595.222 757.19 595.071 757.405 594.308C758.239 593.677 758.977 593.296 759.987 593.045C766.119 591.519 791.834 591.996 798.221 593.202C800.484 593.629 802.222 594.493 804.202 595.644C803.229 597.022 802.603 597.894 801.065 598.635C799.698 598.197 798.591 597.478 797.228 598.023C797.149 598.771 797.111 599.344 797.185 600.1L796.224 601.004L795.947 598.983C795.294 598.196 795.284 598.039 794.25 597.637C792.423 596.926 789.752 597.294 788.023 598.136L787.129 598.184C785.27 597.065 781.997 597.374 779.852 597.309C778.599 596.959 778.467 596.791 777.294 597.3C775.022 597.833 772.49 597.617 770.343 598.316L769.185 598.516C766.945 597.867 764.393 598.293 762.086 598.437L761.502 598.833Z"/>
	<path fill="#88D9CF" d="M762.086 598.437C764.393 598.293 766.945 597.867 769.185 598.516C770.148 610.231 770.68 622.211 768.968 633.896L762.414 634.047C764.611 622.51 765.591 609.803 762.086 598.437Z"/>
	<path d="M761.502 598.833L762.086 598.437C765.591 609.803 764.611 622.51 762.414 634.047C761.537 634.547 761.472 634.568 760.39 634.544C764.241 628.229 762.739 606.16 761.502 598.833Z"/>
	<path fill="#03011B" d="M852.082 623.74C860.612 623.69 869.559 623.26 878.036 624.171C879.718 624.352 881.81 624.469 882.934 625.884L882.657 627.15C880.423 628.976 859.931 628.323 855.675 628.395C848.084 628.411 831.944 629.683 825.419 627.542C824.736 626.364 825.012 626.1 825.29 624.747C827.851 623.225 847.665 623.81 852.082 623.74Z"/>
	<path fill="#03011B" d="M876.519 613.774C880.37 613.613 882.584 613.406 885.975 615.625L885.212 616.885L886.21 615.916L885.389 616.853C875.875 619.344 847.75 617.928 836.125 617.913C833.852 617.981 830.979 618.358 828.825 617.569C827.785 617.188 826.799 616.717 826.375 615.7C826.474 615.592 826.559 615.469 826.672 615.376C829.666 612.909 870.078 613.846 876.519 613.774Z"/>
	<path d="M826.05 603.502C835.707 603.532 867.655 601.942 874.808 604.116C875.568 605.309 875.346 606.089 875.323 607.482C866.407 607.483 857.491 607.598 848.577 607.828C841.948 607.965 833.57 609.061 827.127 607.395C826.126 606.395 826.201 604.841 826.05 603.502Z"/>
	<path fill="#580C0D" d="M817.193 594.21C831.675 595.448 846.458 595.381 860.986 595.078C867.136 594.95 873.349 594.406 879.492 594.506C880.84 594.528 882.17 594.505 883.274 595.362L883.374 596.569C870.087 597.066 856.793 597.341 843.497 597.394C835.243 597.399 826.406 597.678 818.257 596.337C817.242 595.527 817.353 595.515 817.193 594.21Z"/>
	<path fill="#FEFEFE" d="M605.465 498.993C615.464 499.497 702.375 499.535 703.976 498.98C704.115 498.932 705.086 498.082 705.108 498.061C705.208 497.965 705.794 497.265 705.873 497.174C706.856 496.055 707.426 495.734 708.956 495.652C717.218 495.208 754.081 495.326 759.776 497.088C760.877 499.012 759.723 502.564 759.131 504.667C755.343 518.134 750.573 531.586 746.033 544.821C745.834 545.04 745.63 545.254 745.436 545.477C741.877 549.567 742.535 555.676 739.352 559.531C738.609 558.974 738.628 558.581 738.493 557.691C738.305 556.457 738.522 555.148 738.66 553.915L738.218 553.173C734.21 563.396 731.233 574.331 727.794 584.777L711.076 634.325C703.394 633.623 695.522 633.852 687.809 633.803C675.167 633.679 662.525 633.662 649.883 633.749L545.015 634.09C556.288 600.982 566.835 567.56 577.791 534.339C580.183 527.083 585.542 504.505 589.721 499.488C590.277 498.316 589.403 497.824 590.365 496.268C595.026 496.595 599.705 496.55 604.359 496.134L603.963 496.936C602.512 497.569 601.189 497.961 600.102 499.146C601.771 499.312 603.444 499.442 605.12 499.537L605.502 499.579L605.465 498.993Z"/>
	<path fill="#2D303F" d="M605.465 498.993C615.464 499.497 702.375 499.535 703.976 498.98C704.115 498.932 705.086 498.082 705.108 498.061C705.208 497.965 705.794 497.265 705.873 497.174C706.856 496.055 707.426 495.734 708.956 495.652C717.218 495.208 754.081 495.326 759.776 497.088C760.877 499.012 759.723 502.564 759.131 504.667C755.343 518.134 750.573 531.586 746.033 544.821C745.834 545.04 745.63 545.254 745.436 545.477C741.877 549.567 742.535 555.676 739.352 559.531C738.609 558.974 738.628 558.581 738.493 557.691C738.305 556.457 738.522 555.148 738.66 553.915L738.218 553.173C739.579 547.059 742.188 540.855 744.226 534.926C748.224 523.455 752.113 511.947 755.893 500.402C741.824 499.025 727.163 500.14 712.996 499.979C677.167 499.384 641.333 499.251 605.502 499.579L605.465 498.993Z"/>
	<path fill="#2D303F" d="M604.359 496.134L603.963 496.936C602.512 497.569 601.189 497.961 600.102 499.146C601.771 499.312 603.444 499.442 605.12 499.537C600.727 500.325 594.082 500.527 589.721 499.488C590.277 498.316 589.403 497.824 590.365 496.268C595.026 496.595 599.705 496.55 604.359 496.134Z"/>
	<path d="M658.764 535.571C661.966 535.42 664.698 535.467 667.684 536.81C671.324 538.446 673.77 541.274 675.112 545.01C678.481 554.392 675.891 566.005 671.685 574.684C666.801 584.761 658.74 593.113 648.075 596.881C645.091 597.539 642.776 597.621 639.86 596.586C636.402 595.359 634.06 592.749 632.626 589.428C628.69 580.312 630.5 568.986 634.218 560.118C639.102 548.472 647.158 540.393 658.764 535.571Z"/>
	<path fill="#88D9CF" d="M661.59 539.536C662.936 539.573 664.24 539.908 665.463 540.473C668.342 541.803 670.366 544.191 671.411 547.157C674.155 554.949 671.896 564.883 668.469 572.107C663.728 582.102 656.143 589.561 645.709 593.308C644.095 593.174 642.552 592.981 641.059 592.301C638.174 590.988 636.151 588.386 635.17 585.418C632.37 576.942 635.724 565.296 639.801 557.739C644.759 548.549 651.546 542.516 661.59 539.536Z"/>
	<path fill="#FEFEFE" d="M233.967 550.96C229.837 557.046 221.949 559.313 215.219 556.347C208.489 553.382 204.838 546.032 206.542 538.877C208.246 531.723 214.818 526.807 222.163 527.194C229.507 527.582 235.526 533.161 236.469 540.455C236.945 544.145 236.055 547.881 233.967 550.96ZM224.424 554.134C228.653 553.009 231.95 549.7 233.06 545.468C234.17 541.236 232.92 536.734 229.788 533.679C226.656 530.625 222.124 529.488 217.921 530.704C211.52 532.556 207.802 539.215 209.584 545.635C211.366 552.056 217.985 555.846 224.424 554.134Z"/>
	<path fill="#FEFEFE" d="M228.97 594.915C217.354 597.379 203.496 594.841 193.22 589.074C180.201 581.767 171.184 569.925 167.303 555.528C163.388 541.004 165.821 525.654 173.413 512.734C180.879 499.834 193.296 490.55 207.78 487.036C221.571 483.65 236.139 485.777 248.388 492.964C248.95 493.681 249.492 493.943 249.374 494.889C249.257 495.818 249.315 495.471 248.961 496.47C235.073 489.264 220.673 485.964 205.375 490.77C192.018 495.044 180.922 504.477 174.555 516.973C168.045 529.503 166.841 544.123 171.213 557.549C175.523 570.802 184.988 581.76 197.472 587.952C207.501 592.965 217.66 593.354 228.611 592.309C228.818 593.235 228.945 593.957 228.97 594.915Z"/>
	<path fill="#FEFEFE" d="M231.082 577.626C230.419 577.949 229.792 578.235 229.098 578.483C221.676 581.145 212.119 579.43 205.169 576.143C196.054 571.832 188.992 564.311 185.598 554.772C182.051 544.803 183.014 533.885 187.658 524.445C191.946 515.73 199.27 508.924 208.52 505.805C221.564 501.407 231.963 505.394 243.618 511.29L242.878 514.009C231.284 508.634 220.741 504.127 207.997 508.983C199.261 512.311 192.686 519.755 189.12 528.253C185.423 537.064 185.145 546.127 188.88 554.987C192.58 563.765 199.022 570.71 207.969 574.215C214.33 576.707 220.417 576.818 227.088 575.689C228.491 575.867 229.606 575.747 230.611 576.906C230.799 577.122 230.925 577.386 231.082 577.626Z"/>
	<path fill="#FEFEFE" d="M441.805 961.103C441.623 959.405 441.198 957.492 441.86 955.882C445.926 954.709 451.16 955.275 455.412 955.291C474.863 955.364 500.868 956.053 519.514 960.635C517.405 961.631 514.622 961.51 512.306 961.666C505.363 962.135 444.12 962.619 442.542 961.744C442.257 961.586 442.051 961.317 441.805 961.103Z"/>
	<path fill="#FEFEFE" d="M238.784 961.877C237.87 960.555 236.921 959.404 236.659 957.777C236.755 957.674 236.838 957.557 236.948 957.468C239.737 955.197 249.647 956.04 253.202 956.025C272.965 955.942 292.324 956.141 311.82 959.692L311.507 960.393C308.567 961.518 304.297 961.173 301.137 961.269C287.253 961.694 273.357 961.034 259.468 960.983C252.825 960.958 245.27 960.442 238.784 961.877Z"/>
	<path fill="#88D9CF" d="M369.369 503.718C370.224 503.596 369.757 503.544 370.714 504.138C372.107 508.959 370.014 516.892 369.357 521.931C367.792 533.936 366.375 546.015 363.849 557.863C360.362 574.215 355.45 590.291 350.725 606.32L330.583 674.498C324.912 693.726 319.076 712.92 314.923 732.549C305.026 779.33 299.363 827.008 294.746 874.565C281.377 874.845 268.004 874.843 254.635 874.558C253.958 868.572 252.906 862.58 252.031 856.617C248.019 826.562 245.422 796.008 246.719 765.664C247.516 747.015 250.085 728.558 251.211 709.937C246.509 705.097 240.858 701.111 235.522 696.987C241.804 693.771 249.413 692.295 256.161 690.232C257.934 667.39 259.322 644.526 261.996 621.763C265.121 595.164 269.659 568.812 273.687 542.345C294.977 538.03 311.416 525.187 324.813 508.558C339.676 508.58 354.699 505.809 369.369 503.718Z"/>
	<path d="M251.494 698.64C258.336 700.709 295.997 734.109 300.614 741.124C301.442 742.382 300.919 743.878 300.641 745.256C298.779 744.962 297.829 744.451 296.372 743.257C290.269 738.253 285.249 731.919 279.348 726.659C273.123 721.11 266.621 715.835 260.253 710.45C257.502 708.124 253.941 705.7 251.703 702.909C250.763 701.737 251.276 700.008 251.494 698.64Z"/>
	<path fill="#88D9CF" d="M405.25 495.523C406.33 495.452 407.077 495.364 407.95 496.1C410.996 498.666 418.36 523.635 420.222 529.202C434.646 571.084 447.303 613.553 458.161 656.497C469.914 704.373 478.451 753.069 486.628 801.658L493.878 844.351C495.603 854.141 497.898 864.124 498.53 874.047C484.598 876.833 468.778 875.787 454.575 876.005C445.486 856.369 437.702 836.38 430.017 816.169C417.373 783.09 408.938 748.552 404.908 713.369C409.663 717.822 423.826 731.688 429.202 733.024C429.914 733.201 430.212 732.813 430.805 732.473L430.999 731.242C429.362 727.665 409.947 712.444 405.097 708.251C400.985 691.872 393.18 677.318 385.909 662.224C376.165 641.997 366.048 621.915 356.611 601.549C361.124 587.409 365.051 573.089 368.382 558.625C376.849 557.697 385.963 556.992 393.921 553.787C395.533 553.137 397.024 552.606 397.749 550.916L397.285 549.766C396.799 549.485 396.357 549.111 395.829 548.921C393.791 548.188 373.329 553.283 369.201 553.839L370.833 542.796C374.032 542.123 378.162 541.66 380.785 539.589C386.308 535.23 387.621 507.765 388.665 500.148L405.25 495.523Z"/>
	<path fill="#FEFEFE" d="M248.048 270.397C251.326 270.749 254.668 271.789 257.705 273.049C287.368 285.359 306.273 322.951 317.806 351.332C311.611 354.336 305.921 358.363 299.889 361.683C294.552 364.621 288.899 366.948 283.558 369.892C277.598 373.178 272.066 377.124 266.496 381.018C263.715 376.977 255.228 363.195 251.809 360.568C250.795 359.789 249.965 359.842 248.785 360.019L248.271 360.989C248.514 363.125 249.689 364.803 250.815 366.58C255.375 373.777 260.987 380.221 265.916 387.155C270.478 393.573 273.934 401.574 279.673 406.989L282.845 402.921C291.974 410.015 299.414 419.404 308.006 427.21C316.422 434.856 330.567 448.842 342.596 447.967C355.319 447.042 366.61 431.947 374.393 423.252C377.899 423.967 381.383 424.452 384.936 424.866C385.61 427.402 386.499 429.882 387.332 432.37C395.26 451.322 402.334 470.621 408.532 490.208C370.07 501.08 331.225 505.832 291.276 503.691C278.352 502.998 265.468 501.966 253.014 498.203C257.494 479.144 262.522 458.914 260.207 439.218C258.631 425.821 251.78 413.435 246.625 401.134C233.877 370.715 224.889 335.81 229.391 302.679C231.297 288.647 236.821 278.986 248.048 270.397Z"/>
	<path fill="#2D303F" d="M261.857 99.3591C266.207 97.7015 273.164 98.9551 277.811 99.2592C297.054 100.519 320.758 101.999 338.492 110.021C343.266 112.18 349.09 115.746 351.065 120.816C352.051 123.345 351.701 125.993 350.506 128.38C346.603 136.178 336.407 141.252 328.439 143.657C313.911 148.044 297.655 147.599 283.033 143.886C279.665 143.031 276.239 142.039 273.006 140.756C268.753 139.067 256.014 131.664 252.067 132.833C251.758 133.898 251.632 133.554 252.059 134.381C255.05 140.176 273.879 145.74 280.39 147.908C277.726 155.128 275.222 162.406 272.88 169.737C270.664 176.678 268.776 183.678 265.797 190.349C260.736 186.361 254.752 181.821 247.891 182.671C244.462 183.096 241.456 184.942 239.423 187.721C236.588 191.594 235.932 196.693 236.74 201.334C237.831 207.615 241.46 213.17 246.773 216.694C249.604 218.569 252.819 219.749 256.149 220.361C255.858 229.825 256.963 241.473 249.479 248.51C243.444 254.185 234.771 258.176 226.376 257.662C221.486 257.363 218.055 255.601 214.836 251.98C213.143 249.259 212.246 247.024 212.516 243.763C213.282 234.516 222.392 227.116 228.938 221.563C227.881 215.648 221.102 211.859 217.753 207.194C216.087 205.399 214.697 203.429 213.355 201.385C205.937 190.094 201.706 175.864 204.649 162.432C206.646 153.315 211.267 145.822 219.163 140.718L219.038 140.183C218.686 138.824 218.318 137.39 218.145 135.993C217.301 129.198 220.928 122.018 225.026 116.797C234.32 104.955 247.49 101.117 261.857 99.3591Z"/>
	<path fill="#FEFEFE" d="M219.163 140.718C219.67 141.926 219.638 142.085 219.082 143.352C217.644 146.631 215.235 149.741 213.435 152.861C207.828 162.581 206.326 173.076 210.057 183.74C212.73 191.384 218.454 198.788 217.753 207.194C216.087 205.399 214.697 203.429 213.355 201.385C205.937 190.094 201.706 175.864 204.649 162.432C206.646 153.315 211.267 145.822 219.163 140.718Z"/>
	<path fill="#FEFEFE" d="M261.857 99.3591L262.043 99.9622C258.859 102.067 253.884 102.444 250.245 103.821C234.922 109.62 226.001 120.688 222.795 136.518C222.495 137.996 222.641 139.379 221.39 140.276L219.038 140.183C218.686 138.824 218.318 137.39 218.145 135.993C217.301 129.198 220.928 122.018 225.026 116.797C234.32 104.955 247.49 101.117 261.857 99.3591Z"/>
	<path fill="#FEFEFE" d="M228.938 221.563C229.434 228.86 220.456 233.942 217.479 240.174C215.699 243.901 215.656 248.02 214.836 251.98C213.143 249.259 212.246 247.024 212.516 243.763C213.282 234.516 222.392 227.116 228.938 221.563Z"/>
	<path fill="#FEFEFE" d="M332.059 147.594C332.472 147.516 333.025 147.592 333.449 147.606C336.353 151.38 338.227 161.686 338.198 166.374C338.18 169.25 337.255 172.883 337.803 175.653C338.327 178.304 341.494 180.444 343.566 181.794C344.844 196.408 343.321 221.241 333.31 232.91C330.206 236.528 326.346 238.112 321.635 238.346C305.768 239.133 278.62 224.158 267.255 213.66C263.816 212.535 256.731 214.862 253.028 215.464C247.761 211.851 242.845 207.861 241.191 201.376C240.196 197.475 240.945 193.579 243.066 190.177C249.831 179.32 261.226 196.632 267.969 193.803C269.379 193.212 270.169 191.583 270.791 190.291C273.107 185.482 274.378 179.765 275.943 174.666C278.521 166.268 281.202 157.95 284.486 149.798C300.856 151.836 315.971 151.527 332.059 147.594Z"/>
	<path d="M329.994 166.666C330.352 166.737 330.981 166.845 331.304 166.985C333.934 168.13 332.959 176.506 333.624 179.298C334.663 183.656 340.764 186.813 342.457 191.05C342.94 192.26 342.751 192.899 342.308 194.066C341.359 193.878 340.37 193.693 339.48 193.306C335.11 191.409 332.074 185.82 330.466 181.55C328.585 176.558 327.7 171.655 329.994 166.666Z"/>
	<path d="M247.813 192.44C251.588 193.153 254.511 195.256 256.933 198.197C258.539 200.146 260.239 202.873 259.954 205.485L259.144 206.087C257.556 205.742 256.698 204.491 255.651 203.344L254.994 202.671C253.284 203.529 252.687 205.515 250.833 205.911C249.71 203.825 250.604 199.504 250.782 197.136C249.937 197.084 249.091 197.018 248.246 196.974C246.591 196.89 245.768 196.847 244.323 195.97L244.157 195.07C245.047 193.626 246.348 193.152 247.813 192.44Z"/>
	<path d="M309.755 170.612C310.473 170.769 311.229 170.907 311.912 171.196C313.69 171.946 315.003 173.775 315.563 175.572C316.648 179.056 315.607 182.285 313.899 185.324C313.295 185.173 312.698 185.03 312.115 184.808C310.34 184.132 308.908 182.871 308.201 181.082C306.813 177.57 308.411 173.855 309.755 170.612Z"/>
	<path d="M306.09 153.048C307.592 152.988 308.436 152.986 309.863 153.574L310.234 154.506C307.953 157.612 298.288 159.705 294.137 162.914L293.552 163.374C293.225 163.69 292.903 164.013 292.556 164.307C291.647 165.079 291.57 165.378 290.37 165.286C289.987 164.144 290.025 163.636 290.597 162.543C293.602 156.802 300.234 154.539 306.09 153.048Z"/>
	<path d="M317.505 209.28C321.605 210.45 325.632 211.55 329.89 211.97C331.479 212.126 335.114 211.763 336.422 212.302C336.765 212.443 337.001 212.765 337.29 212.997L336.861 214.564C335.433 215.072 333.965 215.463 332.473 215.731C328.388 216.458 322.602 216.353 319.259 213.68C317.632 212.38 317.659 211.194 317.505 209.28Z"/>
	<path fill="#FEFEFE" d="M312.626 269.355C338.524 276.936 358.66 292.442 379.786 308.472C389.152 315.578 398.665 322.534 407.526 330.269C399.549 335.344 391.984 340.717 385.019 347.14C380.961 341.16 377.303 334.857 373.31 328.821C366.211 318.046 358.618 307.604 350.555 297.53C347.353 293.509 343.997 288.657 339.882 285.545C338.929 284.824 338.325 284.381 337.105 284.54L336.825 285.448C337.082 286.806 337.394 288.069 338.135 289.257C341.08 293.979 345.774 298.5 349.309 302.875C354.086 308.787 358.432 315.078 362.844 321.263C371.902 334.662 380.443 348.235 388.19 362.437C377.39 367.47 367.481 374.496 356.904 380.028C350.619 368.636 332.816 356.287 321.663 349.105C312.774 328.267 302.397 309.029 288.744 290.915C294.748 294.665 300.883 298.139 307.407 300.91C311.555 302.672 319.364 306.098 323.681 303.853C324.906 303.215 325.525 302.244 325.868 300.941C327.694 294.003 316.22 276.009 312.626 269.355Z"/>
	<path fill="#88D9CF" d="M251.402 502.777C259.871 504.297 268.362 505.696 276.87 506.975C267.328 548.441 260.453 590.477 256.288 632.823C254.432 650.581 254.385 668.847 251.748 686.467C250.709 687.616 249.876 687.557 248.39 687.892C243.457 689.129 239.289 691.239 234.55 692.763C233.326 693.157 232.755 693.173 231.654 692.55C230.689 689.08 232.716 685.115 233.899 681.898C229.921 668.139 231.051 654.564 231.418 640.405C232.633 593.401 238.257 547.993 251.402 502.777Z"/>
	<path fill="#FEFEFE" d="M403.842 360.048C405.054 359.93 406.537 359.821 407.738 360.033C409.054 360.266 409.53 360.881 410.289 361.895C410.43 362.734 410.521 363.436 410.356 364.282C409.183 370.311 403.663 377.04 400.244 382.09C388.974 398.735 366.679 430.344 349.903 441.131C346.644 443.226 342.798 444.889 338.878 443.88C327.856 441.043 290.494 407.171 284.076 396.707C284.937 394.094 285.626 391.884 285.604 389.086C284.644 389.057 283.77 389.161 282.82 389.299C279.767 391.358 279.445 394.96 278.599 398.307C275.924 393.858 272.857 389.615 269.929 385.329C276.5 378.587 285.632 372.391 294.597 369.438C295.269 373.282 296.029 377.047 297.008 380.826L300.377 383.285C300.717 385.315 300.86 387.386 301.057 389.434C306.92 394.256 307.508 402.641 314.548 406.426C316.62 407.541 318.838 407.91 321.11 407.206C327.008 405.378 331.772 398.279 334.486 393.078L340.013 395.402C347.158 392.531 353.627 387.829 360.096 383.699C374.017 374.812 388.174 365.559 403.842 360.048Z"/>
	<path fill="#FEFEFE" d="M486.6 891.967C490.885 892.433 494.789 892.426 499.052 891.791C501.542 896.302 504.186 900.219 507.678 904.024C505.457 906.942 503.488 909.964 501.536 913.067C505.363 911.594 508.707 910.126 511.854 907.406L517.867 911.23C516.995 911.85 515.555 912.782 514.986 913.736C514.351 914.798 514.487 915.561 514.768 916.702L515.769 917.215C517.874 916.962 519.914 915.598 521.776 914.619C523.744 915.086 525.468 916.919 527.001 918.197C525.721 919.209 524.322 920.112 522.982 921.047L527.143 926.081C527.81 924.562 528.481 923.308 529.466 921.969C530.483 921.533 530.682 921.314 531.829 921.439C533.438 921.615 535.058 921.941 536.114 923.252C536.25 925.096 535.022 926.632 534.169 928.261C534.659 929.369 534.668 929.329 535.774 929.839C537.82 929.589 540.003 927.635 541.787 926.568C542.175 926.614 542.552 926.635 542.916 926.81C546.548 928.563 544.201 930.917 545.529 933.511C547.129 933.952 548.572 933.265 550.091 932.768C550.341 932.686 550.589 932.597 550.839 932.516C559.571 929.675 579.695 939.012 587.492 943.02C582.396 944.177 577.323 944.866 572.122 945.329C557.091 946.554 541.949 949.003 526.842 947.125C497.129 943.431 478.08 930.286 445.878 936.217C446.75 926.934 447.237 918.446 451.413 909.969C457.529 910.728 463.721 910.643 469.815 909.718C475.093 908.882 482.626 907.364 485.807 902.664C488.213 899.108 487.32 895.884 486.6 891.967Z"/>
	<path fill="#FEFEFE" d="M301.46 904.084C303.669 903.993 305.242 903.864 306.971 905.393C307.679 908.882 304.017 911.728 302.991 914.863C305.871 914.36 308.012 912.081 310.123 910.224C312.513 911.38 314.806 912.804 317.113 914.12C316.071 915.142 314.904 916.327 314.131 917.572C313.485 918.615 313.107 919.76 313.396 920.971L314.437 921.268C316.672 920.614 318.196 918.624 319.789 917.002L325.81 920.984C324.997 922.176 324.062 923.499 323.488 924.817C323.022 925.887 322.993 926.657 323.355 927.757L324.41 927.824C326.657 926.917 327.994 924.987 329.542 923.197C331.646 923.82 333.667 924.689 335.703 925.503C334.33 927.144 332.73 928.68 332.747 930.936C333.523 931.648 333.24 931.704 334.138 931.617C336.572 931.381 338.312 929.015 339.88 927.343L345.478 929.408C344.557 930.771 343.828 931.766 343.62 933.452C343.927 934.058 343.877 934.405 344.603 934.568C346.781 935.057 349.157 933.396 351.006 932.405C363.837 933.106 373.839 935.019 383.203 944.341C375.307 944.959 367.374 946.079 359.501 946.971C344.357 949.103 327.998 948.911 313.054 945.623C285.659 939.595 272.746 930.037 242.997 935.853C244.095 930.422 245.25 924.493 247.723 919.49C255.233 904.302 272.949 908.838 286.676 907.649C291.875 907.199 296.536 905.76 301.46 904.084Z"/>
	<path fill="#88D9CF" d="M230.978 700.69C236.839 703.405 241.587 707.381 246.629 711.345C246.254 724.383 244.306 737.311 243.347 750.31C241.922 770.445 241.765 790.65 242.877 810.805C243.431 820.923 244.341 831.018 245.607 841.072C246.55 848.592 250.585 867.531 249.535 873.909C248.475 874.707 247.574 874.615 246.285 874.774L236.849 875C229.382 819.171 210.798 755.839 230.978 700.69Z"/>
	<path fill="#88D9CF" d="M382.222 693.225C384.856 694.222 395.807 706.247 400.372 709.608C406.715 768.287 425.376 822.384 449.708 875.882C446.137 876.248 441.893 877.061 438.35 876.473C436.591 876.182 436.106 875.543 435.096 874.125C418.562 830.309 398.858 787.266 389.706 741.084C387.585 730.383 386.427 719.642 385.305 708.802C386.797 710.744 388.306 713.005 390.13 714.638C391.34 715.721 393.086 716.968 394.715 716.882C395.765 712.859 386.835 703.368 384.679 699.748C383.59 697.919 382.982 695.972 382.415 693.938L382.222 693.225Z"/>
	<path fill="#FEFEFE" d="M407.475 378.497C415.49 378.458 423.476 378.273 431.196 380.765C435.885 386.366 439.742 393.31 440.228 400.733C440.549 405.645 439.148 410.413 435.853 414.12C429.524 421.241 419.208 422.57 410.257 423.119C399.041 423.79 387.958 421.836 376.915 420.135C387.941 406.892 398.147 392.987 407.475 378.497Z"/>
	<path fill="#FEFEFE" d="M266.979 215.93C268.935 216.966 276.321 228.729 278.489 231.148C285.339 238.789 294.62 244.794 303.339 250.104C304.83 265.002 311.435 274.762 313.07 288.214C310.758 287.229 308.534 286.023 306.295 284.884C300.393 282.045 294.746 278.258 289.029 275.041C278.199 268.947 267.272 263.956 255.459 260.07C259.099 246.492 260.596 232.764 261.569 218.777L266.979 215.93Z"/>
	<path fill="#FEFEFE" d="M258.34 938.212C277.982 936.5 295.657 947.332 314.498 950.594C337.667 954.605 362.172 951.284 385.318 948.406C386.562 951.32 387.433 954.39 388.388 957.409C382.113 957.774 375.924 958.47 369.625 958.495C354.411 958.775 339.193 958.137 324.055 956.585C310.286 955.081 296.611 952.659 282.777 951.79C267.026 950.8 251.06 952.249 235.324 953.066C236.501 948.82 238.148 944.987 240.203 941.099C246.251 939.611 252.118 938.603 258.34 938.212Z"/>
	<path fill="#FEFEFE" d="M457.047 939.202C480.453 936.875 500.639 948.45 523.239 951.228C545.109 953.916 567.707 949.839 589.51 947.813L592.254 957.487L579.484 958.022C562.492 958.47 545.164 958.796 528.219 957.205C508.946 955.396 490.059 951.655 470.627 950.75C460.678 950.287 450.802 951.302 440.861 951.538C441.204 948.456 441.621 945.456 442.256 942.419C447.289 940.45 451.667 939.676 457.047 939.202Z"/>
	<path fill="#88D9CF" d="M354.456 609.222C358.724 613.042 392.36 685.559 396.06 694.413C397.258 697.279 398.107 700.064 398.749 703.1L394.905 699.682C375.039 680.17 361.287 654.974 348.61 630.5C350.422 623.37 352.371 616.277 354.456 609.222Z"/>
	<path fill="#FEFEFE" d="M455.092 624.305C467.531 623.395 480.226 623.897 492.698 623.961C506.401 624.033 520.334 623.603 533.96 625.136L531.478 633.396C531.456 633.425 531.44 633.461 531.41 633.484C531.401 633.491 530.425 634.17 530.405 634.177C527.038 635.44 465.843 634.511 457.501 634.493C456.59 631.112 455.663 627.764 455.092 624.305Z"/>
	<path fill="#88D9CF" d="M281.186 507.445C293.783 507.622 306.472 508.5 319.073 508.959C313.942 515.509 308.129 520.874 301.477 525.848C293.142 531.501 284.276 534.925 274.681 537.723C276.542 527.567 278.711 517.469 281.186 507.445Z"/>
	<path fill="#FEFEFE" d="M579.633 499.375L582.305 499.652C583.109 500.496 583.254 500.666 583.307 501.891C583.366 503.26 583.098 504.648 582.708 505.956C579.584 516.429 541.591 633.284 540.408 634.632C538.898 634.588 537.63 634.61 536.231 633.951C536.134 633.6 535.954 633.262 535.941 632.898C535.84 629.993 542.595 611.307 543.845 607.47C555.601 571.381 568.161 535.554 579.633 499.375Z"/>
	<path fill="#FEFEFE" d="M318.513 355.528C320.75 356.298 321.408 356.069 323.765 355.589C334.25 360.526 345.925 372.365 353.515 381.041C349.881 385.205 346.006 387.837 341.08 390.264C339.555 386.231 337.432 382.48 335.26 378.769C330.413 371.093 326.529 363.341 317.834 359.518C310.648 362.813 304.188 367.514 297.496 371.678C302.523 363.356 309.32 358.481 318.513 355.528Z"/>
	<path fill="#88D9CF" d="M493.671 878.744L500.682 878.753L502.402 885.994C494.32 886.718 486.183 886.423 478.078 886.413C467.412 886.323 456.746 886.543 446.093 887.074L440.07 887.467L437.537 880.542C456.238 879.656 474.951 879.056 493.671 878.744Z"/>
	<path fill="#88D9CF" d="M239.472 879.258C257.685 878.412 276.116 878.871 294.351 878.944C294.313 881.009 294.622 884.268 293.542 886.061C293.124 886.755 292.605 886.63 291.875 886.776C273.796 886.065 255.68 886.902 237.597 886.985C237.343 885.015 236.583 881.814 237.657 880.072C238.101 879.352 238.707 879.441 239.472 879.258Z"/>
	<path fill="#FEFEFE" d="M399.977 340.922C408.411 346.858 421.228 366.577 427.336 375.549C423.001 375.41 416.492 375.796 412.542 374.08C411.629 373.684 411.81 373.62 411.487 372.774C413.282 369.288 415.453 365.175 414.106 361.163C413.498 359.353 412.073 358.059 410.329 357.35C404.496 354.978 397.651 358.033 392.235 360.188C390.517 357.003 388.768 353.836 386.987 350.686C391.001 347.017 395.451 343.918 399.977 340.922Z"/>
	<path fill="#FEFEFE" d="M324.273 369.955C325.397 370.342 326.12 370.915 326.859 371.835C329.49 375.112 337.232 384.48 336.441 388.725C336.296 389.502 335.832 389.614 335.244 390.053C332.115 390.483 329.467 388.88 326.71 387.601C323.531 389.669 320.506 391.819 317.733 394.421C316.046 396.004 314.475 398.049 312.551 399.321C312.41 399.198 312.253 399.091 312.127 398.953C311.081 397.796 310.073 394.9 310.222 393.3C310.517 390.124 313.325 387.903 315.472 385.83C319.082 383.114 324.473 381.215 327.139 377.614C327.862 376.638 327.989 376.593 327.81 375.346C327.626 375.299 327.445 375.23 327.257 375.204C322.223 374.506 315.427 381.014 311.344 383.67C309.411 384.928 307.248 386.374 304.898 385.859C304.598 385.268 304.102 384.75 304.319 384.068C305.623 379.98 320.137 372.129 324.273 369.955Z"/>
	<path fill="#FEFEFE" d="M461.036 892.258C468.437 892.142 475.836 891.978 483.235 891.766C483.45 894.501 483.536 897.262 483.679 900.002C480.77 901.743 477.829 903.004 474.659 904.188C469.616 905.502 464.516 906.029 459.343 906.507C457.273 901.881 455.463 897.242 454.079 892.365L461.036 892.258Z"/>
	<path fill="#FEFEFE" d="M254.189 264.477C268.629 267.7 282.476 276.557 295.155 283.908C300.983 287.287 307.283 291.422 313.905 292.962C314.917 293.198 314.715 293.292 315.67 292.685C316.658 290.866 316.652 288.897 316.824 286.873L320.782 295.922C321.219 297.366 321.552 298.864 321.929 300.325C299.87 294.721 286.497 282.892 267.388 272.112C263.889 270.137 259.97 268.943 256.34 267.241C254.804 266.522 254.745 266.076 254.189 264.477Z"/>
	<path fill="#FEFEFE" d="M272.914 892.264C279.707 891.895 286.521 892.006 293.322 892.016C293.871 894.702 295.436 899.446 293.795 901.94C293.043 903.084 291.828 903.146 290.619 903.454C283.432 903.792 276.24 904.014 269.046 904.122C268.931 901.37 268.073 895.91 269.769 893.554C270.665 892.309 271.524 892.465 272.914 892.264Z"/>
	<path fill="#88D9CF" d="M383.067 501.722C383.379 501.869 383.546 502.219 383.776 502.477C383.595 512.708 382.506 525.798 379.129 535.428C377.179 536.313 375.164 536.911 373.122 537.544L372.295 536.699C371.691 527.186 374.677 512.492 375.945 502.677L383.067 501.722Z"/>
	<path fill="#FEFEFE" d="M251.39 892.749C256.082 892.524 260.797 892.614 265.493 892.618C265.532 896.53 265.371 900.444 265.249 904.355L259.734 905.085C255.807 905.774 252.203 907.29 248.535 908.793C248.389 904.808 247.499 898.724 248.94 894.955C249.483 893.536 250.043 893.308 251.39 892.749Z"/>
	<path fill="#FEFEFE" d="M319.08 362.499C320.965 363.932 322.235 365.638 323.666 367.494C315.95 370.017 310.623 374.375 304.466 379.485C303.125 379.783 302.87 379.912 301.603 379.44C300.926 378.343 300.362 377.703 300.617 376.327C301.682 370.584 314.215 365.037 319.08 362.499Z"/>
	<path fill="#FEFEFE" d="M334.921 675.553C346.76 675.503 358.65 675.246 370.485 675.507L371.602 677.807L371.196 678.536C369.894 678.634 368.593 678.747 367.294 678.874C359.443 679.055 351.578 679.036 343.724 679.104C341.551 679.023 339.261 679.311 337.111 679.058C335.804 678.904 335.319 678.522 334.534 677.523L334.921 675.553Z"/>
	<path fill="#FEFEFE" d="M326.87 394.501L327.382 395.281C327.316 395.809 327.296 396.217 327.063 396.725C325.417 400.307 319.79 402.726 316.218 403.895C315.923 403.47 315.795 402.993 315.62 402.508C316.886 398.924 323.673 396.16 326.87 394.501Z"/>
	<path fill="#FEFEFE" d="M346.519 635.58C348.25 638.193 349.839 640.799 351.309 643.567L343.955 643.497C344.755 640.844 345.486 638.153 346.519 635.58Z"/>
	<path fill="#FEFEFE" d="M533.438 77.7741C568.753 73.7606 600.651 99.0981 604.731 134.406C608.812 169.714 583.535 201.659 548.235 205.807C512.84 209.966 480.79 184.606 476.698 149.203C472.607 113.8 498.027 81.7984 533.438 77.7741ZM544.259 203.857C578.507 201.922 604.702 172.589 602.765 138.341C600.827 104.092 571.491 77.9001 537.243 79.8406C502.999 81.7808 476.811 111.112 478.748 145.356C480.686 179.6 510.015 205.791 544.259 203.857Z"/>
	<path fill="#FEFEFE" d="M535.571 82.3235C568.401 79.4131 597.382 103.65 600.324 136.477C603.267 169.304 579.059 198.308 546.235 201.283C513.365 204.262 484.311 180.013 481.365 147.14C478.418 114.268 502.696 85.238 535.571 82.3235ZM545.252 199.089C576.931 196.576 600.563 168.84 598.014 137.165C595.465 105.489 567.702 81.8882 536.03 84.4726C504.407 87.0529 480.852 114.762 483.397 146.387C485.942 178.012 513.624 201.598 545.252 199.089Z"/>
	<path fill="#FEFEFE" d="M540.061 110.199C540.532 110.432 540.792 110.476 541.096 110.891C543.408 114.052 542.002 129.507 541.86 133.653C543.44 135.377 544.931 137.19 546.448 138.97C552.786 139.112 561.455 137.146 567.378 139.483L567.233 140.116C565.319 141.141 563.76 141.048 561.625 141.024L546.377 141.065C545.078 142.533 543.968 143.804 541.977 144.289C540.34 144.688 538.227 144.16 536.978 143.043C535.796 141.986 535.331 140.366 535.509 138.821C535.781 136.465 537.303 135.311 538.959 133.82C538.899 126.148 538.177 117.66 540.061 110.199Z"/>
	<path fill="#FEFEFE" d="M592.844 139.777C594.374 139.28 596.021 140.106 596.536 141.631C597.051 143.156 596.243 144.811 594.725 145.344C593.727 145.693 592.618 145.48 591.821 144.785C591.024 144.089 590.663 143.019 590.874 141.983C591.086 140.947 591.838 140.104 592.844 139.777Z"/>
	<path fill="#FEFEFE" d="M538.449 87.1718C539.017 87.306 539.786 87.4314 540.309 87.7303C541.307 88.311 541.964 89.3363 542.075 90.4853C542.245 92.1276 541.234 93.4886 540.394 94.7945C539.292 94.1389 538.146 93.3548 537.595 92.1461C536.758 90.3094 537.625 88.7895 538.449 87.1718Z"/>
	<path fill="#FEFEFE" d="M539.531 191.747C541.049 191.566 542.43 192.641 542.627 194.158C542.824 195.674 541.762 197.066 540.248 197.278C539.255 197.417 538.263 197.012 537.651 196.217C537.04 195.422 536.902 194.36 537.291 193.436C537.679 192.511 538.535 191.866 539.531 191.747Z"/>
	<path fill="#FEFEFE" d="M487.285 139.369C487.489 139.394 487.695 139.411 487.899 139.444C489.579 139.719 490.549 140.101 491.6 141.452C491.457 143.11 491.12 143.46 490.199 144.795C488.663 144.044 486.921 143.427 485.941 141.964C485.93 140.469 486.239 140.471 487.285 139.369Z"/>
	<defs>
		<linearGradient id="gradient_0" gradientUnits="userSpaceOnUse" x1="194.02371" y1="921.58405" x2="41.354607" y2="807.23041">
			<stop offset="0" stop-color="#E4FFFF"/>
			<stop offset="1" stop-color="white"/>
		</linearGradient>
	</defs>
	<path fill="url(#gradient_0)" d="M141.414 928.083C114.538 916.696 90.0144 895.363 75.5331 870.034C62.4386 847.131 52.2507 811.1 59.4914 785.009C60.4072 781.709 61.758 777.31 65.049 775.684C69.776 773.347 78.8233 777.079 83.3227 779.012C111.603 791.16 135.523 814.941 146.802 843.719C157.496 871.004 157.168 899.575 145.431 926.345C151.579 938.502 159.12 950.412 166.49 961.864C165.14 962.227 163.958 962.479 162.547 962.531C154.923 951.462 148.95 939.243 141.414 928.083ZM132.44 903.437C134.322 906.702 136.137 910.039 138.189 913.199C147.865 895.401 151.6 872.652 145.859 852.996C144.644 848.836 142.782 841.207 139.782 838.039C134.544 845.606 129.215 853.11 123.798 860.549C120.978 864.453 118.268 868.786 115.035 872.343C120.832 882.643 127.104 892.901 132.44 903.437ZM138.192 834.034C133.332 825.626 126.009 812.455 117.82 807.233C111.665 818.529 105.388 829.469 97.7387 839.835C99.7539 844.308 110.871 865.55 113.4 868.423C114.733 867.827 115.32 866.674 116.099 865.505C123.592 855.106 130.957 844.615 138.192 834.034ZM103.563 825.193C107.679 818.513 111.851 811.572 115.196 804.477C102.918 792.856 85.5859 779.434 67.8873 779.339C72.5386 790.817 78.6087 801.464 84.2368 812.465C88.2854 820.379 91.8253 828.617 96.0795 836.411C98.7693 832.775 101.173 829.027 103.563 825.193ZM74.5071 859.646C86.0053 862.575 97.4691 865.637 108.896 868.831C103.279 857.337 95.7174 841.143 88.6948 830.756C80.0681 826.656 71.1976 823.09 62.1335 820.078C65.1742 833.864 68.6153 846.756 74.5071 859.646ZM118.745 910.979C122.181 913.309 134.735 922.795 138.58 922.258C134.794 917.174 126.937 912.246 120.612 911.103C119.996 910.992 119.368 910.985 118.745 910.979ZM61.5994 816.59C69.553 819.063 77.1967 822.11 84.8687 825.337L86.2841 825.881C86.059 822.89 67.0826 785.128 64.5309 782.37C61.3606 794.003 60.7701 804.616 61.5994 816.59ZM151.197 883.333C148.464 894.921 146.148 906.36 139.981 916.717L142.565 921.471L143.314 922.327C146.886 919.589 150.112 901.534 150.724 897.026C151.239 893.236 152.301 886.943 151.197 883.333ZM76.316 863.722C85.5281 880.977 97.268 896.301 114.913 905.56C121.002 908.755 127.555 911.108 133.875 913.806C126.956 899.47 118.053 886.126 110.533 872.111C99.1884 871.048 87.4833 866.259 76.316 863.722Z"/>
	<path fill="#FEFEFE" d="M155.072 663.85C175.562 674.864 187.677 705.449 194.175 726.975C203.783 758.806 207.114 795.274 190.876 825.479C188.198 830.46 185.069 836.594 180.339 839.896C181.07 854.159 182.108 868.408 182.147 882.698C182.027 909.343 179.875 935.94 175.709 962.258C174.226 962.446 172.638 962.398 171.139 962.443C173.259 954.48 174.381 946.125 175.459 937.964C179.845 904.731 179.043 871.558 176.347 838.224C171.407 831.364 165.755 825.135 161.11 818.023C138.366 783.199 126.887 742.831 133.603 701.263C135.566 689.114 139.616 673.998 150.268 666.478C151.771 665.416 153.411 664.63 155.072 663.85ZM174.259 795.434L177.062 791.22C183.714 782.073 190.597 772.927 198.241 764.577C196.413 751.636 191.061 716.519 182.781 707.369C177.511 714 171.268 720.452 165.266 726.439C166.965 739.042 168.834 751.639 170.397 764.258C171.682 774.641 172.623 785.1 174.259 795.434ZM134.895 723.161C141.367 729.049 147.973 734.789 154.706 740.377C158.228 743.263 161.721 746.183 165.186 749.138C163.626 742.006 162.908 734.637 161.902 727.404L156.781 690.778C155.774 683.596 155.173 675.926 153.241 668.929C139.75 680.318 137.126 697.031 135.703 713.813C135.455 716.931 135.186 720.047 134.895 723.161ZM144.262 777.73C153.928 782.553 161.253 791.239 170.801 796.116C168.798 781.765 166.589 767.271 165.364 752.837C157.829 748.15 151.49 742.197 144.888 736.329C141.823 733.605 138.601 730.339 135.084 728.268C136.575 745.568 138.741 761.127 144.262 777.73ZM164.732 722.063C167.522 719.038 170.276 715.969 173.133 713.008C175.887 709.871 178.74 706.782 181.179 703.389C176.504 692.234 168.832 676.317 157.807 670.07C158.072 677.33 159.336 684.541 160.365 691.722L164.732 722.063ZM171.137 800.296C161.603 796.561 155.243 787.514 146.254 782.798C151.299 793.377 166.678 826.262 175.822 831.775C174.478 821.276 173.312 810.659 171.137 800.296ZM175.014 799.529C176.643 810.509 178.199 821.5 179.682 832.501L180.087 834.34L180.818 834.465C191.25 825.892 196.841 799.834 198.087 786.941C198.444 783.25 199.795 773.309 197.731 770.346C190.232 780.005 183.031 790.323 175.014 799.529Z"/>
	<path fill="#FEFEFE" d="M586.479 318.198C592.507 317.101 599.623 318.366 605.271 320.56C615.947 324.709 624.286 332 628.765 342.616C636.823 361.713 622.145 381.098 615.268 398.298C615.658 399.607 616.011 400.934 616.191 402.29C616.333 403.358 616.3 404.237 615.93 405.261C614.752 408.525 606.058 431.491 605.074 432.712C603.898 434.172 603.688 434.618 603.581 436.513C603.505 437.865 603.447 438.635 602.829 439.835C600.247 442.129 595.615 441.607 592.351 441.719C587.357 442.2 577.983 443.161 573.508 441.111C569.059 434.616 568.762 423.709 565.807 416.731C563.95 412.345 560.719 408.938 559.67 404.143C559.19 401.949 560.242 400.695 561.345 398.899C557.564 386.408 548.458 374.899 546.767 362.012C545.497 352.332 548.921 342.621 554.837 335.014C562.677 324.933 574.034 319.796 586.479 318.198ZM564.931 400.052C569.807 400.25 574.605 400.43 579.483 400.125C579.432 387.69 582.388 375.196 580.436 362.769C579.684 357.974 575.065 352.344 574.781 349.215C575.631 348.958 575.569 348.777 576.257 349.109C579.819 350.832 582.746 358.813 584.064 362.392C585.77 361.092 587.345 359.941 589.293 359.012L597.337 355.213C598.767 352.941 600.641 348.998 603.27 348.172C603.715 352.342 597.997 360.637 597.268 365.613C595.571 377.204 598.204 388.732 598.038 400.325C602.711 400.425 607.324 400.288 611.989 400.064C614.312 393.642 617.085 387.454 619.937 381.253C625.79 368.527 631.962 355.774 625.374 341.981C621.129 333.095 612.55 326.177 603.326 323.003C597.944 321.151 592.898 320.809 587.259 321.177C575.334 322.629 564.711 327.191 557.203 336.896C551.571 344.177 548.505 353.285 549.83 362.506C551.281 372.599 560.828 389.33 564.931 400.052ZM564.536 409.326L566.343 414.66C574.989 414.066 583.578 414.021 592.24 414.177C597.467 414.271 604.998 415.284 609.867 414.301L611.12 409.416C595.608 409.019 580.026 410.264 564.536 409.326ZM594.72 365.374C595.242 363.29 596.083 360.946 595.997 358.795C595.707 358.652 595.43 358.443 595.109 358.403C592.624 359.472 588.09 360.796 586.955 363.332C587.861 364.034 588.038 363.958 589.119 364.129C590.993 364.491 592.899 364.792 594.72 365.374ZM606.454 421.923L608.67 416.537C599.356 416.463 589.937 416.024 580.637 416.241C577.045 416.308 573.245 416.149 569.717 416.836C568.903 417.82 569.02 417.853 569.095 419.145C570.04 420.507 571.045 420.924 572.614 421.239C580.425 422.808 589.62 420.783 597.651 421.095C600.556 421.295 603.607 421.307 606.454 421.923ZM601.452 438.876C601.472 437.103 601.679 435.375 600.847 433.753C597.275 431.87 578.72 433.217 573.337 432.988L574.079 439.036C583.204 439.071 592.329 439.018 601.452 438.876ZM592.998 367.07C590.222 366.607 587.49 365.941 584.717 365.463C582.307 375.959 582.332 389.33 582.287 400.152L592.896 400.1C592.139 394.885 592.068 389.601 591.31 384.376C590.757 380.567 589.406 376.562 589.15 372.762C589.101 372.023 589.307 371.462 589.525 370.771L590.282 370.08C590.906 370.758 591.368 371.425 591.847 372.213C595.454 378.468 592.685 396.237 595.229 399.819L595.811 399.076C595.76 395.405 594.728 370.271 593.881 368.297C593.682 367.834 593.292 367.479 592.998 367.07ZM613.464 402.356C596.124 402.997 578.668 401.984 561.348 402.873C562.298 404.393 563.211 405.948 564.258 407.403L564.812 407.369C574.428 406.843 606.047 408.51 613.114 405.783C613.862 404.859 613.876 404.139 613.998 402.983L613.464 402.356ZM605.738 423.672C600.584 423.46 593.742 422.405 588.763 423.231C582.509 423.62 576.243 423.507 569.981 423.66C570.352 425.884 570.402 428.285 572.357 429.727C575.858 432.311 583.236 431.189 587.41 431.188C592.444 431.099 599.485 430.136 604.259 431.668C604.746 429.004 605.191 426.323 605.738 423.672Z"/>
	<path d="M592.998 367.07C593.292 367.479 593.682 367.834 593.881 368.297C594.728 370.271 595.76 395.405 595.811 399.076L595.229 399.819C592.685 396.237 595.454 378.468 591.847 372.213C591.67 370.042 591.582 368.843 592.998 367.07Z"/>
	<path fill="#FEFEFE" d="M775.816 547.056C773.837 545.168 771.705 543.533 771.369 540.635C771.795 539.448 771.813 539.287 772.824 538.558C780.945 537.454 789.408 537.943 797.593 537.977L833.393 538.021L868.839 537.975C876.202 537.95 884.062 537.389 891.331 538.523C894.093 538.954 896.339 540.221 898.55 541.89C904.077 546.064 907.614 552.883 908.331 559.74C908.975 565.907 906.462 572.856 902.591 577.613C898.915 582.13 893.824 585.109 887.973 585.593C880.664 586.198 813.628 586.374 810.142 585.244C800.998 585.06 791.384 587.25 782.348 585.447C779.518 585.624 776.313 586.19 773.63 585.163L773.24 584.542C774.944 581.595 776.229 579.488 776.327 576.005C776.602 566.312 776.231 556.744 775.816 547.056Z"/>
	<path d="M779.361 544.909C777.526 544.232 776.072 543.917 775.1 542.116L775.644 541.234C782.097 538.214 809.134 539.92 817.161 541.027C817.734 541.509 818.416 542.249 819.085 542.56C824.89 547.914 829.479 554.312 829.784 562.534C830.161 572.688 825.156 574.48 822.545 582.385L821.612 583.915C817.842 584.496 813.81 584.348 810.142 585.244C800.998 585.06 791.384 587.25 782.348 585.447C780.71 584.778 778.936 585.32 777.233 584.364C777.119 582.984 777.559 582.936 778.393 581.899L779.193 581.457C781.015 569.054 779.779 557.009 780.578 544.627L779.361 544.909Z"/>
	<path fill="#88D9CF" d="M780.578 544.627C783.046 544.045 785.323 543.594 787.766 544.48C790.625 547.534 789.745 563.827 789.593 568.484C789.454 572.734 789.245 577.019 788.35 581.187C785.299 581.202 782.229 581.124 779.193 581.457C781.015 569.054 779.779 557.009 780.578 544.627Z"/>
	<path fill="#88D9CF" d="M790.463 544.003C794.308 543.981 798.064 544.072 801.894 544.423C803.395 556.397 803.09 568.963 802.97 581.001L790.443 581.073C791.49 568.669 791.001 556.418 790.463 544.003Z"/>
	<path fill="#88D9CF" d="M813.54 545.714C814.657 545.169 814.921 545.286 816.12 545.7C819.924 547.015 822.85 551.504 824.341 555.01C826.715 560.592 826.826 567.395 824.318 572.961C822.9 576.107 819.994 579.178 816.718 580.425C816.155 580.639 815.594 580.696 815.001 580.765L814.043 580.2C814.556 568.769 815.087 557.088 813.54 545.714Z"/>
	<path fill="#88D9CF" d="M803.479 544.555C806.976 544.068 809.745 543.738 812.743 545.848C812.722 553.571 812.794 561.293 812.961 569.015C813.005 572.458 812.577 576.691 813.271 580.029C810.585 581.343 807.434 581.124 804.5 581.245C804.495 568.991 803.933 556.796 803.479 544.555Z"/>
	<path fill="#6C0E3D" d="M817.161 541.027C830.493 541.533 843.836 541.711 857.177 541.561C865.723 541.524 881.787 540.189 889.253 542.206C888.679 543.047 887.707 543.006 886.729 543.196C875.72 545.334 845.437 544.443 833.137 543.722C828.511 543.451 823.685 542.487 819.085 542.56C818.416 542.249 817.734 541.509 817.161 541.027Z"/>
	<path fill="#580C0D" d="M822.545 582.385L869.561 581.877C875.828 581.824 886.613 580.327 892.468 582.205C882.908 586.169 836.879 581.675 821.612 583.915L822.545 582.385Z"/>
	<path fill="#1B3A41" d="M779.361 544.909L780.578 544.627C779.779 557.009 781.015 569.054 779.193 581.457L778.393 581.899C778.77 575.167 779.059 568.48 779.075 561.738C779.088 556.248 778.648 550.335 779.361 544.909Z"/>
	<path fill="#03011B" d="M839.68 560.513L875.575 560.382C881.869 560.352 889.108 559.657 895.279 560.805C896.512 562.074 896.445 562.783 896.773 564.488C886.313 564.691 875.862 564.49 865.404 564.588C857.522 564.663 848.639 565.804 840.92 564.281C839.917 562.992 839.941 562.105 839.68 560.513Z"/>
	<path d="M837.807 550.607C846.455 550.52 887.012 549.072 893.544 550.86C894.478 552.141 894.232 552.857 894.223 554.415C885.881 554.702 843.195 555.32 838.674 553.902C837.823 552.744 837.931 552.018 837.807 550.607Z"/>
	<path fill="#03011B" d="M839.057 570.437L871.538 570.36C878.514 570.308 885.912 569.761 892.811 570.733C894.002 571.832 893.89 572.519 894.182 574.081C884.585 574.44 874.937 574.252 865.331 574.355C857.45 574.44 848.073 575.494 840.394 573.947C839.352 572.885 839.375 571.856 839.057 570.437Z"/>
	<path fill="#FEFEFE" d="M225.887 428.286C232.925 428.637 245.215 430.131 251.483 433.152C258.676 436.621 253.356 446.587 253.681 452.789C253.791 454.885 254.602 456.858 255.338 458.8C246.034 452.949 234.51 450.524 223.614 450.118C199.069 449.35 175.212 458.296 157.224 475.013C139.829 491.457 129.648 514.115 128.902 538.04C128.215 561.561 138.914 584.91 155.008 601.696C171.576 619.117 194.425 629.185 218.461 629.655C220.825 629.731 224.725 629.402 226.818 630.346C227.011 632.156 225.217 633.67 224.958 635.552C224.274 640.529 225.108 646.622 225.209 651.697C224.487 651.422 223.676 651.161 223.121 650.594C219.95 647.356 221.652 637.283 222.09 633.127C215.476 632.301 208.852 631.973 202.266 630.85L198.901 650.88C189.613 648.589 180.291 645.005 171.243 641.868C172.237 635.106 174.171 628.593 176.347 622.13C172.114 619.447 167.884 616.788 163.821 613.85C159.73 619.152 154.042 623.62 149.078 628.093C139.727 621.422 131.64 611.799 125.272 602.269C130.687 598.29 136.053 594.266 141.766 590.72C138.2 584.962 135.253 578.861 132.184 572.829C126.416 574.998 120.742 577.57 115.047 579.935C110.317 568.324 107.297 556.055 106.882 543.489C113.095 543.449 119.327 543.109 125.538 542.878C125.436 536.95 126.218 530.945 126.891 525.062C120.579 523.532 114.312 521.821 108.098 519.929C109.897 508.318 113.016 498.456 118.212 487.929C124.518 490.52 130.474 493.617 136.448 496.881C139.287 492.208 142.188 487.659 145.349 483.193C140.226 478.614 135.609 473.952 131.704 468.283C138.241 460.368 146.037 454.27 154.042 447.935C158.492 452.847 162.422 458.406 166.099 463.915C170.916 461.064 175.813 458.422 180.764 455.815C178.069 449.705 175.583 443.487 173.011 437.323C182.276 433.02 192.039 430.786 201.955 428.583C203.887 435.051 205.979 441.447 207.39 448.056C212.515 447.967 217.638 447.506 222.775 447.406C223.38 441.095 224.143 434.381 225.887 428.286ZM148.495 623.821C152.809 619.94 156.992 615.882 161.403 612.113C158.276 609.18 144.501 594.125 143.548 593.57C138.633 596.428 134.038 599.701 129.434 603.027C135.359 610.339 141.144 617.855 148.495 623.821ZM111.528 517.689C116.772 519.741 122.161 520.776 127.559 522.27C129.358 514.285 131.932 506.676 135.231 499.184C130.028 496.761 124.817 494.467 119.488 492.335C115.828 500.604 113.184 508.792 111.528 517.689ZM109.866 546.654C111.27 556.549 112.825 566.425 116.943 575.619C121.633 573.432 126.368 571.381 131.311 569.822C128.559 562.395 126.771 553.938 125.734 546.089L125.469 545.876C120.261 546.256 115.088 546.548 109.866 546.654ZM225.802 447.35C233.984 448.561 242.106 450.155 250.139 452.125C251.306 447.226 252.389 442.001 252.758 436.975C244.459 434.299 236.408 433.672 228.291 431.438C227.097 436.689 226.775 442.065 225.802 447.35ZM199.268 630.61C192.357 628.555 185.741 626.28 179.224 623.152C177.51 628.712 176.097 634.232 174.862 639.921C181.697 642.383 188.686 645.014 195.691 646.924C196.853 641.519 197.825 635.94 199.268 630.61ZM153.386 452.484C147.062 457.65 141.144 462.857 135.559 468.83C139.396 472.611 143.181 476.467 147.125 480.134C149.459 480.096 160.994 468.038 163.595 465.653C160.483 461.382 157.234 456.075 153.386 452.484ZM199.41 432.2C191.881 433.878 184.106 435.692 177.047 438.853C179.099 444.046 181.596 449.405 183.109 454.763C190.257 452.365 197.332 449.855 204.77 448.506C203.195 443.84 202.439 435.89 199.41 432.2Z"/>
	<path fill="#88D9CF" d="M928.298 143.181C929.389 142.985 930.028 142.783 931.047 143.299C931.97 145.39 931.21 148.705 930.856 150.953C929.416 160.103 926.92 169.137 925.202 178.251C921.329 198.793 917.848 219.496 913.567 239.95C908.814 235.852 904.705 230.939 900.366 226.406L876.339 201.469C868.829 193.531 861.245 185.663 853.586 177.868C847.188 171.35 839.924 164.888 834.902 157.242C848.259 153.9 862.305 153.022 875.915 151.167C893.407 148.783 910.819 145.698 928.298 143.181ZM841.115 160.063C854.53 173.104 867.236 186.862 880.37 200.178C891.049 211.252 901.976 221.905 911.743 233.819C914.5 213.326 919.018 192.844 922.921 172.532C923.97 167.07 927.867 152.344 927.298 147.73C925.968 147.465 925.065 147.534 923.743 147.709C909.349 149.251 895.192 151.781 880.89 153.933C867.635 155.928 854.282 157.524 841.115 160.063Z"/>
	<path fill="#88D9CF" d="M796.233 403.706C804.743 401.332 813.564 406.313 815.927 414.826C818.289 423.339 813.296 432.154 804.779 434.505C796.279 436.851 787.485 431.869 785.128 423.372C782.77 414.876 787.739 406.075 796.233 403.706ZM802.246 431.421C807.72 430.694 812.054 426.435 812.876 420.974C813.447 417.176 812.226 413.328 809.571 410.555C806.915 407.781 803.123 406.394 799.305 406.8C794.861 407.272 791.016 410.098 789.238 414.198C787.461 418.297 788.027 423.036 790.72 426.602C793.413 430.168 797.816 432.009 802.246 431.421Z"/>
	<path fill="#FEFEFE" d="M141.394 97.5322C149.983 96.0224 158.165 101.776 159.649 110.37C161.134 118.963 155.355 127.128 146.757 128.587C138.196 130.039 130.073 124.291 128.595 115.733C127.117 107.176 132.841 99.0356 141.394 97.5322ZM145.247 125.396C152.095 124.739 157.103 118.639 156.413 111.794C155.722 104.949 149.597 99.9709 142.756 100.694C135.961 101.413 131.025 107.487 131.71 114.285C132.396 121.083 138.446 126.049 145.247 125.396Z"/>
	<path fill="#FEFEFE" d="M152.251 348.059C160.545 347.312 167.863 353.46 168.556 361.759C169.25 370.057 163.055 377.335 154.752 377.974C146.524 378.608 139.328 372.482 138.64 364.259C137.953 356.036 144.033 348.8 152.251 348.059Z"/>
	<path fill="#2D303F" d="M152.039 351.246C158.443 350.315 164.429 354.634 165.565 361.004C166.701 367.374 162.576 373.496 156.245 374.835C151.966 375.74 147.534 374.242 144.68 370.927C141.827 367.612 141.006 363.007 142.538 358.91C144.07 354.813 147.711 351.876 152.039 351.246Z"/>
	<path fill="#88D9CF" d="M759.335 207.141C781.695 206.695 804.107 207.044 826.473 207.008C839.616 206.987 855.217 205.845 867.979 207.646C868.103 234.013 868.886 260.705 867.92 287.043C867.807 290.117 867.999 293.169 865.637 295.378C863.38 290.617 864.877 222.962 864.752 210.56L796.612 210.515C784.846 210.509 772.485 211.238 760.786 210.245C759.732 210.155 759.076 210.007 758.192 209.376C758.173 207.945 758.404 208.119 759.335 207.141Z"/>
	<path fill="#88D9CF" d="M778.107 230.149C790.864 229.943 803.721 230.052 816.486 230.037C825.745 230.026 835.132 229.725 844.373 230.299C844.565 247.114 844.285 263.935 844.39 280.751C844.443 289.322 845.408 298.23 844.783 306.752C844.644 308.645 844.523 310.46 843.238 311.952L842.366 311.903L841.729 310.888C840.614 299.992 841.255 289.215 841.256 278.301L840.946 233.993L797.667 234.071C790.739 234.096 783.283 234.701 776.43 233.989C775.058 233.846 774.375 233.688 773.372 232.743L773.768 231.721C775.186 230.601 776.346 230.429 778.107 230.149Z"/>
	<path fill="#FEFEFE" d="M461.53 272.978L461.945 273.544C461.417 276.796 455.551 281.93 453.199 284.447C457.042 288.283 460.491 291.708 462.794 296.712C458.399 294.225 454.778 290.534 451.26 286.969C448.171 290.32 444.741 293.34 441.027 295.981C440.6 295.541 440.845 295.87 440.654 294.809C442.273 290.73 445.934 287.682 448.981 284.648C445.148 280.885 442.113 276.999 439.514 272.3C444.383 274.932 447.505 278.107 451.243 282.144C454.424 278.719 457.66 275.62 461.53 272.978Z"/>
	<path fill="#DEFDFD" d="M885.231 448.987C884.806 448.832 884.697 448.812 884.26 448.536C880.914 446.422 874.554 440.33 873.459 436.51L874.054 435.703C874.494 435.686 874.696 435.647 875.162 435.807C879.01 437.127 884.334 443.141 886.58 446.415L890.106 443.396C891.317 444.105 892.516 444.827 893.76 445.476C892.652 446.353 889.984 447.942 889.577 449.2C893.899 452.875 899.429 457.427 900.928 463.101L900.321 463.539C895.246 461.544 890.829 455.359 886.838 451.643C886.433 450.166 886.571 449.828 885.231 448.987Z"/>
	<path fill="#88D9CF" d="M890.106 443.396C891.317 444.105 892.516 444.827 893.76 445.476C892.652 446.353 889.984 447.942 889.577 449.2C888.268 449.056 887.505 449.246 886.54 448.284L886.58 446.415L890.106 443.396Z"/>
	<path fill="#FEFEFE" d="M885.231 448.987C886.571 449.828 886.433 450.166 886.838 451.643C883.111 457.154 878.215 461.139 872.37 464.19L872.763 463.439C875.73 457.646 880.356 453.203 885.231 448.987Z"/>
	<path fill="#DEFDFD" d="M890.106 443.396C893.005 440.557 896.595 436.228 900.662 435.344L901.153 435.941C899.909 439.702 896.573 442.804 893.76 445.476C892.516 444.827 891.317 444.105 890.106 443.396Z"/>
	<path fill="#88D9CF" d="M800.322 276.753C801.503 276.138 802.928 276.223 804.027 276.976C805.126 277.728 805.721 279.025 805.574 280.349C805.427 281.674 804.562 282.809 803.325 283.302C801.54 284.013 799.511 283.201 798.711 281.455C797.91 279.709 798.618 277.642 800.322 276.753Z"/>
	<path fill="#88D9CF" d="M745.346 330.733C746.474 330.074 747.872 330.08 748.995 330.748C750.118 331.416 750.79 332.641 750.749 333.948C750.709 335.254 749.962 336.435 748.799 337.032C747.068 337.921 744.943 337.27 744.007 335.563C743.072 333.857 743.665 331.715 745.346 330.733Z"/>
	<path fill="#88D9CF" d="M763.214 313.76C764.928 312.787 767.105 313.386 768.08 315.099C769.055 316.811 768.458 318.989 766.746 319.966C765.032 320.944 762.85 320.346 761.874 318.631C760.898 316.916 761.498 314.734 763.214 313.76Z"/>
	<path fill="#88D9CF" d="M817.398 257.688C818.568 257.095 819.97 257.194 821.045 257.944C822.121 258.695 822.698 259.976 822.546 261.279C822.395 262.581 821.539 263.696 820.32 264.179C818.549 264.881 816.54 264.066 815.758 262.329C814.976 260.592 815.699 258.548 817.398 257.688Z"/>
	<path fill="#88D9CF" d="M783.157 295.143C785.015 295.168 786.515 296.668 786.54 298.526C786.565 300.384 785.107 301.925 783.25 302.001C782.003 302.052 780.827 301.422 780.179 300.355C779.53 299.289 779.512 297.955 780.131 296.871C780.75 295.787 781.909 295.126 783.157 295.143Z"/>
	<path fill="#2D303F" fill-opacity="0.019607844" d="M604.359 496.134C605.567 496.742 605.98 496.76 606.574 497.951C605.778 498.401 605.197 498.612 604.294 498.761L605.465 498.993L605.502 499.579L605.12 499.537C603.444 499.442 601.771 499.312 600.102 499.146C601.189 497.961 602.512 497.569 603.963 496.936L604.359 496.134Z"/>
</svg>
