<?xml version="1.0" encoding="utf-8" ?>
<svg xmlns="http://www.w3.org/2000/svg" xmlns:xlink="http://www.w3.org/1999/xlink" width="1024" height="1024">
	<path d="M565.708 260.073C567.826 259.845 568.568 259.944 570.411 260.98C570.813 261.624 571.268 262.033 571.208 262.835C570.75 268.906 532.73 303.11 526.109 309.376C531.841 315.666 562.605 354.814 563.327 361.328C562.329 365.036 558.961 367.318 556.189 369.744C561.602 375.175 567.484 380.174 572.999 385.51C584.722 396.856 596.784 410.243 605.162 424.299C612.71 436.963 618.23 453.729 614.425 468.5C609.789 486.503 594.055 492.006 579.73 500.549L580.919 507.403L576.585 511.469C577.437 516.237 578.268 521.058 579.745 525.679C581.423 530.928 584.64 536.435 585.199 541.903C585.438 544.243 584.995 546.558 583.374 548.341C579.527 552.573 572.068 552.387 566.826 552.476C564.529 556.984 562.66 561.672 560.206 566.119C558.224 569.71 554.602 575.794 550.841 577.666C548.925 578.62 546.399 578.839 544.315 579.436C544.429 579.963 544.549 580.49 544.631 581.023C545.547 587.01 544.76 592.73 541.081 597.711C538.202 601.608 533.947 603.888 529.157 604.428C518.189 605.663 505.222 598.95 496.969 592.266C494.199 593.921 488.724 596.817 488.333 600.44C488.156 602.09 488.619 602.857 489.615 604.098C492.518 607.715 496.843 610.626 500.417 613.597C505.418 617.729 510.332 621.964 515.158 626.299C520.557 631.163 526.182 636.647 529.379 643.278C535.767 656.524 540.568 682.71 544.229 697.653C551.261 726.356 558.604 754.755 568.789 782.542C570.829 788.108 574.134 799.667 578.153 803.799C583.3 809.089 629.254 821.664 638.266 822.911C652.333 824.858 666.821 824.808 680.997 825.064C694.485 793.641 707.696 762.1 720.627 730.444C725.63 718.193 730.763 705.996 736.025 693.855C738.987 686.964 741.64 679.715 745.341 673.191C803.607 680.779 862.056 687.281 920.267 695.307C936.769 697.583 961.261 698.539 976.322 703.593C974.471 711.254 970.543 718.595 967.314 725.773C962.845 735.611 958.477 745.495 954.211 755.422C932.518 806.178 909.292 856.378 889.385 907.872C909.41 908.411 929.49 908.16 949.521 908.09C960.263 908.052 984.557 906.225 993.52 909.301C994.685 911.543 991.07 915.619 990.245 917.873C989.684 919.408 989.508 921.133 989.392 922.756C989.155 926.079 988.848 930.762 989.973 933.936C990.83 936.354 993.772 938.239 993.615 940.953C991.379 943.011 984.291 942.918 981.295 943.018C971.042 943.361 960.715 942.777 950.45 942.776L879.808 942.94L646.25 942.947L310.5 942.792L136.094 942.74C123.107 942.737 33.9385 943.828 29.2529 941.74C27.6098 938.984 30.0226 934.495 30.783 931.572C32.0128 926.844 32.2673 921.555 30.3799 916.946C29.7253 915.347 28.6248 913.812 28.1488 912.166C27.8221 911.036 27.9778 910.891 28.5145 909.916C35.7483 905.669 54.0215 910.563 63.5481 908.376L64.2121 908.217C70.4494 895.273 71.5412 870.306 66.7821 856.747C65.2144 852.281 60.9033 848.211 61.0057 843.278C61.0462 841.33 61.8401 840.28 63.2356 839.023C72.0833 831.055 72.5968 809.681 70.2679 798.84C69.1614 793.689 66.7319 789.003 65.5464 783.986C65.3142 783.004 65.5 782.363 65.8946 781.465C71.869 778.017 118.184 780.373 127.607 780.746C129.702 768.422 137.89 757.055 144.622 746.751C166.606 713.101 193.819 695.418 233.093 687.218C233.709 683.427 234.831 679.691 235.95 676.022C247.069 639.571 270.194 593.139 303.217 572.222C314.902 564.82 329.167 560.481 342.371 556.614C357.985 552.041 374.947 551.381 389.436 543.573C428.291 522.634 404.945 492.313 402.319 459.965C401.483 449.666 403.254 440.551 406.2 430.756C398.834 418.31 393.376 404.888 386.644 392.116C373.459 396.915 359.415 399.58 346.604 405.38C345.708 412.201 344.934 422.877 347.477 429.349C348.141 431.04 349.27 432.504 350.038 434.14C351.343 436.918 349.334 440.698 348.316 443.343C358.208 456.648 359.132 471.642 361.094 487.516C355.088 490.371 348.683 491.535 342.053 491.368C339.133 491.294 334.445 491.046 332.505 488.505C329.562 484.649 331.379 475.696 331.97 471.169C333.204 461.706 333.698 451.252 341.851 444.976C340.823 440.882 340.171 436.702 339.903 432.49C344.739 425.088 342.695 414.845 342.448 406.343C336.985 408.419 325.484 414.074 320.012 411.247C318.509 410.47 317.479 409.317 316.941 407.713C316.412 406.135 316.307 403.907 317.143 402.415C322.569 392.722 349.25 370.879 359.09 361.948C372 350.209 384.85 338.404 397.64 326.534C405.192 319.424 414.46 309.334 422.918 303.668C430.95 298.287 462.309 290.168 472.979 286.979C503.761 277.576 534.674 268.607 565.708 260.073ZM468.644 841.689C475.619 842.873 482.81 844.294 489.878 844.67C493.683 845.215 497.518 845.584 501.314 846.171C494.438 831.839 488.21 817.206 482.648 802.316C477.618 815.33 472.676 828.322 468.644 841.689Z"/>
	<path fill="#FEFEFE" d="M761.407 679.852C768.898 681.402 776.77 682.007 784.37 682.935L825.576 687.991L970.356 706.632C964.688 722.362 956.933 737.656 950.299 753.027L908.204 850.676C899.93 869.764 890.973 888.52 883.631 908.006L875.065 908.019L664.952 907.485C667.949 899.045 672.222 891.028 675.954 882.893C681.94 869.739 687.779 856.519 693.468 843.234L761.407 679.852Z"/>
	<path d="M841.225 762.534C843.644 762.472 846.087 762.381 848.386 763.261C851.621 764.501 854.013 766.706 855.304 769.944C858.536 778.055 855.446 789.448 852.287 797.149C847.569 808.65 839.781 819.692 827.994 824.567C825.986 824.489 823.849 824.493 821.923 823.871C818.363 822.72 815.375 820.216 813.825 816.795C810.508 809.471 812.985 799.201 815.59 791.998C820.306 778.959 828.512 768.412 841.225 762.534Z"/>
	<path fill="#FEFEFE" d="M843.834 767.53C844.964 767.7 846.254 767.832 847.288 768.338C849.128 769.238 850.38 771.306 850.996 773.183C853.572 781.032 849.087 792.612 845.667 799.625C841.05 809.093 835.442 815.874 825.283 819.427C824.287 819.125 823.236 818.859 822.3 818.398C820.299 817.409 818.682 814.904 817.986 812.855C815.468 805.432 819.706 794.444 823.037 787.806C827.525 778.863 834.066 770.733 843.834 767.53Z"/>
	<path fill="#48CED2" d="M382.331 552.701C383.236 552.59 382.732 552.546 383.805 553.065C384.916 556.515 383.993 568.65 384.297 573.317C384.864 582.039 386.324 590.659 388.138 599.199C390.978 612.571 394.587 626.044 399.292 638.889C402.165 646.732 406.392 654.178 408.168 662.387C409.726 669.584 409.654 677.22 409.929 684.561C411.182 718.076 408.209 751.154 403.068 784.26C400.847 798.566 398.55 812.846 394.604 826.794C388.813 824.778 382.856 823.335 376.904 821.894C378.59 809.194 380.727 796.504 382.005 783.76C387.373 730.27 387.267 670.408 369.535 619.125C365.152 606.446 354.526 580.948 341.748 575.281C340.327 574.651 339.138 574.512 337.646 575.035L337.233 575.982C338.81 580.746 344.994 584.443 348.175 588.484C351.732 593.002 354.791 597.89 357.297 603.065C378.498 646.005 380.541 697.969 379.085 744.9C378.771 759.186 377.903 773.455 376.482 787.675C375.726 794.728 373.646 815.242 371.771 820.711L371.055 820.896C367.769 815.937 373.277 791.872 363.225 782.582C357.67 777.448 349.701 778.348 342.734 778.523C344.58 765.794 348.868 753.186 351.92 740.687C354.985 727.783 358.558 714.98 361.957 702.16C363.763 695.349 366.029 688.253 367.034 681.283C367.336 679.19 367.919 676.145 366.57 674.36L365.635 674.389C364.037 675.512 363.194 676.51 362.501 678.363C361.007 682.356 360.275 686.853 359.304 691.011L353.734 714.542C348.481 735.909 342.486 757.086 337.252 778.46C303.668 777.461 269.82 777.704 236.228 778.403C238.83 760.358 243.089 742.298 247.177 724.534L257.562 679.149C259.841 669.415 262.767 659.87 264.518 650.011C264.918 647.758 265.207 645.391 264.462 643.174C264.104 642.11 264.156 641.919 263.111 641.407C262.968 641.488 262.813 641.552 262.682 641.652C261.194 642.785 260.351 645.472 259.821 647.193C258.545 651.339 257.928 655.858 256.935 660.097L249.798 690.583C243.058 719.725 235.724 749.001 231.216 778.582L218.015 778.495C219.937 765.8 222.857 753.236 225.384 740.648C235.163 691.921 247.764 642.773 278.457 602.595C286.482 592.09 296.067 582.815 307.339 575.851C326.42 564.064 360.027 555.669 382.331 552.701Z"/>
	<path d="M309.857 595.174C316.385 594.527 322.941 596.103 328.462 599.646C343.902 609.36 353.068 630.529 359.651 646.919C361.102 650.532 363.331 654.898 363.913 658.74C364.105 660.004 363.696 660.494 362.899 661.388L361.686 661.341C356.82 658.262 351.894 641.942 349.517 636.052C344.386 625.367 338.242 612.974 328.517 605.681C317.519 597.434 302.303 599.713 291.183 606.573C288.366 608.31 285.78 611.28 282.419 611.785C281.297 611.041 281.159 610.877 280.576 609.663C280.653 608.751 280.786 608.289 281.324 607.516C285.589 601.386 302.647 596.114 309.857 595.174Z"/>
	<path fill="#51505D" d="M168.158 913.251L987.483 913.029C985.602 921.248 985.331 930.089 988.601 937.964L853.25 937.94L32.82 937.476C33.921 929.19 33.7486 922.22 32.1751 914.007C77.5011 913.502 122.83 913.25 168.158 913.251Z"/>
	<path fill="#48CED2" d="M492.206 613.321C499.953 616.966 520.351 636.934 524.406 644.714C530.951 657.268 533.311 674.249 536.753 688.061C541.715 708.091 546.839 728.08 552.125 748.026C557.344 767.476 564.999 786.169 572.07 804.997C564.294 808.095 556.028 809.491 548.202 812.406C542.328 814.595 530.404 819.129 527.64 825.135L528.029 825.598C533.38 825.3 542.021 819.49 547.178 817.155C550.797 815.517 554.538 814.179 558.277 812.846C553.542 816.601 527.982 833.336 527.261 837.703L527.992 838.044C534.905 836.531 544.781 827.827 550.807 823.701C558.384 818.512 565.963 813.059 574.246 809.054C584.706 811.762 595.154 815.878 605.419 819.324C581.188 828.828 557.62 845.663 531.053 847.091C523.081 847.519 515.017 846.548 507.079 845.889C500.592 832.441 495.073 818.658 489.483 804.821L485.515 794.506C496.173 761.276 508.726 730.074 514.243 695.326C515.459 687.671 516.796 679.227 516.621 671.486C516.588 670.003 516.647 668.615 515.522 667.562L514.166 667.872C513.215 669.088 512.96 670.561 512.683 672.051C511.687 677.405 511.326 682.96 510.535 688.362C509.035 698.247 507.055 708.054 504.601 717.747C497.486 745.505 487.434 772.421 477.839 799.394C472.984 813.045 467.052 826.651 464.14 840.879L444.518 837.991C449.173 824.276 454.483 810.773 458.912 796.985C466.236 774.038 471.691 750.535 475.224 726.708C476.528 717.617 477.517 708.483 478.19 699.323C478.764 690.993 476.898 673.068 479.811 666.6C480.361 666.199 480.847 665.887 481.527 665.747C483.465 665.349 485.512 665.642 487.153 666.754C487.864 670.104 488.758 673.563 490.483 676.549C491.774 678.785 493.373 680.931 495.98 681.57C497.206 681.111 497.698 680.777 498.302 679.573C501.896 672.403 498.477 641.386 496.942 632.6C495.796 626.041 494.058 619.705 492.206 613.321Z"/>
	<path fill="#FEFEFE" d="M454.278 464.08C471.505 462.726 467.308 475.599 474.223 480.77C479.46 484.685 491.53 486.481 498.247 488.956C509.11 492.916 519.818 497.288 530.348 502.062C528.239 509.699 527.45 517.5 529.88 525.178C531.686 530.888 535.247 536.815 540.79 539.505C544.716 541.41 549.221 541.459 553.278 539.924C563.33 536.122 567.901 525.553 572.181 516.572C575.529 525.654 578.001 535.271 580.915 544.52C578.477 545.611 575.981 546.761 573.34 547.242C569.516 547.937 562.943 546.501 560.086 549.132C559.523 550.928 560.405 552.775 560.97 554.496C560.092 556.448 559.07 558.266 558.007 560.118C550.319 558.946 539.854 556.76 533.629 551.763C531.758 550.261 530.42 548.187 528.692 546.549C527.712 545.621 527.125 545.249 525.787 545.24C524.862 546.201 524.62 546.799 524.554 548.15C524.283 553.644 530.059 564.734 533.412 569.079C535.463 571.737 537.944 574.07 540.093 576.652C540.45 577.081 541.207 577.835 541.334 578.419C541.689 580.045 539.431 586.764 539.254 589.059C539.077 591.358 538.711 593.563 537.443 595.543C536.016 597.774 533.771 599.191 531.183 599.672C506.864 604.196 477.948 570.771 468.272 551.948C466.417 548.341 465.016 544.587 463.845 540.707C462.582 536.521 462.214 527.587 458.544 524.934C457.809 525.07 457.885 524.898 457.508 525.552C455.425 529.166 457.845 535.863 458.811 539.646C464.985 560.22 477.521 575.157 492.95 589.538C488.173 592.99 483.486 596.712 479.203 600.762C473.189 606.449 462.344 618.885 462.684 627.896C462.737 629.301 463.238 630.511 464.301 631.38C467.055 630.062 468.268 623.913 469.906 621.214L470.5 621.328C471.618 625.377 470.689 630.756 470.028 634.854C468.969 641.421 465.99 658.733 460.723 662.553C458.48 660.589 458.018 654.974 455.942 652.271C452.833 648.225 449.096 644.89 446.176 640.61C442.305 634.934 439.276 628.432 436.085 622.353C422.47 596.41 411.734 569.809 407.913 540.615C415.28 540.457 422.578 540.064 429.369 536.906C439.349 532.266 443.825 523.754 447.39 513.878C450.911 516.375 454.457 518.788 458.979 518.018C462.037 517.497 465.644 515.8 467.335 513.075C467.984 512.031 468.214 511.124 467.965 509.909L467.018 509.423C463.234 509.804 460.247 512.369 456.68 513.368C455.451 513.712 454.059 513.277 452.963 512.69C447.289 509.651 443.582 500.381 441.982 494.407C439.984 486.947 439.936 478.095 444.089 471.328C446.528 467.353 449.811 465.196 454.278 464.08Z"/>
	<path d="M452.91 472.134L458.086 472.48C459.143 473.326 460.248 474.156 461.193 475.13C464.393 478.429 466.24 484.655 466.103 489.181C466.035 491.408 465.312 492.843 463.693 494.32C461.379 495.143 458.197 493.931 455.75 493.861C454.467 493.825 453.931 494.083 453.011 494.923C452.786 496.154 453.41 497.006 453.968 498.05C455.015 499.634 455.866 500.774 455.483 502.686C454.585 502.988 454.576 503.164 453.62 502.805C450.644 501.689 448.466 498.223 447.268 495.449C444.8 489.737 444.538 482.448 447.08 476.706C448.262 474.036 450.28 473.058 452.91 472.134Z"/>
	<path fill="#FEFEFE" d="M453.263 476.383C454.789 476.436 456.001 476.601 457.277 477.517C459.428 479.063 461.659 483.033 461.872 485.697C461.998 487.259 461.505 488.191 460.53 489.344C458.646 490.01 457.339 489.562 455.423 489.25C454.299 489.519 454.69 489.343 453.748 489.863C452.561 490.519 451.597 491.305 450.193 491.32C449.077 490.298 448.677 489.498 448.679 487.949C448.684 483.858 450.572 479.349 453.263 476.383Z"/>
	<path fill="#51505D" d="M553.083 373.83C558.054 375.489 586.468 406.727 591.265 412.728C595.6 418.051 599.476 423.732 602.852 429.71C608.9 440.636 613.204 455.409 609.446 467.795C606.075 478.907 597.651 484.21 588.048 489.482C588.817 487.009 589.49 484.508 590.068 481.983C592.659 470.902 594.807 454.716 588.49 444.497C591.164 439.637 594.441 433.262 594.443 427.569C594.444 426.187 594.288 425.571 593.342 424.588L591.913 424.607C590.108 428.222 588.913 432.194 587.37 435.934C580.37 452.909 562.214 463.689 545.984 470.424C532.634 475.965 519.288 478.58 505.171 481.193C502.38 481.71 498.706 482.95 495.965 482.811C490.238 482.521 482.904 478.052 478.481 474.549C472.465 469.785 468.495 463.193 461.128 460.225C460.946 460.151 460.762 460.082 460.579 460.011C455.967 459.895 451.746 459.84 447.476 461.921C442.628 464.283 439.355 468.716 437.672 473.755C433.59 485.98 437.558 497.909 443.084 508.907C441.211 517.216 437.648 525.591 430.521 530.728C423.471 535.81 416.293 535.677 408.167 534.244C426.62 511.773 410.155 486.496 407.333 461.8C406.352 453.21 407.33 444.72 409.366 436.357C411.523 440.445 413.216 444.849 415.051 449.093C429.96 448.338 444.906 443.356 459.269 439.51C472.369 436.001 487.708 432.957 499.665 426.385C507.922 421.847 515.618 411.392 522.147 404.482C532.054 393.996 541.912 382.98 553.083 373.83Z"/>
	<path fill="#FEFEFE" d="M437.266 649.583L444.526 649.321C452.502 654.135 454.462 661.013 457.672 669.183C453.435 676.35 451.671 685.021 451.237 693.315C451.121 695.536 451.093 697.277 452.64 698.97L453.972 698.973C461.05 695.145 468.354 679.314 473.763 672.511L474.134 672.055C473.933 721.043 463.256 768.328 447.418 814.489C444.986 822.115 442.591 829.839 439.621 837.272C425.974 835.234 413.043 831.54 399.83 827.643C408.566 791.865 413.54 755.273 414.672 718.462C414.958 709.353 415.025 700.237 414.874 691.124C414.742 684.933 413.771 677.729 414.691 671.643C415.539 671.518 416.714 671.375 417.424 670.851C418.111 670.345 418.984 668.524 419.397 667.738C424.15 658.698 427.11 653.1 437.266 649.583Z"/>
	<path fill="#51505D" d="M145.37 850.286C163.221 851.012 181.283 850.437 199.16 850.45L301.405 850.539C309.049 864.113 311.86 879.966 307.505 895.148C306.054 900.205 303.716 904.463 299.739 908.002L145.534 908.552C153.971 903.294 160.694 898.613 163.057 888.259C165.06 879.487 163.216 869.175 158.346 861.616C155.642 857.42 150.746 852.498 145.708 851.518C143.919 851.17 141.942 851.362 140.118 851.321C140.822 850.92 140.499 851.001 141.337 850.958C142.856 850.879 143.955 850.878 145.37 850.286Z"/>
	<path fill="#48CED2" d="M252.668 783.754C273.257 783.557 293.935 783.034 314.516 783.717C321.028 803.459 320.476 817.223 314.925 837.039C278.746 836.318 242.559 836.156 206.375 836.555C188.348 836.523 170.412 837.472 152.389 836.343C153.34 832.627 155.195 829.891 157.189 826.687C161.325 820.04 162.825 812.944 162.029 805.172C161.106 796.155 156.96 789.757 150.075 784.058L252.668 783.754Z"/>
	<path fill="#48CED2" d="M370.979 825.82C377.662 827.928 384.749 829.232 391.534 831.051C402.029 833.865 412.481 837.082 423.087 839.441C444.971 844.307 467.407 847.126 489.677 849.579C501.611 850.893 513.62 850.625 525.546 852.296C531.288 862.11 530.589 873.574 530.889 884.576L481.75 884.557L451.223 884.493C445.794 884.482 439.973 884.069 434.596 884.783C432.719 885.033 429.507 885.51 428.192 887.001C424.781 890.869 426.395 903.524 426.538 908.506L363.51 908.504C365.337 906.222 367.096 903.773 368.477 901.193C374.712 889.552 375.851 874.49 372.007 861.898C369.179 852.633 363.492 847.764 355.19 843.291C357.698 842.712 360.162 842.183 362.377 840.799C367.91 837.341 369.54 831.78 370.979 825.82Z"/>
	<path fill="#51505D" d="M339.474 387.845C341.989 383.591 423.342 308.69 427.578 306.633C432.864 304.066 438.988 302.608 444.61 300.878L475.241 291.667C494.97 285.84 514.681 279.027 534.59 273.917C537.492 273.153 540.415 272.478 543.357 271.892C531.042 284.212 517.765 295.491 505.238 307.581C496.506 316.009 466.258 348.48 458.906 352.36C450.177 356.966 439.642 358.913 430.251 361.94C413.659 367.286 397.193 373.044 380.633 378.491C374.884 380.328 369.167 382.263 363.484 384.295C356.007 387.004 344.677 392.954 336.851 393.001C336.626 393.003 336.401 392.992 336.176 392.988L329.784 395.525C333.055 393.011 336.317 390.501 339.474 387.845Z"/>
	<path fill="#FEFEFE" d="M339.474 387.845C350.8 382.98 361.596 374.969 372.122 368.555C387.584 359.286 403.116 350.135 418.716 341.102C426.354 336.587 432.984 331.025 441.664 328.575C430.917 339.561 400.578 354.317 386.074 362.91C369.343 372.821 353.331 383.768 336.176 392.988L329.784 395.525C333.055 393.011 336.317 390.501 339.474 387.845Z"/>
	<path fill="#51505D" d="M522.689 312.974C526.767 316.978 530.232 321.972 533.704 326.512C542.081 337.685 550.245 349.017 558.19 360.502C551.566 368.681 543.456 376.129 536.057 383.62C524.227 395.56 512.471 407.573 500.789 419.659C496.795 417.368 470.179 374.135 465.379 366.613C484.949 349.193 503.44 330.725 522.689 312.974Z"/>
	<path fill="#FEFEFE" d="M610.993 822.165C626.633 823.3 644.693 830.459 658.698 837.477C662.599 839.432 668.876 842.591 670.129 847.088C671.633 852.489 666.395 860.543 663.94 865.303C663.791 864.352 663.621 863.415 663.414 862.475C661.622 854.329 658.297 847.43 650.954 842.803C645.13 839.134 620.104 830.138 613.517 832.585C612.209 833.071 612.134 833.292 611.684 834.498C612.459 836.11 613.782 836.593 615.432 837.157C618.791 838.305 622.586 838.681 626.081 839.324C633.706 840.726 643.173 843.036 649.569 847.626C657.781 853.519 658.65 864.081 660.166 873.249C658.583 877.05 657.127 881.311 654.615 884.603L653.902 884.688C648.672 878.527 649.594 867.932 644.213 861.982C636.489 853.441 617.379 852.217 606.78 852.019C605.105 852.124 603.099 852.101 601.525 852.709C600.056 853.277 598.33 854.303 597.677 855.773C598.357 856.987 599.163 857.127 600.488 857.348C604.273 857.977 608.397 857.579 612.236 857.586C619.827 857.6 629.075 859.273 635.825 862.837C640.767 865.446 643.713 869.666 645.222 874.983C645.891 877.342 646.796 880.928 645.538 883.196L644.507 883.335C642.439 882.138 641.197 880.088 639.606 878.354C633.041 871.197 623.88 868.316 614.379 867.991C599.24 867.472 582.665 874.681 571.75 885C559.678 884.658 547.638 884.777 535.566 884.921C535.529 873.882 534.227 863.549 532.003 852.756C544.303 850.229 556.373 847.578 567.925 842.474C582.466 836.048 595.919 827.459 610.993 822.165Z"/>
	<path fill="#51505D" d="M460.439 368.042C464.778 372.292 469.084 380.554 472.421 385.716L496.456 423.002C473.752 431.033 450.323 436.879 426.899 442.367L417.864 444.031C409.849 425.68 400.586 408.048 391.272 390.338C399.776 387.435 408.611 385.18 417.208 382.51C431.724 378.009 446.138 373.186 460.439 368.042Z"/>
	<path fill="#FEFEFE" d="M438.386 889.725C449.989 889.334 461.666 889.848 473.28 889.87L542.689 889.906L602.391 889.97C619.433 889.94 636.406 889.712 653.438 890.522C650.864 896.448 648.244 902.354 645.577 908.24C642.641 909.193 609.061 908.3 603.752 908.309L431.569 908.41C431.36 902.287 431.484 896.151 431.522 890.025L438.386 889.725Z"/>
	<path fill="#FEFEFE" d="M401.464 541.851C403.786 543.27 406.291 560.996 407.016 564.486C412.237 589.638 429.543 622.325 443.115 644.253C433.802 644.827 427.711 647.941 421.179 654.515C418.803 657.478 417.005 660.854 415.122 664.139C399.587 634.519 387.6 588.132 389.098 554.546C392.642 549.796 397.121 545.847 401.464 541.851Z"/>
	<path fill="#FEFEFE" d="M72.1964 856.523C96.6642 856.044 121.121 856.526 145.587 856.3C147.159 857.337 148.654 858.38 150.02 859.685C155.491 864.916 158.406 872.506 158.466 880.03C158.542 889.676 154.219 896.003 147.712 902.521C122.494 901.531 97.3605 902.532 72.1489 902.212C72.6066 899.689 73.2413 897.184 73.8067 894.682C89.0943 894.267 104.458 894.378 119.748 894.567C127.805 894.667 136.209 895.352 144.226 894.663C145.768 894.53 147.078 894.477 148.263 893.384C148.559 892.179 148.497 892.118 148.005 890.968C146.982 890.029 146.171 889.813 144.827 889.696C140.606 889.328 136.031 889.998 131.768 890.002L97.3526 889.919L74.5233 889.895C74.5268 887.103 74.6256 884.302 74.6819 881.51C91.9369 881.18 109.24 881.411 126.498 881.5C133.07 881.534 140.031 882.184 146.556 881.747C147.877 881.659 149.737 881.476 150.861 880.699C151.952 879.944 152.084 879.709 152.298 878.494L151.561 877.609C149.941 876.857 148.515 876.583 146.739 876.475C138.621 875.979 130.165 876.549 122.011 876.622C106.2 876.799 90.3873 876.785 74.5766 876.579L74.4981 869.02L123.53 869.118C130.682 869.123 139.373 870.089 146.274 868.549C147.169 867.796 147.289 867.603 147.702 866.506L147.196 865.712C141.419 862.619 83.4668 863.995 73.8921 864.367L72.1964 856.523Z"/>
	<path fill="#FEFEFE" d="M125.884 785.228C133.838 784.74 143.936 784.36 150.157 790.143C154.776 794.437 156.569 800.752 156.832 806.881C157.246 816.546 154.164 824.065 147.621 831.112C138.979 832.263 129.898 831.509 121.187 831.483L73.167 831.366C73.9464 828.764 74.6093 826.111 75.3244 823.489C85.6454 823.559 141.843 824.812 146.502 822.619C147.306 821.715 147.66 821.726 147.631 820.465C146.171 819.027 143.83 818.824 141.879 818.636C135.48 818.018 128.432 818.687 121.972 818.673L76.3833 818.482C76.4242 815.817 76.672 813.167 76.8939 810.513L99.75 810.452C106.071 810.431 146.232 811.326 149.603 809.929C150.639 809.499 150.683 809.301 151.077 808.324C150.843 807.683 150.619 807.165 150.089 806.696C149.135 805.852 147.953 805.627 146.73 805.52C139.014 804.848 130.932 805.473 123.17 805.491L76.65 805.49L76.3549 798.282C92.0058 797.631 107.787 798.357 123.451 798.411C128.287 798.427 143.878 799.395 146.986 796.308C146.984 794.981 146.736 795.066 145.908 794.112C140.92 791.787 84.7425 793.164 74.6682 793.297C73.5606 790.69 72.7359 788.295 72.1619 785.516C90.0514 785.486 108.004 785.771 125.884 785.228Z"/>
	<path fill="#51505D" d="M224.221 717.962L225.187 718.176C225.936 722.097 218.86 747.256 217.669 753.223C215.974 761.614 214.528 770.052 213.331 778.529L155.426 778.461C154.536 778.314 154.98 778.499 154.169 777.75C154.471 776.403 154.918 775.263 155.531 774.024C157.251 770.55 159.628 767.264 161.777 764.037C176.897 741.329 198.52 726.405 224.221 717.962Z"/>
	<path fill="#FEFEFE" d="M747.928 678.392C750.705 678.446 753.424 678.788 756.178 679.126C752.433 690.246 747.542 701.003 742.996 711.813L721.082 764.03C701.224 811.792 682.284 860.402 659.489 906.833L659.051 907.189C656.881 907.555 654.113 906.542 651.973 906.047C656.196 893.512 662.282 881.742 667.623 869.673C675.808 850.922 683.813 832.093 691.639 813.188L730.104 720.398C735.933 706.491 740.853 691.704 747.928 678.392Z"/>
	<path fill="#51505D" d="M230.046 692.563C230.33 692.603 230.556 692.828 230.799 692.979C230.422 699.268 227.812 706.405 226.202 712.551C223.171 713.13 220.172 714.02 217.242 714.978C185.734 725.282 162.591 749.616 147.715 778.536L134.524 778.499L133.841 777.803C134.014 773.104 138.942 765.799 141.232 761.665C155.46 735.989 177.643 711.909 204.947 700.235C212.949 696.814 221.684 694.945 230.046 692.563Z"/>
	<path fill="#51505D" d="M340.265 850.213C346.685 849.89 353 850.097 359.364 850.996C361.937 853.496 364.031 856.444 365.542 859.696C370.265 869.73 370.269 882.743 366.464 893.062C364.417 898.617 361.079 904.714 355.498 907.242C348.587 909.324 341.113 908.588 333.995 908.374C342.498 887.161 342.651 871.753 333.877 850.589L340.265 850.213Z"/>
	<path fill="#FEFEFE" d="M561.91 266.118C562.798 265.951 562.377 265.89 563.173 266.288C561.017 270.093 550.774 278.611 547.019 282.277L488.187 339.188C482.672 344.478 477.597 350.221 471.983 355.414C469.355 357.845 466.315 360.522 463.15 362.23C457.635 365.204 450.732 366.625 444.767 368.498L414.567 378.176C392.24 385.227 370.173 393.232 347.725 399.837C347.179 399.802 346.927 399.565 346.474 399.279C346.238 397.837 346.239 397.268 346.895 395.954C351.447 391.718 422.605 369.366 433.531 365.857C442.59 362.948 452.726 360.871 461.082 356.237C467.387 352.739 472.918 345.438 478.179 340.425L526.7 294.011C534.415 286.553 541.822 277.635 550.412 271.24C554.162 268.448 557.369 267.123 561.91 266.118Z"/>
	<path fill="#48CED2" d="M336.415 783.749C342.393 783.447 350.773 782.132 356.406 784.142C359.055 785.087 360.396 787.567 361.393 790.045C365.415 800.036 367.758 822.202 363.301 832.317C362.353 834.469 361.309 835.731 359.086 836.57L334.061 836.551C337.148 825.588 339.626 814.045 338.11 802.605C337.548 798.363 333.319 787.737 334.707 784.274L336.415 783.749Z"/>
	<path fill="#FEFEFE" d="M550.052 488.096C558.418 489.859 562.281 489.488 568.805 495.993C570.567 504.184 568.815 512.76 565.386 520.284C562.587 526.425 557.945 533.4 551.295 535.69C548.454 536.668 545.403 536.604 542.723 535.181C537.049 532.168 535.059 525.435 533.38 519.706C532.946 516.449 532.327 510.078 533.88 507.09C534.366 506.157 535.341 505.43 536.302 505.062C544.789 501.806 543.56 515.537 549.105 518.203C550.095 518.29 550.772 518.253 551.665 517.82C554.406 516.49 556.221 513.921 557.083 511.054C557.854 508.488 557.983 504.898 556.397 502.581C555.519 501.297 554.355 500.42 552.779 500.216C549.925 499.845 547.903 501.743 545.814 503.356C542.771 502.195 539.861 500.884 536.93 499.463C540.222 493.645 543.931 490.529 550.052 488.096Z"/>
	<path fill="#51505D" d="M99.9799 841.733C120.075 841.073 140.307 841.646 160.412 841.744L228.555 841.531L312.747 841.789C322.995 841.844 333.341 841.337 343.57 841.674C345.893 841.751 349.405 841.6 351.366 842.974C352.089 843.481 351.856 843.379 351.972 844.367C348.493 847.34 327.876 845.866 322.563 845.674C300.255 845.064 277.8 845.529 255.477 845.535C210.121 845.814 164.762 845.591 119.411 844.865C109.52 844.703 99.6303 844.485 89.7419 844.214C82.0577 844.079 73.4534 844.939 66.0078 842.828C77.3226 842.218 88.6493 841.853 99.9799 841.733Z"/>
	<path fill="#FEFEFE" d="M482.481 603.903C487.514 608.94 490.641 628.005 491.871 635.584C492.833 641.51 496.423 665.063 493.68 668.88C491.395 666.416 493.001 660.119 487.626 656.547C486.279 655.652 484.751 655.414 483.196 655.777C476.438 657.354 470.526 668.114 466.881 673.592C463.531 678.446 460.298 684.092 456.296 688.409C458.17 678.813 462.482 671.509 466.642 662.784C473.727 647.924 477.893 630.597 474.291 614.266C476.827 610.617 479.557 607.249 482.481 603.903Z"/>
	<path fill="#FEFEFE" d="M585.312 448.98C587.202 451.379 587.448 457.488 587.581 460.524C588.061 471.462 586.845 481.537 582.159 491.575C581.292 493.432 580.264 495.818 578.775 497.242C577.798 498.177 577.248 498.263 575.941 498.23C571.808 495.702 570.704 491.835 568.137 487.988C564.515 482.559 558.536 481.063 552.519 479.961C544.915 479.79 537.235 480.181 529.627 480.344C554.065 472.892 566.731 466.617 585.312 448.98Z"/>
	<path fill="#51505D" d="M343.968 448.243C344.867 448.559 345.654 448.901 346.411 449.483C353.57 454.982 354.891 475.69 356.064 484.6L348.442 486.436C344.589 486.75 340.054 487.387 336.684 485.176C336.07 484.362 335.736 483.7 335.608 482.692C334.761 476.002 338.581 458.444 341.203 452.433C341.881 450.878 342.913 449.557 343.968 448.243Z"/>
	<path fill="#FEFEFE" d="M306.449 850.5L314.562 850.492C316.149 853.181 317.647 856.014 318.81 858.915C325.554 875.736 322.16 891.453 315.279 907.523C312.765 907.909 310.476 907.818 307.96 907.651C309.044 904.708 310.149 901.76 311.114 898.776C316.781 881.247 314.836 866.682 306.449 850.5Z"/>
	<path fill="#48CED2" d="M606.167 873.584C608.625 873.407 611.092 873.356 613.556 873.432C623.951 873.678 631.294 877.461 638.358 884.909L613.317 884.663L579.529 885.004C588.143 879.695 596.271 875.815 606.167 873.584Z"/>
	<path fill="#FEFEFE" d="M320.539 850.587L328.584 850.563C330.386 854.45 332.042 858.444 333.254 862.558C337.918 878.389 335.656 893.66 327.905 908.017L320.866 907.997C322.648 904.265 324.311 900.463 325.506 896.496C330.192 880.935 328.177 864.772 320.539 850.587Z"/>
	<path fill="#FEFEFE" d="M322.954 783.74C324.405 783.669 325.691 783.633 327.134 783.901C327.64 784.341 327.948 784.738 328.243 785.344C333.961 797.121 334.203 818.458 330.112 830.913C329.296 833.399 328.623 836.116 326.195 837.341C324.156 837.319 322.115 837.19 320.077 837.094C322.945 827.767 324.98 818.589 324.732 808.778C324.655 805.731 324.446 802.623 323.966 799.612C323.459 796.438 320.111 786.363 321.296 784.06L322.954 783.74Z"/>
	<path fill="#FEFEFE" d="M528.482 484.791C533.988 484.299 539.551 484.427 545.076 484.413C539.982 488.466 536.401 492.206 533.322 497.973L524.698 494.553C518.52 491.749 512.08 489.542 505.889 486.732C513.37 485.652 520.942 485.263 528.482 484.791Z"/>
	<path fill="#51505D" d="M649.041 828.201C659.367 828.147 669.811 828.781 680.149 829.018C679.019 832.216 677.656 835.236 676.199 838.297C675.355 839.858 674.339 841.32 673.37 842.806C669.635 840.824 666.232 837.999 662.587 835.806C658.358 833.264 652.682 831.43 649.041 828.201Z"/>
	<path fill="#727387" d="M140.118 851.321C133.379 851.621 73.1726 852.279 70.9955 851.113C70.3869 850.788 70.4702 850.28 70.3266 849.668L71.138 848.795C72.739 848.217 74.221 848.025 75.9178 847.975C85.7552 847.686 95.8872 848.618 105.752 848.805C115.66 848.994 125.625 848.458 135.518 848.956C138.887 849.126 142.084 849.525 145.37 850.286C143.955 850.878 142.856 850.879 141.337 850.958C140.499 851.001 140.822 850.92 140.118 851.321Z"/>
	<path fill="#FEFEFE" d="M532.151 555.681C534.332 556.595 536.348 557.996 538.439 559.111C543.798 561.968 548.569 563.497 554.504 564.711C553.736 566.971 552.625 568.97 551.494 571.059C550.681 571.918 549.718 573.099 548.597 573.547C547.176 574.115 545.762 574.153 544.335 573.568C538.279 571.082 534.367 561.371 532.151 555.681Z"/>
	<path fill="#FEFEFE" d="M70.5022 906.705C77.1069 905.977 138.651 905.9 141.173 907.18L141.233 908.027C133.071 908.3 75.6456 909.345 71.7113 908.032C70.8441 907.743 70.9182 907.466 70.5022 906.705Z"/>
	<path fill="#FEFEFE" d="M81.6503 836.229C88.5312 836.043 95.4551 836.343 102.345 836.264C111.53 836.159 134.817 834.767 142.783 836.961C140.233 837.785 137.364 837.731 134.7 837.901C126.6 838.045 118.49 837.647 110.379 837.799C97.2318 838.044 81.989 839.586 69.1223 837.327C73.2894 836.552 77.4275 836.399 81.6503 836.229Z"/>
	<path fill="#FEFEFE" d="M340.21 397.055L341.235 397.526C341.405 397.988 341.629 398.524 341.681 399.016C341.761 399.79 341.409 400.578 340.924 401.159C337.629 405.103 327.729 406.203 322.877 406.871C321.781 406.417 322.242 406.782 321.545 405.715C321.684 405.164 321.655 405.118 322.023 404.564C324.368 401.031 335.963 398.24 340.21 397.055Z"/>
	<path fill="#FEFEFE" d="M550.995 505.239C551.702 505.822 552.444 506.331 552.758 507.236C553.432 509.174 551.97 511.413 551.141 513.097C550.375 512.306 549.492 511.451 549.225 510.347C548.762 508.433 550.033 506.762 550.995 505.239Z"/>
	<path d="M282.662 80.2315L283.376 80.0636C289.911 81.9996 295.053 89.6531 298.316 95.2445C307.149 110.383 306.167 133.76 301.731 150.042C293.443 180.467 270.995 207.902 243.617 223.291C231.542 230.079 216.928 234.661 203.156 230.642C189.852 226.76 181.655 215.266 175.258 203.684C171.712 197.126 168.213 189.311 166.111 182.174C158.914 182.904 133.144 186.503 127.937 181.724C126.869 180.744 126.58 179.116 126.6 177.723C126.62 176.268 127 175.073 127.734 173.828C133.818 163.504 141.749 153.748 148.628 143.883L166.457 118.21C171.349 111.159 175.989 103.841 182.039 97.7105C184.096 95.6268 186.606 95.104 189.361 94.4372C202.176 91.3357 215.936 90.0672 228.994 88.0217C246.721 85.2449 264.786 81.6401 282.662 80.2315ZM262.61 126.477C268.998 134.465 276.845 141.625 282.8 149.864C272.055 171.43 255.434 197.482 231.365 205.407C217.361 210.018 201.83 211.495 187.235 213.176L190.742 217.447C198.052 223.928 206.066 228.071 216.111 227.431C237.785 226.05 258.769 209.145 272.445 193.464C288.938 174.552 302.265 148.748 300.35 122.991C299.512 111.731 296.557 97.0994 288.211 88.8083C279.997 99.5868 268.33 114.347 262.61 126.477ZM133.595 179.274C144.884 178.185 156.181 177.176 167.485 176.249C186.703 174.852 206.08 173.819 225.198 171.359C236.202 156.058 246.289 140.014 257.105 124.556L271.051 104.775C274.977 99.3192 279.811 93.6621 282.519 87.4903L282.327 86.3197C281.539 85.8063 281.046 85.5267 280.132 85.2377C274.818 93.5561 268.908 101.523 263.3 109.647L237.63 147.003C232.756 153.982 227.437 160.698 222.898 167.903C201.007 170.213 178.955 172.078 157.031 174.085C149.513 174.773 141.732 174.639 134.275 175.67C133.106 175.832 132.281 175.98 131.412 176.839C131.466 177.997 131.538 178.033 132.287 178.932L133.595 179.274Z"/>
	<path fill="#51505D" d="M272.334 86.2096C272.849 86.173 272.527 86.1467 273.246 86.5332C271.974 90.7279 260.409 105.803 257.092 110.575C244.964 128.02 232.425 145.318 221.113 163.305C206.965 166.02 191.663 165.783 177.278 166.979C164.273 168.061 151.46 170.345 138.375 170.516C137.902 170.455 137.474 170.218 137.036 170.034C136.929 168.25 139.004 165.646 139.978 164.173C146.756 153.93 154.572 144.364 161.688 134.356C168.288 125.073 174.222 115.128 181.221 106.152C182.753 104.187 184.704 101.647 186.855 100.382C190.813 98.0543 261.661 87.4633 272.334 86.2096Z"/>
	<path d="M210.55 123.802C212.118 124.077 213.011 124.699 214.139 125.729C214.473 126.463 214.725 127.023 214.609 127.859C214.076 131.682 209.57 135.292 206.903 137.757C206.254 137.649 205.428 137.568 204.806 137.309C203.625 136.818 203.252 136.107 202.772 135.001C202.874 130.574 207.584 126.691 210.55 123.802Z"/>
	<path fill="#51505D" d="M259.48 130.759C264.167 133.229 273.168 145.58 277.089 150.228C271.216 160.234 264.954 169.995 257.794 179.137C243.983 196.77 236.175 200.493 214.58 203.925C205.949 205.345 197.294 206.618 188.619 207.743C187.227 208.092 185.473 208.115 184.03 208.28C178.523 199.703 174.983 190.618 171.542 181.087C190.465 180.419 209.331 178.626 228.041 175.718C232.28 170.472 235.978 164.634 239.811 159.078C246.319 149.605 252.875 140.165 259.48 130.759Z"/>
	<path fill="#48CED2" d="M766.304 191.204C796.076 188.56 822.377 210.5 825.114 240.263C827.852 270.027 805.995 296.397 776.24 299.228C746.352 302.072 719.84 280.096 717.09 250.199C714.34 220.303 736.399 193.86 766.304 191.204Z"/>
	<path fill="#48CED2" d="M135.622 398.142C147.802 396.578 158.969 405.117 160.65 417.282C162.332 429.446 153.901 440.695 141.753 442.494C129.439 444.317 118.002 435.745 116.297 423.413C114.592 411.082 123.274 399.728 135.622 398.142Z"/>
	<path fill="#48CED2" d="M892.88 424.761C898.312 424.31 903.564 426.832 906.609 431.354C909.654 435.876 910.016 441.69 907.557 446.555C905.097 451.42 900.199 454.575 894.753 454.803C886.566 455.146 879.609 448.877 879.099 440.699C878.589 432.521 884.714 425.437 892.88 424.761Z"/>
	<path fill="#48CED2" d="M206.008 307.153C213.74 306.487 220.568 312.168 221.32 319.892C222.073 327.616 216.469 334.508 208.754 335.347C203.686 335.898 198.712 333.683 195.731 329.547C192.75 325.41 192.222 319.991 194.349 315.357C196.475 310.724 200.928 307.59 206.008 307.153Z"/>
	<path fill="#48CED2" d="M95.9269 493.997C96.5299 494.048 97.1142 494.104 97.71 494.211C100.374 494.692 102.785 495.663 104.258 498.069C105.063 499.386 105.262 500.933 104.841 502.419C104.107 505.013 102.15 506.184 99.9521 507.48C98.8121 507.496 97.6198 507.546 96.4904 507.378C94.6347 507.101 92.7725 505.598 91.8046 504.039C90.8739 502.539 90.5741 500.753 91.0509 499.039C91.7918 496.376 93.606 495.222 95.9269 493.997Z"/>
</svg>
